# Blender v2.90.1 OBJ File: 'straight.blend'
# www.blender.org
mtllib Road.095.mtl
o Road.095_Plane.096
v -1.004141 -94.500000 0.000000
v -0.934823 -94.500000 0.000000
v -1.004141 -95.500000 0.000000
v -1.004141 -94.500000 0.078180
v -0.934823 -94.500000 0.050000
v -1.004141 -95.500000 0.078180
v -0.934823 -95.500000 0.050000
v 0.000000 -95.500000 0.050000
v 0.934823 -95.500000 0.050000
v 0.934823 -94.500000 0.050000
v 1.004141 -95.500000 0.078180
v 1.004141 -94.500000 0.078180
v 1.004141 -95.500000 0.000000
v 1.004141 -94.500000 0.000000
v 0.934823 -95.500000 0.000000
v 0.000000 -95.500000 0.000000
v -0.934823 -95.500000 0.000000
v 0.934823 -94.500000 0.000000
v 0.000000 -94.500000 0.000000
v 0.000000 -94.500000 0.050000
vt 0.000000 0.250000
vt 1.000000 0.000000
vt 1.000000 0.250000
vt 0.000000 0.500000
vt 0.000000 0.500000
vt 0.994264 0.993744
vt 0.940736 -0.005509
vt 1.000728 -0.003268
vt 1.000000 0.250000
vt 1.000000 0.000000
vt 1.000000 0.000000
vt 0.499491 0.731856
vt 0.144593 -0.006319
vt 0.498009 -0.005843
vt 0.029976 -0.005015
vt 0.000024 0.998550
vt -0.006983 -0.004058
vt 0.000000 0.000000
vt 0.000000 0.250000
vt 0.000000 0.000000
vt 1.000000 0.250000
vt 1.000000 0.500000
vt 0.000000 0.250000
vt 0.000000 0.000000
vt 0.000000 0.250000
vt 0.000000 0.000000
vt 0.934273 0.991503
vt 1.000000 0.250000
vt 1.000000 0.000000
vt 1.000000 0.500000
vt 0.851425 -0.005368
vt 0.852907 0.732331
vt 0.146075 0.731380
vt 0.036984 0.997592
vn 0.0000 0.0000 -1.0000
vn 0.0000 1.0000 0.0000
vn 0.3766 0.0000 0.9264
vn 0.0000 -1.0000 0.0000
vn 0.0000 0.0000 1.0000
vn -0.3766 0.0000 0.9264
usemtl Road
s off
f 18/1/1 13/2/1 15/3/1
f 18/1/2 19/4/2 20/5/2
f 6/6/3 5/7/3 4/8/3
f 7/9/4 6/10/4 3/11/4
f 8/12/5 10/13/5 20/14/5
f 10/15/6 11/16/6 12/17/6
f 3/11/1 1/18/1 2/19/1
f 19/4/1 18/1/1 15/3/1
f 18/1/1 14/20/1 13/2/1
f 3/11/1 2/19/1 17/21/1
f 2/19/1 19/4/1 17/21/1
f 15/3/1 16/22/1 19/4/1
f 16/22/1 17/21/1 19/4/1
f 19/4/2 2/19/2 5/23/2
f 2/19/2 1/18/2 5/23/2
f 1/18/2 4/24/2 5/23/2
f 5/23/2 20/5/2 19/4/2
f 20/5/2 10/25/2 18/1/2
f 12/26/2 14/20/2 10/25/2
f 14/20/2 18/1/2 10/25/2
f 6/6/3 7/27/3 5/7/3
f 15/3/4 13/2/4 9/28/4
f 13/2/4 11/29/4 9/28/4
f 9/28/4 8/30/4 16/22/4
f 8/30/4 7/9/4 16/22/4
f 3/11/4 17/21/4 7/9/4
f 17/21/4 16/22/4 7/9/4
f 16/22/4 15/3/4 9/28/4
f 20/14/5 5/31/5 7/32/5
f 8/12/5 9/33/5 10/13/5
f 20/14/5 7/32/5 8/12/5
f 10/15/6 9/34/6 11/16/6
