# Blender v2.90.1 OBJ File: 'track1.blend'
# www.blender.org
mtllib RoadBlock.084.mtl
o RoadBlock.084
v -7.055583 -97.170090 0.106696
v -6.978319 -97.154922 0.134763
v -8.097340 -97.374596 0.108224
v -6.617173 -98.995377 0.107042
v -6.542133 -98.971519 0.135110
v -7.628944 -99.316917 0.108543
v -8.640717 -99.638466 0.110045
v -8.715683 -99.662285 0.138337
v -9.139093 -97.579094 0.109751
v -9.216281 -97.594238 0.138045
vt 0.893475 0.989125
vt 0.856526 0.010040
vt 0.856506 0.989124
vt 0.497318 1.034627
vt 0.033577 1.034741
vt 0.497173 -0.034628
vt 0.856506 0.989124
vt 0.893494 0.010041
vt 0.893475 0.989125
vt 0.893494 0.010041
vt 0.033431 -0.034514
vt 0.958395 -0.034741
vt 0.958540 1.034514
vt 0.856526 0.010040
vn -0.3273 -0.0784 0.9417
vn 0.0013 0.0005 1.0000
vn 0.3296 0.0799 0.9407
vn -0.3268 -0.0783 0.9419
vn 0.0014 0.0005 1.0000
vn 0.3292 0.0798 0.9409
usemtl Road
s off
f 5/1/1 1/2/1 4/3/1
f 6/4/2 4/5/2 3/6/2
f 7/7/3 10/8/3 8/9/3
f 5/1/4 2/10/4 1/2/4
f 4/5/5 1/11/5 3/6/5
f 3/6/5 9/12/5 6/4/5
f 9/12/2 7/13/2 6/4/2
f 7/7/6 9/14/6 10/8/6
