# Blender v2.90.1 OBJ File: 'track1.blend'
# www.blender.org
mtllib RoadBlock.139.mtl
o RoadBlock.139
v -12.885658 -7.945079 0.026440
v -12.808165 -7.930989 0.054439
v -13.930247 -8.134563 0.028873
v -12.441649 -9.810150 0.028502
v -12.365393 -9.790433 0.056499
v -13.469579 -10.075541 0.030970
v -14.497507 -10.340934 0.033439
v -14.573651 -10.360564 0.061802
v -14.974835 -8.324048 0.031307
v -15.052215 -8.338050 0.059668
vt 0.893475 0.989125
vt 0.856526 0.010040
vt 0.856506 0.989124
vt 0.497318 1.034627
vt 0.033577 1.034741
vt 0.497173 -0.034628
vt 0.856506 0.989124
vt 0.893494 0.010041
vt 0.893475 0.989125
vt 0.893494 0.010041
vt 0.033431 -0.034514
vt 0.958395 -0.034741
vt 0.958540 1.034514
vt 0.856526 0.010040
vn -0.3261 -0.0766 0.9422
vn 0.0020 0.0016 1.0000
vn 0.3300 0.0791 0.9407
vn -0.3264 -0.0767 0.9421
vn 0.0020 0.0015 1.0000
vn 0.3304 0.0792 0.9405
usemtl Road
s off
f 5/1/1 1/2/1 4/3/1
f 6/4/2 4/5/2 3/6/2
f 7/7/3 10/8/3 8/9/3
f 5/1/4 2/10/4 1/2/4
f 4/5/2 1/11/2 3/6/2
f 3/6/2 9/12/2 6/4/2
f 9/12/5 7/13/5 6/4/5
f 7/7/6 9/14/6 10/8/6
