# Blender v2.90.1 OBJ File: 'track1.blend'
# www.blender.org
mtllib RoadBlock.086.mtl
o RoadBlock.086
v -7.485641 -93.300743 0.105982
v -7.407269 -93.293114 0.134044
v -8.542295 -93.403488 0.107572
v -7.294998 -95.245491 0.106343
v -7.217010 -95.234619 0.134407
v -8.346479 -95.391983 0.107901
v -9.397962 -95.538475 0.109459
v -9.475867 -95.549324 0.137754
v -9.598948 -93.506233 0.109162
v -9.677237 -93.513840 0.137460
vt 0.893475 0.989125
vt 0.856526 0.010040
vt 0.856506 0.989124
vt 0.497318 1.034627
vt 0.033577 1.034741
vt 0.497173 -0.034628
vt 0.856506 0.989124
vt 0.893494 0.010041
vt 0.893475 0.989125
vt 0.893494 0.010041
vt 0.033431 -0.034514
vt 0.958395 -0.034741
vt 0.958540 1.034514
vt 0.856526 0.010040
vn -0.3344 -0.0326 0.9419
vn 0.0014 0.0003 1.0000
vn 0.3371 0.0335 0.9409
vn -0.3341 -0.0326 0.9420
vn 0.0015 0.0003 1.0000
vn 0.3369 0.0335 0.9410
usemtl Road
s off
f 5/1/1 1/2/1 4/3/1
f 6/4/2 4/5/2 3/6/2
f 7/7/3 10/8/3 8/9/3
f 5/1/4 2/10/4 1/2/4
f 4/5/5 1/11/5 3/6/5
f 3/6/5 9/12/5 6/4/5
f 9/12/2 7/13/2 6/4/2
f 7/7/6 9/14/6 10/8/6
