# Blender v2.90.1 OBJ File: 'track1.blend'
# www.blender.org
mtllib RoadBlock.106.mtl
o RoadBlock.106
v -22.833466 -64.160637 0.081072
v -22.754751 -64.162193 0.109175
v -23.894888 -64.139244 0.082105
v -22.888317 -66.150795 0.083469
v -22.809597 -66.151680 0.111576
v -23.949881 -66.138390 0.084447
v -25.011450 -66.125984 0.085426
v -25.090115 -66.125031 0.113679
v -24.956308 -64.117851 0.083139
v -25.034967 -64.116234 0.111395
vt 0.893475 0.989125
vt 0.856526 0.010040
vt 0.856506 0.989124
vt 0.497318 1.034627
vt 0.033577 1.034741
vt 0.497173 -0.034628
vt 0.856506 0.989124
vt 0.893494 0.010041
vt 0.893475 0.989125
vt 0.893494 0.010041
vt 0.033431 -0.034514
vt 0.958395 -0.034741
vt 0.958540 1.034514
vt 0.856526 0.010040
vn -0.3361 0.0104 0.9418
vn 0.0009 0.0011 1.0000
vn 0.3379 -0.0082 0.9411
vn -0.3360 0.0104 0.9418
vn 0.0010 0.0012 1.0000
vn 0.0010 0.0011 1.0000
usemtl Road
s off
f 5/1/1 1/2/1 4/3/1
f 6/4/2 4/5/2 3/6/2
f 7/7/3 10/8/3 8/9/3
f 5/1/4 2/10/4 1/2/4
f 4/5/5 1/11/5 3/6/5
f 3/6/6 9/12/6 6/4/6
f 9/12/2 7/13/2 6/4/2
f 7/7/3 9/14/3 10/8/3
