# Blender v2.90.1 OBJ File: 'track1.blend'
# www.blender.org
mtllib RoadBlock.066.mtl
o RoadBlock.066
v 10.902448 -86.694130 0.106290
v 10.830114 -86.725182 0.134419
v 11.877922 -86.275169 0.106979
v 10.061349 -85.126289 0.105633
v 9.995792 -85.169861 0.133772
v 10.945416 -84.538498 0.106192
v 11.829484 -83.950706 0.106752
v 11.895001 -83.907127 0.134973
v 12.853396 -85.856209 0.107667
v 12.925687 -85.825150 0.135898
vt 0.893475 0.989125
vt 0.856526 0.010040
vt 0.856506 0.989124
vt 0.497318 1.034627
vt 0.033577 1.034741
vt 0.497173 -0.034628
vt 0.856506 0.989124
vt 0.893494 0.010041
vt 0.893475 0.989125
vt 0.893494 0.010041
vt 0.033431 -0.034514
vt 0.958395 -0.034741
vt 0.958540 1.034514
vt 0.856526 0.010040
vn 0.2976 0.1600 0.9412
vn -0.0007 0.0001 1.0000
vn -0.2988 -0.1601 0.9408
vn 0.2974 0.1599 0.9413
vn -0.0007 0.0000 1.0000
vn -0.2986 -0.1600 0.9409
usemtl Road
s off
f 5/1/1 1/2/1 4/3/1
f 6/4/2 4/5/2 3/6/2
f 7/7/3 10/8/3 8/9/3
f 5/1/4 2/10/4 1/2/4
f 4/5/5 1/11/5 3/6/5
f 3/6/2 9/12/2 6/4/2
f 9/12/2 7/13/2 6/4/2
f 7/7/6 9/14/6 10/8/6
