# Blender v2.90.1 OBJ File: 'track1.blend'
# www.blender.org
mtllib RoadBlock.146.mtl
o RoadBlock.146
v -5.875215 -1.342138 0.010383
v -5.868649 -1.420565 0.038559
v -5.963522 -0.284178 0.010439
v -7.815491 -1.499172 0.011765
v -7.805091 -1.577183 0.039941
v -7.955459 -0.446801 0.011813
v -8.095428 0.605570 0.011861
v -8.105781 0.683585 0.040044
v -6.051831 0.773781 0.010496
v -6.058359 0.852208 0.038681
vt 0.893475 0.989125
vt 0.856526 0.010040
vt 0.856506 0.989124
vt 0.497318 1.034627
vt 0.033577 1.034741
vt 0.497173 -0.034628
vt 0.856506 0.989124
vt 0.893494 0.010041
vt 0.893475 0.989125
vt 0.893494 0.010041
vt 0.033431 -0.034514
vt 0.958395 -0.034741
vt 0.958540 1.034514
vt 0.856526 0.010040
vn -0.0266 0.3365 0.9413
vn 0.0007 0.0000 1.0000
vn 0.0283 -0.3363 0.9413
vn -0.0265 0.3360 0.9415
vn 0.0283 -0.3360 0.9414
usemtl Road
s off
f 5/1/1 1/2/1 4/3/1
f 6/4/2 4/5/2 3/6/2
f 7/7/3 10/8/3 8/9/3
f 5/1/4 2/10/4 1/2/4
f 4/5/2 1/11/2 3/6/2
f 3/6/2 9/12/2 6/4/2
f 9/12/2 7/13/2 6/4/2
f 7/7/5 9/14/5 10/8/5
