# Blender v2.90.1 OBJ File: 'track1.blend'
# www.blender.org
mtllib RoadBlock.082.mtl
o RoadBlock.082
v -6.026538 -100.690918 0.107379
v -5.956807 -100.654343 0.135449
v -6.966751 -101.183937 0.108862
v -5.189137 -102.155899 0.107704
v -5.132863 -102.100830 0.135774
v -5.947917 -102.898415 0.109179
v -6.706696 -103.640930 0.110654
v -6.762919 -103.695938 0.138943
v -7.906964 -101.676964 0.110345
v -7.976630 -101.713493 0.138634
vt 0.893475 0.989125
vt 0.856526 0.010040
vt 0.856506 0.989124
vt 0.497318 1.034627
vt 0.033577 1.034741
vt 0.497173 -0.034628
vt 0.856506 0.989124
vt 0.893494 0.010041
vt 0.893475 0.989125
vt 0.893494 0.010041
vt 0.033431 -0.034514
vt 0.958395 -0.034741
vt 0.958540 1.034514
vt 0.856526 0.010040
vn -0.3003 -0.1715 0.9383
vn 0.0011 0.0008 1.0000
vn 0.2952 0.1808 0.9382
vn -0.2920 -0.1661 0.9419
vn 0.0011 0.0009 1.0000
vn 0.2892 0.1769 0.9408
usemtl Road
s off
f 5/1/1 1/2/1 4/3/1
f 6/4/2 4/5/2 3/6/2
f 7/7/3 10/8/3 8/9/3
f 5/1/4 2/10/4 1/2/4
f 4/5/5 1/11/5 3/6/5
f 3/6/5 9/12/5 6/4/5
f 9/12/2 7/13/2 6/4/2
f 7/7/6 9/14/6 10/8/6
