# Blender v2.90.1 OBJ File: 'track1.blend'
# www.blender.org
mtllib RoadBlock.105.mtl
o RoadBlock.105
v -22.888317 -66.150795 0.083469
v -22.809597 -66.151680 0.111576
v -23.949881 -66.138390 0.084447
v -22.905102 -68.086235 0.085990
v -22.826456 -68.082703 0.114097
v -23.965694 -68.133369 0.086975
v -25.026285 -68.180496 0.087961
v -25.104881 -68.183952 0.116214
v -25.011450 -66.125984 0.085426
v -25.090115 -66.125031 0.113679
vt 0.893475 0.989125
vt 0.856526 0.010040
vt 0.856506 0.989124
vt 0.497318 1.034627
vt 0.033577 1.034741
vt 0.497173 -0.034628
vt 0.856506 0.989124
vt 0.893494 0.010041
vt 0.893475 0.989125
vt 0.893494 0.010041
vt 0.033431 -0.034514
vt 0.958395 -0.034741
vt 0.958540 1.034514
vt 0.856526 0.010040
vn -0.3367 0.0041 0.9416
vn 0.0009 0.0013 1.0000
vn 0.3383 -0.0013 0.9410
vn -0.3362 0.0042 0.9418
vn 0.0009 0.0012 1.0000
vn 0.3380 -0.0013 0.9411
usemtl Road
s off
f 5/1/1 1/2/1 4/3/1
f 6/4/2 4/5/2 3/6/2
f 7/7/3 10/8/3 8/9/3
f 5/1/4 2/10/4 1/2/4
f 4/5/2 1/11/2 3/6/2
f 3/6/2 9/12/2 6/4/2
f 9/12/5 7/13/5 6/4/5
f 7/7/6 9/14/6 10/8/6
