# Blender v2.90.1 OBJ File: 'track1.blend'
# www.blender.org
mtllib RoadBlock.102.mtl
o RoadBlock.102
v -22.040934 -70.998848 0.091193
v -21.980465 -70.948402 0.119229
v -22.856539 -71.678459 0.093147
v -21.096079 -71.937195 0.093592
v -21.069529 -71.863037 0.121572
v -21.454359 -72.936546 0.096303
v -21.812643 -73.935898 0.099013
v -21.839212 -74.009903 0.127394
v -23.672138 -72.358063 0.095100
v -23.732594 -72.408371 0.123425
vt 0.893475 0.989125
vt 0.856526 0.010040
vt 0.856506 0.989124
vt 0.497318 1.034627
vt 0.033577 1.034741
vt 0.497173 -0.034628
vt 0.856506 0.989124
vt 0.893494 0.010041
vt 0.893475 0.989125
vt 0.893494 0.010041
vt 0.033431 -0.034514
vt 0.958395 -0.034741
vt 0.958540 1.034514
vt 0.856526 0.010040
vn -0.2590 -0.2584 0.9307
vn 0.0001 0.0027 1.0000
vn 0.2308 0.2751 0.9333
vn -0.2396 -0.2362 0.9417
vn 0.0002 0.0027 1.0000
vn 0.2211 0.2630 0.9391
usemtl Road
s off
f 5/1/1 1/2/1 4/3/1
f 6/4/2 4/5/2 3/6/2
f 7/7/3 10/8/3 8/9/3
f 5/1/4 2/10/4 1/2/4
f 4/5/2 1/11/2 3/6/2
f 3/6/5 9/12/5 6/4/5
f 9/12/5 7/13/5 6/4/5
f 7/7/6 9/14/6 10/8/6
