# Blender v2.90.1 OBJ File: 'track1.blend'
# www.blender.org
mtllib RoadBlock.127.mtl
o RoadBlock.127
v -5.603733 -30.783918 0.041298
v -5.526295 -30.769569 0.069321
v -6.647635 -30.977154 0.043418
v -5.229840 -32.878666 0.042349
v -5.151220 -32.874092 0.070381
v -6.289699 -32.940083 0.044352
v -7.349557 -33.001499 0.046354
v -7.428073 -33.006031 0.074683
v -7.691538 -31.170389 0.045538
v -7.768870 -31.184689 0.073875
vt 0.856506 0.989124
vt 0.893494 0.010041
vt 0.856526 0.010040
vt 0.958540 1.034514
vt 0.497318 1.034627
vt 0.497173 -0.034628
vt 0.856526 0.010040
vt 0.893475 0.989125
vt 0.856506 0.989124
vt 0.893475 0.989125
vt 0.033577 1.034741
vt 0.033431 -0.034514
vt 0.958395 -0.034741
vt 0.893494 0.010041
vn -0.3301 -0.0584 0.9421
vn 0.0018 0.0008 1.0000
vn 0.3355 0.0631 0.9399
vn -0.3322 -0.0587 0.9414
vn 0.0019 0.0008 1.0000
vn 0.3331 0.0628 0.9408
usemtl Road
s off
f 4/1/1 2/2/1 1/3/1
f 7/4/2 6/5/2 3/6/2
f 9/7/3 8/8/3 7/9/3
f 4/1/4 5/10/4 2/2/4
f 4/11/2 1/12/2 6/5/2
f 1/12/5 3/6/5 6/5/5
f 3/6/5 9/13/5 7/4/5
f 9/7/6 10/14/6 8/8/6
