# Blender v2.90.1 OBJ File: 'track1.blend'
# www.blender.org
mtllib RoadBlock.068.mtl
o RoadBlock.068
v 11.633511 -89.980171 0.107364
v 11.554920 -89.975555 0.135472
v 12.693332 -90.042267 0.108324
v 11.494040 -88.301659 0.106882
v 11.416799 -88.316849 0.135001
v 12.535698 -88.096657 0.107705
v 13.577355 -87.891655 0.108528
v 13.654552 -87.876450 0.136769
v 13.753153 -90.104355 0.109284
v 13.831693 -90.108955 0.137535
vt 0.893475 0.989125
vt 0.856526 0.010040
vt 0.856506 0.989124
vt 0.497318 1.034627
vt 0.033577 1.034741
vt 0.497173 -0.034628
vt 0.856506 0.989124
vt 0.893494 0.010041
vt 0.893475 0.989125
vt 0.893494 0.010041
vt 0.033431 -0.034514
vt 0.958395 -0.034741
vt 0.958540 1.034514
vt 0.856526 0.010040
vn 0.3370 0.0283 0.9411
vn -0.0008 0.0002 1.0000
vn -0.3388 -0.0266 0.9405
vn 0.3381 0.0284 0.9407
vn -0.0009 0.0002 1.0000
vn -0.0008 0.0003 1.0000
vn -0.3397 -0.0267 0.9401
usemtl Road
s off
f 5/1/1 1/2/1 4/3/1
f 6/4/2 4/5/2 3/6/2
f 7/7/3 10/8/3 8/9/3
f 5/1/4 2/10/4 1/2/4
f 4/5/5 1/11/5 3/6/5
f 3/6/5 9/12/5 6/4/5
f 9/12/6 7/13/6 6/4/6
f 7/7/7 9/14/7 10/8/7
