# Blender v2.90.1 OBJ File: 'track1.blend'
# www.blender.org
mtllib RoadBlock.000.mtl
o RoadBlock.000_RoadBlock
v 2.022628 -1.094314 0.006770
v 2.021933 -1.173016 0.034937
v 0.045866 -1.180212 0.035612
v 0.044941 -1.101514 0.007443
v 2.041591 1.028878 0.007126
v 2.042302 1.107570 0.035320
v 0.019374 1.100311 0.035932
v 0.020278 1.021620 0.007741
v 2.032109 -0.032718 0.006948
v 0.032610 -0.039947 0.007592
vt 0.856506 0.989124
vt 0.893494 0.010041
vt 0.856526 0.010040
vt 0.497173 -0.034628
vt 0.958540 1.034514
vt 0.497318 1.034627
vt 0.856526 0.010040
vt 0.893475 0.989125
vt 0.856506 0.989124
vt 0.893475 0.989125
vt 0.033577 1.034741
vt 0.033431 -0.034514
vt 0.958395 -0.034741
vt 0.893494 0.010041
vn -0.0009 0.3370 0.9415
vn 0.0003 -0.0001 1.0000
vn 0.0015 -0.3372 0.9414
vn 0.0003 -0.0002 1.0000
vn 0.0015 -0.3373 0.9414
usemtl Road
s off
f 4/1/1 2/2/1 1/3/1
f 9/4/2 8/5/2 10/6/2
f 5/7/3 7/8/3 8/9/3
f 4/1/1 3/10/1 2/2/1
f 4/11/2 1/12/2 10/6/2
f 1/12/4 9/4/4 10/6/4
f 9/4/4 5/13/4 8/5/4
f 5/7/5 6/14/5 7/8/5
