# Blender v2.90.1 OBJ File: 'track1.blend'
# www.blender.org
mtllib RoadBlock.145.mtl
o RoadBlock.145
v -7.815491 -1.499172 0.011765
v -7.805091 -1.577183 0.039941
v -7.955459 -0.446801 0.011813
v -9.635284 -1.836431 0.013667
v -9.614697 -1.912394 0.041838
v -9.912558 -0.811640 0.013798
v -10.189831 0.213151 0.013928
v -10.210352 0.289124 0.042118
v -8.095428 0.605570 0.011861
v -8.105781 0.683585 0.040044
vt 0.856506 0.989124
vt 0.893494 0.010041
vt 0.856526 0.010040
vt 0.958540 1.034514
vt 0.497318 1.034627
vt 0.497173 -0.034628
vt 0.856526 0.010040
vt 0.893475 0.989125
vt 0.856506 0.989124
vt 0.893475 0.989125
vt 0.033577 1.034741
vt 0.033431 -0.034514
vt 0.958395 -0.034741
vt 0.893494 0.010041
vn -0.0605 0.3319 0.9414
vn 0.0010 0.0001 1.0000
vn 0.0632 -0.3321 0.9411
vn -0.0606 0.3326 0.9411
vn 0.0631 -0.3317 0.9413
usemtl Road
s off
f 4/1/1 2/2/1 1/3/1
f 7/4/2 6/5/2 3/6/2
f 9/7/3 8/8/3 7/9/3
f 4/1/4 5/10/4 2/2/4
f 4/11/2 1/12/2 6/5/2
f 1/12/2 3/6/2 6/5/2
f 3/6/2 9/13/2 7/4/2
f 9/7/5 10/14/5 8/8/5
