# Blender v2.90.1 OBJ File: 'track1.blend'
# www.blender.org
mtllib RoadBlock.029.mtl
o RoadBlock.029
v 1.514952 -35.143154 0.021974
v 1.450463 -35.188183 0.050280
v 2.384618 -34.534260 0.020268
v 1.065825 -32.590797 0.013756
v 0.987512 -32.582844 0.041892
v 2.122128 -32.697102 0.014356
v 3.178430 -32.803402 0.014955
v 3.256727 -32.811207 0.043179
v 3.254284 -33.925362 0.018561
v 3.318732 -33.880116 0.046615
vt 0.893475 0.989125
vt 0.856526 0.010040
vt 0.856506 0.989124
vt 0.497318 1.034627
vt 0.033577 1.034741
vt 0.497173 -0.034628
vt 0.856506 0.989124
vt 0.893494 0.010041
vt 0.893475 0.989125
vt 0.893494 0.010041
vt 0.033431 -0.034514
vt 0.958395 -0.034741
vt 0.958540 1.034514
vt 0.856526 0.010040
vn 0.3431 0.0634 0.9371
vn -0.0002 0.0032 1.0000
vn -0.3405 -0.0167 0.9401
vn 0.3613 0.0672 0.9300
vn -0.0003 0.0032 1.0000
vn -0.3853 -0.0231 0.9225
usemtl Road
s off
f 5/1/1 1/2/1 4/3/1
f 6/4/2 4/5/2 3/6/2
f 7/7/3 10/8/3 8/9/3
f 5/1/4 2/10/4 1/2/4
f 4/5/5 1/11/5 3/6/5
f 3/6/5 9/12/5 6/4/5
f 9/12/2 7/13/2 6/4/2
f 7/7/6 9/14/6 10/8/6
