# Blender v2.90.1 OBJ File: 'track1.blend'
# www.blender.org
mtllib RoadBlock.019.mtl
o RoadBlock.019
v 13.937137 -19.706085 0.005628
v 13.882687 -19.649218 0.033717
v 14.671378 -20.472874 0.006857
v 15.344177 -18.352327 0.005519
v 15.287362 -18.297823 0.033611
v 16.110321 -19.087242 0.006715
v 16.876465 -19.822157 0.007910
v 16.933237 -19.876614 0.036178
v 15.405620 -21.239662 0.008087
v 15.460028 -21.296480 0.036358
vt 0.856506 0.989124
vt 0.893494 0.010041
vt 0.856526 0.010040
vt 0.497173 -0.034628
vt 0.958540 1.034514
vt 0.497318 1.034627
vt 0.856526 0.010040
vt 0.893475 0.989125
vt 0.856506 0.989124
vt 0.893475 0.989125
vt 0.033577 1.034741
vt 0.033431 -0.034514
vt 0.958395 -0.034741
vt 0.893494 0.010041
vn 0.2330 -0.2421 0.9419
vn -0.0007 0.0009 1.0000
vn -0.2348 0.2437 0.9410
vn 0.2332 -0.2423 0.9418
vn -0.0008 0.0009 1.0000
vn -0.2346 0.2436 0.9411
usemtl Road
s off
f 4/1/1 2/2/1 1/3/1
f 3/4/2 7/5/2 6/6/2
f 9/7/3 8/8/3 7/9/3
f 4/1/4 5/10/4 2/2/4
f 4/11/2 1/12/2 6/6/2
f 1/12/5 3/4/5 6/6/5
f 3/4/2 9/13/2 7/5/2
f 9/7/6 10/14/6 8/8/6
