# Blender v2.90.1 OBJ File: 'track1.blend'
# www.blender.org
mtllib RoadBlock.020.mtl
o RoadBlock.020
v 12.482458 -21.022373 0.005715
v 12.430058 -20.963610 0.033802
v 13.189036 -21.814728 0.006976
v 13.937137 -19.706085 0.005628
v 13.882687 -19.649218 0.033717
v 14.671378 -20.472874 0.006857
v 15.405620 -21.239662 0.008087
v 15.460028 -21.296480 0.036358
v 13.895615 -22.607080 0.008237
v 13.947972 -22.665791 0.036510
vt 0.856506 0.989124
vt 0.893494 0.010041
vt 0.856526 0.010040
vt 0.958540 1.034514
vt 0.497318 1.034627
vt 0.497173 -0.034628
vt 0.856526 0.010040
vt 0.893475 0.989125
vt 0.856506 0.989124
vt 0.893475 0.989125
vt 0.033577 1.034741
vt 0.033431 -0.034514
vt 0.958395 -0.034741
vt 0.893494 0.010041
vn 0.2255 -0.2491 0.9419
vn -0.0007 0.0009 1.0000
vn -0.2270 0.2508 0.9410
vn 0.2256 -0.2492 0.9418
vn -0.0008 0.0009 1.0000
vn -0.2270 0.2508 0.9411
usemtl Road
s off
f 4/1/1 2/2/1 1/3/1
f 7/4/2 6/5/2 3/6/2
f 9/7/3 8/8/3 7/9/3
f 4/1/4 5/10/4 2/2/4
f 4/11/2 1/12/2 6/5/2
f 1/12/5 3/6/5 6/5/5
f 3/6/2 9/13/2 7/4/2
f 9/7/6 10/14/6 8/8/6
