# Blender v2.90.1 OBJ File: 'track1.blend'
# www.blender.org
mtllib RoadBlock.012.mtl
o RoadBlock.012
v 20.829721 -8.890901 0.004181
v 20.751003 -8.890282 0.032303
v 21.891327 -8.899176 0.004975
v 20.408857 -7.320560 0.003957
v 20.333843 -7.344417 0.032088
v 21.420544 -6.998736 0.004622
v 22.432226 -6.676913 0.005287
v 22.507206 -6.653057 0.033517
v 22.952934 -8.907452 0.005769
v 23.031610 -8.908059 0.034008
vt 0.856506 0.989124
vt 0.893494 0.010041
vt 0.856526 0.010040
vt 0.497173 -0.034628
vt 0.958540 1.034514
vt 0.497318 1.034627
vt 0.856526 0.010040
vt 0.893475 0.989125
vt 0.856506 0.989124
vt 0.893475 0.989125
vt 0.033577 1.034741
vt 0.033431 -0.034514
vt 0.958395 -0.034741
vt 0.893494 0.010041
vn 0.3357 0.0901 0.9377
vn -0.0007 0.0000 1.0000
vn -0.3298 -0.0768 0.9409
vn 0.3251 0.0879 0.9416
vn -0.0006 -0.0000 1.0000
vn -0.3373 -0.0782 0.9381
usemtl Road
s off
f 4/1/1 2/2/1 1/3/1
f 3/4/2 7/5/2 6/6/2
f 9/7/3 8/8/3 7/9/3
f 4/1/4 5/10/4 2/2/4
f 4/11/5 1/12/5 6/6/5
f 1/12/2 3/4/2 6/6/2
f 3/4/2 9/13/2 7/5/2
f 9/7/6 10/14/6 8/8/6
