# Blender v2.90.1 OBJ File: 'track1.blend'
# www.blender.org
mtllib RoadBlock.096.mtl
o RoadBlock.096
v -11.257743 -73.429024 0.100343
v -11.214931 -73.362907 0.128344
v -11.834956 -74.320030 0.102756
v -9.633649 -75.130692 0.101481
v -9.566648 -75.089302 0.129503
v -10.536907 -75.688545 0.103608
v -11.440165 -76.246391 0.105736
v -11.507082 -76.287704 0.134073
v -12.412169 -75.211037 0.105169
v -12.454937 -75.277023 0.133528
vt 0.893475 0.989125
vt 0.856526 0.010040
vt 0.856506 0.989124
vt 0.497318 1.034627
vt 0.033577 1.034741
vt 0.497173 -0.034628
vt 0.856506 0.989124
vt 0.893494 0.010041
vt 0.893475 0.989125
vt 0.893494 0.010041
vt 0.033431 -0.034514
vt 0.958395 -0.034741
vt 0.958540 1.034514
vt 0.856526 0.010040
vn -0.2475 -0.2356 0.9398
vn 0.0012 0.0018 1.0000
vn 0.2515 0.2364 0.9385
vn -0.2486 -0.2368 0.9392
vn 0.0013 0.0019 1.0000
vn 0.0013 0.0017 1.0000
vn 0.2536 0.2386 0.9374
usemtl Road
s off
f 5/1/1 1/2/1 4/3/1
f 6/4/2 4/5/2 3/6/2
f 7/7/3 10/8/3 8/9/3
f 5/1/4 2/10/4 1/2/4
f 4/5/5 1/11/5 3/6/5
f 3/6/5 9/12/5 6/4/5
f 9/12/6 7/13/6 6/4/6
f 7/7/7 9/14/7 10/8/7
