# Blender v2.90.1 OBJ File: 'track1.blend'
# www.blender.org
mtllib RoadBlock.076.mtl
o RoadBlock.076
v 2.464625 -101.070221 0.108417
v 2.424441 -101.002510 0.136495
v 3.006448 -101.983185 0.109784
v 4.029329 -99.992477 0.108428
v 3.983387 -99.928535 0.136509
v 4.648791 -100.854652 0.109766
v 5.268254 -101.716827 0.111104
v 5.314154 -101.780708 0.139383
v 3.548270 -102.896149 0.111152
v 3.588417 -102.963799 0.139433
vt 0.856506 0.989124
vt 0.893494 0.010041
vt 0.856526 0.010040
vt 0.497173 -0.034628
vt 0.958540 1.034514
vt 0.497318 1.034627
vt 0.856526 0.010040
vt 0.893475 0.989125
vt 0.856506 0.989124
vt 0.893475 0.989125
vt 0.033577 1.034741
vt 0.033431 -0.034514
vt 0.958395 -0.034741
vt 0.893494 0.010041
vn 0.1909 -0.2772 0.9416
vn -0.0007 0.0010 1.0000
vn -0.1913 0.2791 0.9410
vn 0.1905 -0.2766 0.9419
vn -0.0007 0.0011 1.0000
vn -0.1916 0.2796 0.9408
usemtl Road
s off
f 4/1/1 2/2/1 1/3/1
f 3/4/2 7/5/2 6/6/2
f 9/7/3 8/8/3 7/9/3
f 4/1/4 5/10/4 2/2/4
f 4/11/2 1/12/2 6/6/2
f 1/12/5 3/4/5 6/6/5
f 3/4/5 9/13/5 7/5/5
f 9/7/6 10/14/6 8/8/6
