# Blender v2.90.1 OBJ File: 'track1.blend'
# www.blender.org
mtllib RoadBlock.120.mtl
o RoadBlock.120
v -11.192309 -43.754009 0.053583
v -11.145160 -43.817051 0.081704
v -11.827883 -42.903645 0.054383
v -12.910607 -44.898186 0.055611
v -12.867560 -44.964092 0.083740
v -13.490859 -44.009151 0.056289
v -14.071111 -43.120117 0.056967
v -14.114094 -43.054211 0.085198
v -12.463456 -42.053280 0.055182
v -12.510536 -41.990242 0.083421
vt 0.856506 0.989124
vt 0.893494 0.010041
vt 0.856526 0.010040
vt 0.497173 -0.034628
vt 0.958540 1.034514
vt 0.497318 1.034627
vt 0.856526 0.010040
vt 0.893475 0.989125
vt 0.856506 0.989124
vt 0.893475 0.989125
vt 0.033577 1.034741
vt 0.033431 -0.034514
vt 0.958395 -0.034741
vt 0.893494 0.010041
vn -0.1859 0.2809 0.9416
vn 0.0012 -0.0000 1.0000
vn 0.1874 -0.2809 0.9413
vn -0.1858 0.2806 0.9417
vn 0.0012 -0.0001 1.0000
vn 0.1877 -0.2814 0.9411
usemtl Road
s off
f 4/1/1 2/2/1 1/3/1
f 3/4/2 7/5/2 6/6/2
f 9/7/3 8/8/3 7/9/3
f 4/1/4 5/10/4 2/2/4
f 4/11/2 1/12/2 6/6/2
f 1/12/5 3/4/5 6/6/5
f 3/4/5 9/13/5 7/5/5
f 9/7/6 10/14/6 8/8/6
