# Blender v2.90.1 OBJ File: 'track1.blend'
# www.blender.org
mtllib RoadBlock.112.mtl
o RoadBlock.112
v -23.315636 -52.349709 0.069430
v -23.237988 -52.362720 0.097523
v -24.362610 -52.173862 0.070599
v -23.187447 -54.204182 0.071166
v -23.108780 -54.207417 0.099253
v -24.248169 -54.160172 0.072419
v -25.308895 -54.116165 0.073673
v -25.387495 -54.112877 0.101946
v -25.409582 -51.998020 0.071768
v -25.487162 -51.984962 0.100034
vt 0.856506 0.989124
vt 0.893494 0.010041
vt 0.856526 0.010040
vt 0.497173 -0.034628
vt 0.958540 1.034514
vt 0.497318 1.034627
vt 0.856526 0.010040
vt 0.893475 0.989125
vt 0.856506 0.989124
vt 0.893475 0.989125
vt 0.033577 1.034741
vt 0.033431 -0.034514
vt 0.958395 -0.034741
vt 0.893494 0.010041
vn -0.3435 -0.0229 0.9389
vn 0.0012 0.0010 1.0000
vn 0.3391 0.0170 0.9406
vn -0.3370 -0.0227 0.9412
vn 0.0013 0.0010 1.0000
vn 0.3448 0.0170 0.9385
usemtl Road
s off
f 4/1/1 2/2/1 1/3/1
f 3/4/2 7/5/2 6/6/2
f 9/7/3 8/8/3 7/9/3
f 4/1/4 5/10/4 2/2/4
f 4/11/2 1/12/2 6/6/2
f 1/12/5 3/4/5 6/6/5
f 3/4/5 9/13/5 7/5/5
f 9/7/6 10/14/6 8/8/6
