# Blender v2.90.1 OBJ File: 'track1.blend'
# www.blender.org
mtllib RoadBlock.008.mtl
o RoadBlock.008
v 17.061781 -3.711540 0.003770
v 17.022333 -3.779652 0.031920
v 17.593847 -2.792856 0.004180
v 15.411448 -2.925359 0.003899
v 15.382072 -2.998382 0.032052
v 15.807675 -1.940433 0.004265
v 16.203903 -0.955507 0.004630
v 16.233274 -0.882503 0.032838
v 18.125916 -1.874172 0.004590
v 18.165352 -1.806079 0.032801
vt 0.893475 0.989125
vt 0.856526 0.010040
vt 0.856506 0.989124
vt 0.497318 1.034627
vt 0.033577 1.034741
vt 0.497173 -0.034628
vt 0.856506 0.989124
vt 0.893494 0.010041
vt 0.893475 0.989125
vt 0.893494 0.010041
vt 0.033431 -0.034514
vt 0.958395 -0.034741
vt 0.958540 1.034514
vt 0.856526 0.010040
vn 0.1452 0.3045 0.9414
vn -0.0001 -0.0003 1.0000
vn -0.1458 -0.3050 0.9411
vn 0.1453 0.3049 0.9413
vn -0.0001 -0.0004 1.0000
vn -0.1459 -0.3053 0.9410
usemtl Road
s off
f 5/1/1 1/2/1 4/3/1
f 6/4/2 4/5/2 3/6/2
f 7/7/3 10/8/3 8/9/3
f 5/1/4 2/10/4 1/2/4
f 4/5/5 1/11/5 3/6/5
f 3/6/5 9/12/5 6/4/5
f 9/12/2 7/13/2 6/4/2
f 7/7/6 9/14/6 10/8/6
