# Blender v2.90.1 OBJ File: 'track1.blend'
# www.blender.org
mtllib RoadBlock.031.mtl
o RoadBlock.031
v 5.403420 -37.370941 0.036442
v 5.383377 -37.446938 0.064916
v 5.673148 -36.344147 0.032477
v 3.317191 -36.506371 0.029627
v 3.276733 -36.573776 0.058040
v 3.862473 -35.595474 0.026479
v 4.407754 -34.684578 0.023330
v 4.448139 -34.616932 0.051276
v 5.942877 -35.317352 0.028511
v 5.962822 -35.241112 0.056397
vt 0.893475 0.989125
vt 0.856526 0.010040
vt 0.856506 0.989124
vt 0.497318 1.034627
vt 0.033577 1.034741
vt 0.497173 -0.034628
vt 0.856506 0.989124
vt 0.893494 0.010041
vt 0.893475 0.989125
vt 0.893494 0.010041
vt 0.033431 -0.034514
vt 0.958395 -0.034741
vt 0.958540 1.034514
vt 0.856526 0.010040
vn 0.1289 0.3185 0.9391
vn -0.0015 0.0044 1.0000
vn -0.1312 -0.3106 0.9414
vn 0.1287 0.3180 0.9393
vn -0.0015 0.0043 1.0000
vn -0.0016 0.0044 1.0000
vn -0.1310 -0.3101 0.9416
usemtl Road
s off
f 5/1/1 1/2/1 4/3/1
f 6/4/2 4/5/2 3/6/2
f 7/7/3 10/8/3 8/9/3
f 5/1/4 2/10/4 1/2/4
f 4/5/5 1/11/5 3/6/5
f 3/6/5 9/12/5 6/4/5
f 9/12/6 7/13/6 6/4/6
f 7/7/7 9/14/7 10/8/7
