# Blender v2.90.1 OBJ File: 'track1.blend'
# www.blender.org
mtllib RoadBlock.126.mtl
o RoadBlock.126
v -5.229840 -32.878666 0.042349
v -5.151220 -32.874092 0.070381
v -6.289699 -32.940083 0.044352
v -5.369542 -35.069199 0.043826
v -5.291508 -35.079773 0.071871
v -6.421528 -34.926373 0.045645
v -7.473513 -34.783546 0.047464
v -7.551448 -34.772945 0.075779
v -7.349557 -33.001499 0.046354
v -7.428073 -33.006031 0.074683
vt 0.893475 0.989125
vt 0.856526 0.010040
vt 0.856506 0.989124
vt 0.497318 1.034627
vt 0.033577 1.034741
vt 0.497173 -0.034628
vt 0.856506 0.989124
vt 0.893494 0.010041
vt 0.893475 0.989125
vt 0.893494 0.010041
vt 0.033431 -0.034514
vt 0.958395 -0.034741
vt 0.958540 1.034514
vt 0.856526 0.010040
vn -0.3355 0.0220 0.9418
vn 0.0018 0.0005 1.0000
vn 0.3386 -0.0231 0.9406
vn -0.3369 0.0221 0.9413
vn 0.0019 0.0006 1.0000
vn 0.0019 0.0005 1.0000
vn 0.3405 -0.0231 0.9400
usemtl Road
s off
f 5/1/1 1/2/1 4/3/1
f 6/4/2 4/5/2 3/6/2
f 7/7/3 10/8/3 8/9/3
f 5/1/4 2/10/4 1/2/4
f 4/5/5 1/11/5 3/6/5
f 3/6/6 9/12/6 6/4/6
f 9/12/2 7/13/2 6/4/2
f 7/7/7 9/14/7 10/8/7
