# Blender v2.90.1 OBJ File: 'track1.blend'
# www.blender.org
mtllib RoadBlock.095.mtl
o RoadBlock.095
v -9.633649 -75.130692 0.101481
v -9.566648 -75.089302 0.129503
v -10.536907 -75.688545 0.103608
v -8.881004 -77.166420 0.102277
v -8.806403 -77.141190 0.130310
v -9.886725 -77.506416 0.104259
v -10.892447 -77.846413 0.106242
v -10.966954 -77.871590 0.134569
v -11.440165 -76.246391 0.105736
v -11.507082 -76.287704 0.134073
vt 0.893475 0.989125
vt 0.856526 0.010040
vt 0.856506 0.989124
vt 0.497318 1.034627
vt 0.033577 1.034741
vt 0.497173 -0.034628
vt 0.856506 0.989124
vt 0.893494 0.010041
vt 0.893475 0.989125
vt 0.893494 0.010041
vt 0.033431 -0.034514
vt 0.958395 -0.034741
vt 0.958540 1.034514
vt 0.856526 0.010040
vn -0.3148 -0.1160 0.9421
vn 0.0017 0.0009 1.0000
vn 0.3207 0.1096 0.9408
vn -0.3201 -0.1182 0.9400
vn 0.0017 0.0010 1.0000
vn 0.3278 0.1125 0.9380
usemtl Road
s off
f 5/1/1 1/2/1 4/3/1
f 6/4/2 4/5/2 3/6/2
f 7/7/3 10/8/3 8/9/3
f 5/1/4 2/10/4 1/2/4
f 4/5/5 1/11/5 3/6/5
f 3/6/5 9/12/5 6/4/5
f 9/12/2 7/13/2 6/4/2
f 7/7/6 9/14/6 10/8/6
