# Blender v2.90.1 OBJ File: 'track1.blend'
# www.blender.org
mtllib RoadBlock.037.mtl
o RoadBlock.037
v 16.368633 -40.536476 0.065439
v 16.319691 -40.598019 0.093807
v 17.028637 -39.704929 0.062896
v 14.783689 -39.694313 0.060789
v 14.746184 -39.763409 0.089198
v 15.289274 -38.760799 0.057709
v 15.794861 -37.827282 0.054629
v 15.832314 -37.757973 0.082580
v 17.688641 -38.873386 0.060353
v 17.737551 -38.811646 0.088344
vt 0.893475 0.989125
vt 0.856526 0.010040
vt 0.856506 0.989124
vt 0.497318 1.034627
vt 0.033577 1.034741
vt 0.497173 -0.034628
vt 0.856506 0.989124
vt 0.893494 0.010041
vt 0.893475 0.989125
vt 0.893494 0.010041
vt 0.033431 -0.034514
vt 0.958395 -0.034741
vt 0.958540 1.034514
vt 0.856526 0.010040
vn 0.1573 0.3013 0.9405
vn -0.0009 0.0038 1.0000
vn -0.1640 -0.2914 0.9424
vn 0.1595 0.3058 0.9386
vn -0.1659 -0.2952 0.9409
usemtl Road
s off
f 5/1/1 1/2/1 4/3/1
f 6/4/2 4/5/2 3/6/2
f 7/7/3 10/8/3 8/9/3
f 5/1/4 2/10/4 1/2/4
f 4/5/2 1/11/2 3/6/2
f 3/6/2 9/12/2 6/4/2
f 9/12/2 7/13/2 6/4/2
f 7/7/5 9/14/5 10/8/5
