# Blender v2.90.1 OBJ File: 'track1.blend'
# www.blender.org
mtllib RoadBlock.064.mtl
o RoadBlock.064
v 8.858219 -83.674721 0.104865
v 8.797412 -83.724701 0.133011
v 9.678266 -83.000481 0.105328
v 7.553558 -82.254555 0.104031
v 7.495965 -82.308205 0.132183
v 8.330239 -81.530785 0.104417
v 9.106918 -80.807014 0.104802
v 9.164477 -80.753357 0.133011
v 10.498314 -82.326241 0.105792
v 10.559086 -82.276260 0.134006
vt 0.893475 0.989125
vt 0.856526 0.010040
vt 0.856506 0.989124
vt 0.497318 1.034627
vt 0.033577 1.034741
vt 0.497173 -0.034628
vt 0.856506 0.989124
vt 0.893494 0.010041
vt 0.893475 0.989125
vt 0.893494 0.010041
vt 0.033431 -0.034514
vt 0.958395 -0.034741
vt 0.958540 1.034514
vt 0.856526 0.010040
vn 0.2477 0.2281 0.9416
vn -0.0006 0.0001 1.0000
vn -0.2492 -0.2276 0.9414
vn 0.2481 0.2285 0.9414
vn -0.0006 0.0000 1.0000
vn -0.2495 -0.2279 0.9412
usemtl Road
s off
f 5/1/1 1/2/1 4/3/1
f 6/4/2 4/5/2 3/6/2
f 7/7/3 10/8/3 8/9/3
f 5/1/4 2/10/4 1/2/4
f 4/5/5 1/11/5 3/6/5
f 3/6/2 9/12/2 6/4/2
f 9/12/2 7/13/2 6/4/2
f 7/7/6 9/14/6 10/8/6
