# Blender v2.90.1 OBJ File: 'track1.blend'
# www.blender.org
mtllib RoadBlock.104.mtl
o RoadBlock.104
v -22.905102 -68.086235 0.085990
v -22.826456 -68.082703 0.114097
v -23.965694 -68.133369 0.086975
v -22.755102 -69.833885 0.088734
v -22.679115 -69.813278 0.116821
v -23.779875 -70.111221 0.089988
v -24.804649 -70.388557 0.091241
v -24.880594 -70.409065 0.119514
v -25.026285 -68.180496 0.087961
v -25.104881 -68.183952 0.116214
vt 0.893475 0.989125
vt 0.856526 0.010040
vt 0.856506 0.989124
vt 0.497318 1.034627
vt 0.033577 1.034741
vt 0.497173 -0.034628
vt 0.856506 0.989124
vt 0.893494 0.010041
vt 0.893475 0.989125
vt 0.893494 0.010041
vt 0.033431 -0.034514
vt 0.958395 -0.034741
vt 0.958540 1.034514
vt 0.856526 0.010040
vn -0.3399 -0.0277 0.9400
vn 0.0008 0.0016 1.0000
vn 0.3402 0.0357 0.9397
vn -0.3353 -0.0271 0.9417
vn 0.0009 0.0016 1.0000
vn 0.3367 0.0352 0.9410
usemtl Road
s off
f 5/1/1 1/2/1 4/3/1
f 6/4/2 4/5/2 3/6/2
f 7/7/3 10/8/3 8/9/3
f 5/1/4 2/10/4 1/2/4
f 4/5/5 1/11/5 3/6/5
f 3/6/5 9/12/5 6/4/5
f 9/12/2 7/13/2 6/4/2
f 7/7/6 9/14/6 10/8/6
