# Blender v2.90.1 OBJ File: 'track1.blend'
# www.blender.org
mtllib RoadBlock.023.mtl
o RoadBlock.023
v 7.864673 -24.742880 0.005825
v 7.815971 -24.681013 0.033906
v 8.521355 -25.577051 0.007169
v 9.441862 -23.536381 0.005810
v 9.392334 -23.475174 0.033893
v 10.109690 -24.361656 0.007127
v 10.777518 -25.186932 0.008444
v 10.827003 -25.248083 0.036722
v 9.178037 -26.411224 0.008513
v 9.226697 -26.473032 0.036793
vt 0.856506 0.989124
vt 0.893494 0.010041
vt 0.856526 0.010040
vt 0.497173 -0.034628
vt 0.958540 1.034514
vt 0.497318 1.034627
vt 0.856526 0.010040
vt 0.893475 0.989125
vt 0.856506 0.989124
vt 0.893475 0.989125
vt 0.033577 1.034741
vt 0.033431 -0.034514
vt 0.958395 -0.034741
vt 0.893494 0.010041
vn 0.2041 -0.2668 0.9419
vn -0.0007 0.0010 1.0000
vn -0.2057 0.2687 0.9410
vn 0.2042 -0.2669 0.9418
vn -0.0008 0.0010 1.0000
vn -0.2056 0.2687 0.9410
usemtl Road
s off
f 4/1/1 2/2/1 1/3/1
f 3/4/2 7/5/2 6/6/2
f 9/7/3 8/8/3 7/9/3
f 4/1/4 5/10/4 2/2/4
f 4/11/2 1/12/2 6/6/2
f 1/12/5 3/4/5 6/6/5
f 3/4/2 9/13/2 7/5/2
f 9/7/6 10/14/6 8/8/6
