# Blender v2.90.1 OBJ File: 'track1.blend'
# www.blender.org
mtllib RoadBlock.042.mtl
o RoadBlock.042
v 18.318724 -48.348297 0.081471
v 18.243143 -48.326336 0.109630
v 19.338291 -48.644196 0.081755
v 18.645729 -46.585121 0.079344
v 18.567501 -46.576508 0.107523
v 19.701044 -46.700809 0.079350
v 20.756361 -46.816502 0.079356
v 20.834597 -46.825039 0.107537
v 20.357862 -48.940094 0.082039
v 20.433445 -48.961998 0.110241
vt 0.856506 0.989124
vt 0.893494 0.010041
vt 0.856526 0.010040
vt 0.497173 -0.034628
vt 0.958540 1.034514
vt 0.497318 1.034627
vt 0.856526 0.010040
vt 0.893475 0.989125
vt 0.856506 0.989124
vt 0.893475 0.989125
vt 0.033577 1.034741
vt 0.033431 -0.034514
vt 0.958395 -0.034741
vt 0.893494 0.010041
vn 0.3330 -0.0606 0.9410
vn 0.0001 0.0012 1.0000
vn -0.3321 0.0635 0.9411
vn 0.3324 -0.0605 0.9412
vn -0.3326 0.0636 0.9409
usemtl Road
s off
f 4/1/1 2/2/1 1/3/1
f 3/4/2 7/5/2 6/6/2
f 9/7/3 8/8/3 7/9/3
f 4/1/4 5/10/4 2/2/4
f 4/11/2 1/12/2 6/6/2
f 1/12/2 3/4/2 6/6/2
f 3/4/2 9/13/2 7/5/2
f 9/7/5 10/14/5 8/8/5
