# Blender v2.90.1 OBJ File: 'track1.blend'
# www.blender.org
mtllib RoadBlock.016.mtl
o RoadBlock.016
v 17.834196 -15.416846 0.005179
v 17.770691 -15.370312 0.033277
v 18.690561 -16.044312 0.006287
v 18.959265 -13.886988 0.004977
v 18.891979 -13.846115 0.033079
v 19.866646 -14.438110 0.006032
v 20.774027 -14.989233 0.007087
v 20.841269 -15.030069 0.035346
v 19.546926 -16.671778 0.007394
v 19.610386 -16.718271 0.035656
vt 0.856506 0.989124
vt 0.893494 0.010041
vt 0.856526 0.010040
vt 0.958540 1.034514
vt 0.497318 1.034627
vt 0.497173 -0.034628
vt 0.856526 0.010040
vt 0.893475 0.989125
vt 0.856506 0.989124
vt 0.893475 0.989125
vt 0.033577 1.034741
vt 0.033431 -0.034514
vt 0.958395 -0.034741
vt 0.893494 0.010041
vn 0.2708 -0.1991 0.9418
vn -0.0007 0.0007 1.0000
vn -0.2739 0.1999 0.9407
vn 0.2718 -0.1998 0.9414
vn -0.0008 0.0007 1.0000
vn -0.2731 0.1993 0.9411
usemtl Road
s off
f 4/1/1 2/2/1 1/3/1
f 7/4/2 6/5/2 3/6/2
f 9/7/3 8/8/3 7/9/3
f 4/1/4 5/10/4 2/2/4
f 4/11/2 1/12/2 6/5/2
f 1/12/5 3/6/5 6/5/5
f 3/6/5 9/13/5 7/4/5
f 9/7/6 10/14/6 8/8/6
