# Blender v2.90.1 OBJ File: 'track1.blend'
# www.blender.org
mtllib RoadBlock.111.mtl
o RoadBlock.111
v -23.187447 -54.204182 0.071166
v -23.108780 -54.207417 0.099253
v -24.248169 -54.160172 0.072419
v -23.055758 -56.112118 0.072955
v -22.977070 -56.109318 0.101039
v -24.116737 -56.149490 0.074241
v -25.177713 -56.186863 0.075527
v -25.256334 -56.189606 0.103802
v -25.308895 -54.116165 0.073673
v -25.387495 -54.112877 0.101946
vt 0.856506 0.989124
vt 0.893494 0.010041
vt 0.856526 0.010040
vt 0.497173 -0.034628
vt 0.958540 1.034514
vt 0.497318 1.034627
vt 0.856526 0.010040
vt 0.893475 0.989125
vt 0.856506 0.989124
vt 0.893475 0.989125
vt 0.033577 1.034741
vt 0.033431 -0.034514
vt 0.958395 -0.034741
vt 0.893494 0.010041
vn -0.3370 -0.0224 0.9412
vn 0.0012 0.0010 1.0000
vn 0.3376 0.0222 0.9410
vn -0.3354 -0.0223 0.9418
vn 0.3392 0.0223 0.9404
usemtl Road
s off
f 4/1/1 2/2/1 1/3/1
f 3/4/2 7/5/2 6/6/2
f 9/7/3 8/8/3 7/9/3
f 4/1/4 5/10/4 2/2/4
f 4/11/2 1/12/2 6/6/2
f 1/12/2 3/4/2 6/6/2
f 3/4/2 9/13/2 7/5/2
f 9/7/5 10/14/5 8/8/5
