# Blender v2.90.1 OBJ File: 'track1.blend'
# www.blender.org
mtllib RoadBlock.107.mtl
o RoadBlock.107
v -22.801336 -62.139385 0.078872
v -22.722607 -62.139336 0.106970
v -23.862974 -62.139656 0.079985
v -22.833466 -64.160637 0.081072
v -22.754751 -64.162193 0.109175
v -23.894888 -64.139244 0.082105
v -24.956308 -64.117851 0.083139
v -25.034967 -64.116234 0.111395
v -24.924610 -62.139927 0.081097
v -25.003281 -62.139915 0.109359
vt 0.893475 0.989125
vt 0.856526 0.010040
vt 0.856506 0.989124
vt 0.497318 1.034627
vt 0.033577 1.034741
vt 0.497173 -0.034628
vt 0.856506 0.989124
vt 0.893494 0.010041
vt 0.893475 0.989125
vt 0.893494 0.010041
vt 0.033431 -0.034514
vt 0.958395 -0.034741
vt 0.958540 1.034514
vt 0.856526 0.010040
vn -0.3361 0.0064 0.9418
vn 0.0010 0.0010 1.0000
vn 0.3380 -0.0045 0.9411
vn 0.0010 0.0011 1.0000
vn 0.3381 -0.0044 0.9411
usemtl Road
s off
f 5/1/1 1/2/1 4/3/1
f 6/4/2 4/5/2 3/6/2
f 7/7/3 10/8/3 8/9/3
f 5/1/1 2/10/1 1/2/1
f 4/5/4 1/11/4 3/6/4
f 3/6/2 9/12/2 6/4/2
f 9/12/2 7/13/2 6/4/2
f 7/7/5 9/14/5 10/8/5
