# Blender v2.90.1 OBJ File: 'track1.blend'
# www.blender.org
mtllib RoadBlock.074.mtl
o RoadBlock.074
v 5.535507 -98.815125 0.108413
v 5.484833 -98.754868 0.136496
v 6.218801 -99.627640 0.109722
v 6.982078 -97.536003 0.108370
v 6.927597 -97.479164 0.136456
v 7.716711 -98.302414 0.109651
v 8.451343 -99.068832 0.110931
v 8.505779 -99.125618 0.139206
v 6.902097 -100.440155 0.111030
v 6.952728 -100.500359 0.139307
vt 0.856506 0.989124
vt 0.893494 0.010041
vt 0.856526 0.010040
vt 0.497173 -0.034628
vt 0.958540 1.034514
vt 0.497318 1.034627
vt 0.856526 0.010040
vt 0.893475 0.989125
vt 0.856506 0.989124
vt 0.893475 0.989125
vt 0.033577 1.034741
vt 0.033431 -0.034514
vt 0.958395 -0.034741
vt 0.893494 0.010041
vn 0.2226 -0.2517 0.9419
vn -0.0008 0.0009 1.0000
vn -0.2243 0.2535 0.9410
vn 0.2227 -0.2519 0.9418
vn -0.0008 0.0010 1.0000
vn -0.2242 0.2534 0.9410
usemtl Road
s off
f 4/1/1 2/2/1 1/3/1
f 3/4/2 7/5/2 6/6/2
f 9/7/3 8/8/3 7/9/3
f 4/1/4 5/10/4 2/2/4
f 4/11/2 1/12/2 6/6/2
f 1/12/2 3/4/2 6/6/2
f 3/4/5 9/13/5 7/5/5
f 9/7/6 10/14/6 8/8/6
