# Blender v2.90.1 OBJ File: 'track1.blend'
# www.blender.org
mtllib RoadBlock.052.mtl
o RoadBlock.052
v 6.556058 -63.458988 0.089841
v 6.503592 -63.400291 0.117941
v 7.263686 -64.250404 0.090921
v 8.092546 -62.179832 0.089123
v 8.040051 -62.121162 0.117226
v 8.800523 -62.970936 0.090160
v 9.508500 -63.762039 0.091196
v 9.560973 -63.820656 0.119453
v 7.971313 -65.041817 0.092000
v 8.023760 -65.100456 0.120261
vt 0.856506 0.989124
vt 0.893494 0.010041
vt 0.856526 0.010040
vt 0.497173 -0.034628
vt 0.958540 1.034514
vt 0.497318 1.034627
vt 0.856526 0.010040
vt 0.893475 0.989125
vt 0.856506 0.989124
vt 0.893475 0.989125
vt 0.033577 1.034741
vt 0.033431 -0.034514
vt 0.958395 -0.034741
vt 0.893494 0.010041
vn 0.2154 -0.2582 0.9418
vn -0.0003 0.0010 1.0000
vn -0.2161 0.2602 0.9411
vn 0.2155 -0.2583 0.9417
vn -0.0004 0.0010 1.0000
vn -0.0004 0.0011 1.0000
vn -0.2161 0.2602 0.9410
usemtl Road
s off
f 4/1/1 2/2/1 1/3/1
f 3/4/2 7/5/2 6/6/2
f 9/7/3 8/8/3 7/9/3
f 4/1/4 5/10/4 2/2/4
f 4/11/5 1/12/5 6/6/5
f 1/12/5 3/4/5 6/6/5
f 3/4/6 9/13/6 7/5/6
f 9/7/7 10/14/7 8/8/7
