# Blender v2.90.1 OBJ File: 'track1.blend'
# www.blender.org
mtllib RoadBlock.144.mtl
o RoadBlock.144
v -9.635284 -1.836431 0.013667
v -9.614697 -1.912394 0.041838
v -9.912558 -0.811640 0.013798
v -11.271267 -2.344241 0.015854
v -11.234648 -2.413915 0.044005
v -11.764660 -1.404220 0.016239
v -12.258054 -0.464199 0.016625
v -12.294586 -0.394504 0.044833
v -10.189831 0.213151 0.013928
v -10.210352 0.289124 0.042118
vt 0.856506 0.989124
vt 0.893494 0.010041
vt 0.856526 0.010040
vt 0.958540 1.034514
vt 0.497318 1.034627
vt 0.497173 -0.034628
vt 0.856526 0.010040
vt 0.893475 0.989125
vt 0.856506 0.989124
vt 0.893475 0.989125
vt 0.033577 1.034741
vt 0.033431 -0.034514
vt 0.958395 -0.034741
vt 0.893494 0.010041
vn -0.0988 0.3224 0.9414
vn 0.0012 0.0002 1.0000
vn 0.1074 -0.3241 0.9399
vn -0.1000 0.3271 0.9397
vn 0.0013 0.0003 1.0000
vn 0.0013 0.0002 1.0000
vn 0.1064 -0.3205 0.9413
usemtl Road
s off
f 4/1/1 2/2/1 1/3/1
f 7/4/2 6/5/2 3/6/2
f 9/7/3 8/8/3 7/9/3
f 4/1/4 5/10/4 2/2/4
f 4/11/5 1/12/5 6/5/5
f 1/12/6 3/6/6 6/5/6
f 3/6/2 9/13/2 7/4/2
f 9/7/7 10/14/7 8/8/7
