# Blender v2.90.1 OBJ File: 'track1.blend'
# www.blender.org
mtllib RoadBlock.134.mtl
o RoadBlock.134
v -10.023996 -17.348917 0.034609
v -9.949459 -17.323467 0.062612
v -11.028751 -17.691755 0.036994
v -9.369686 -19.237003 0.035720
v -9.295191 -19.211433 0.063726
v -10.373878 -19.581484 0.038077
v -11.378073 -19.925964 0.040434
v -11.452460 -19.951466 0.068788
v -12.033506 -18.034594 0.039378
v -12.107935 -18.059971 0.067735
vt 0.893475 0.989125
vt 0.856526 0.010040
vt 0.856506 0.989124
vt 0.497318 1.034627
vt 0.033577 1.034741
vt 0.497173 -0.034628
vt 0.856506 0.989124
vt 0.893494 0.010041
vt 0.893475 0.989125
vt 0.893494 0.010041
vt 0.033431 -0.034514
vt 0.958395 -0.034741
vt 0.958540 1.034514
vt 0.856526 0.010040
vn -0.3167 -0.1092 0.9422
vn 0.0019 0.0012 1.0000
vn 0.3203 0.1115 0.9407
vn 0.0019 0.0013 1.0000
vn 0.3204 0.1115 0.9407
usemtl Road
s off
f 5/1/1 1/2/1 4/3/1
f 6/4/2 4/5/2 3/6/2
f 7/7/3 10/8/3 8/9/3
f 5/1/1 2/10/1 1/2/1
f 4/5/4 1/11/4 3/6/4
f 3/6/2 9/12/2 6/4/2
f 9/12/2 7/13/2 6/4/2
f 7/7/5 9/14/5 10/8/5
