# Blender v2.90.1 OBJ File: 'track1.blend'
# www.blender.org
mtllib RoadBlock.003.mtl
o RoadBlock.003
v 7.916294 -1.337125 0.005206
v 7.908464 -1.415441 0.033367
v 8.021991 -0.280761 0.005454
v 5.961321 -1.205647 0.005693
v 5.956326 -1.284194 0.033856
v 6.028799 -0.146155 0.005916
v 6.096277 0.913337 0.006140
v 6.101285 0.991871 0.034337
v 8.127687 0.775603 0.005702
v 8.135529 0.853904 0.033900
vt 0.893475 0.989125
vt 0.856526 0.010040
vt 0.856506 0.989124
vt 0.497318 1.034627
vt 0.033577 1.034741
vt 0.497173 -0.034628
vt 0.856506 0.989124
vt 0.893494 0.010041
vt 0.893475 0.989125
vt 0.893494 0.010041
vt 0.033431 -0.034514
vt 0.958395 -0.034741
vt 0.958540 1.034514
vt 0.856526 0.010040
vn 0.0228 0.3361 0.9415
vn 0.0002 -0.0002 1.0000
vn -0.0226 -0.3365 0.9414
vn 0.0228 0.3363 0.9415
vn 0.0002 -0.0003 1.0000
vn -0.0226 -0.3367 0.9413
usemtl Road
s off
f 5/1/1 1/2/1 4/3/1
f 6/4/2 4/5/2 3/6/2
f 7/7/3 10/8/3 8/9/3
f 5/1/4 2/10/4 1/2/4
f 4/5/5 1/11/5 3/6/5
f 3/6/5 9/12/5 6/4/5
f 9/12/2 7/13/2 6/4/2
f 7/7/6 9/14/6 10/8/6
