# Blender v2.90.1 OBJ File: 'track1.blend'
# www.blender.org
mtllib RoadBlock.148.mtl
o RoadBlock.148
v -1.940298 -1.152548 0.008239
v -1.938111 -1.231220 0.036411
v -1.969639 -0.091315 0.008352
v -3.914302 -1.231966 0.009233
v -3.910323 -1.310567 0.037407
v -3.967777 -0.171675 0.009314
v -4.021251 0.888616 0.009395
v -4.025200 0.967214 0.037581
v -1.998979 0.969918 0.008465
v -2.001142 1.048585 0.036653
vt 0.856506 0.989124
vt 0.893494 0.010041
vt 0.856526 0.010040
vt 0.958540 1.034514
vt 0.497318 1.034627
vt 0.497173 -0.034628
vt 0.856526 0.010040
vt 0.893475 0.989125
vt 0.856506 0.989124
vt 0.893475 0.989125
vt 0.033577 1.034741
vt 0.033431 -0.034514
vt 0.958395 -0.034741
vt 0.893494 0.010041
vn -0.0131 0.3368 0.9415
vn 0.0005 -0.0001 1.0000
vn 0.0140 -0.3369 0.9414
vn 0.0140 -0.3370 0.9414
usemtl Road
s off
f 4/1/1 2/2/1 1/3/1
f 7/4/2 6/5/2 3/6/2
f 9/7/3 8/8/3 7/9/3
f 4/1/1 5/10/1 2/2/1
f 4/11/2 1/12/2 6/5/2
f 1/12/2 3/6/2 6/5/2
f 3/6/2 9/13/2 7/4/2
f 9/7/4 10/14/4 8/8/4
