# Blender v2.90.1 OBJ File: 'track1.blend'
# www.blender.org
mtllib RoadBlock.039.mtl
o RoadBlock.039
v 18.298233 -43.227688 0.073494
v 18.224943 -43.256283 0.101751
v 19.286957 -42.841030 0.072449
v 17.473017 -41.815380 0.069656
v 17.409868 -41.862270 0.097967
v 18.324795 -41.181705 0.067883
v 19.176579 -40.548035 0.066109
v 19.239716 -40.500977 0.094158
v 20.275679 -42.454376 0.071404
v 20.348976 -42.425644 0.099506
vt 0.893475 0.989125
vt 0.856526 0.010040
vt 0.856506 0.989124
vt 0.497318 1.034627
vt 0.033577 1.034741
vt 0.497173 -0.034628
vt 0.856506 0.989124
vt 0.893494 0.010041
vt 0.893475 0.989125
vt 0.893494 0.010041
vt 0.033431 -0.034514
vt 0.958395 -0.034741
vt 0.958540 1.034514
vt 0.856526 0.010040
vn 0.2927 0.1736 0.9403
vn 0.0000 0.0028 1.0000
vn -0.2938 -0.1667 0.9412
vn 0.2942 0.1746 0.9397
vn -0.0000 0.0027 1.0000
vn -0.2950 -0.1675 0.9407
usemtl Road
s off
f 5/1/1 1/2/1 4/3/1
f 6/4/2 4/5/2 3/6/2
f 7/7/3 10/8/3 8/9/3
f 5/1/4 2/10/4 1/2/4
f 4/5/5 1/11/5 3/6/5
f 3/6/5 9/12/5 6/4/5
f 9/12/2 7/13/2 6/4/2
f 7/7/6 9/14/6 10/8/6
