# Blender v2.90.1 OBJ File: 'track1.blend'
# www.blender.org
mtllib RoadBlock.002.mtl
o RoadBlock.002
v 5.961321 -1.205647 0.005693
v 5.956326 -1.284194 0.033856
v 6.028799 -0.146155 0.005916
v 3.995655 -1.130578 0.006218
v 3.992985 -1.209237 0.034383
v 4.031769 -0.069553 0.006419
v 4.067884 0.991471 0.006620
v 4.070569 1.070119 0.034814
v 6.096277 0.913337 0.006140
v 6.101285 0.991871 0.034337
vt 0.893475 0.989125
vt 0.856526 0.010040
vt 0.856506 0.989124
vt 0.497318 1.034627
vt 0.033577 1.034741
vt 0.497173 -0.034628
vt 0.856506 0.989124
vt 0.893494 0.010041
vt 0.893475 0.989125
vt 0.893494 0.010041
vt 0.033431 -0.034514
vt 0.958395 -0.034741
vt 0.958540 1.034514
vt 0.856526 0.010040
vn 0.0131 0.3367 0.9415
vn 0.0002 -0.0002 1.0000
vn -0.0128 -0.3370 0.9414
vn 0.0003 -0.0002 1.0000
vn -0.0128 -0.3372 0.9414
usemtl Road
s off
f 5/1/1 1/2/1 4/3/1
f 6/4/2 4/5/2 3/6/2
f 7/7/3 10/8/3 8/9/3
f 5/1/1 2/10/1 1/2/1
f 4/5/4 1/11/4 3/6/4
f 3/6/2 9/12/2 6/4/2
f 9/12/2 7/13/2 6/4/2
f 7/7/5 9/14/5 10/8/5
