# Blender v2.90.1 OBJ File: 'track1.blend'
# www.blender.org
mtllib RoadBlock.054.mtl
o RoadBlock.054
v 3.512579 -66.252121 0.091726
v 3.453129 -66.200508 0.119825
v 4.314394 -66.947945 0.092815
v 5.023240 -64.798935 0.090683
v 4.968737 -64.742119 0.118781
v 5.758325 -65.564911 0.091786
v 6.493411 -66.330887 0.092889
v 6.547892 -66.387642 0.121151
v 5.116209 -67.643768 0.093904
v 5.175636 -67.695320 0.122164
vt 0.856506 0.989124
vt 0.893494 0.010041
vt 0.856526 0.010040
vt 0.958540 1.034514
vt 0.497318 1.034627
vt 0.497173 -0.034628
vt 0.856526 0.010040
vt 0.893475 0.989125
vt 0.856506 0.989124
vt 0.893475 0.989125
vt 0.033577 1.034741
vt 0.033431 -0.034514
vt 0.958395 -0.034741
vt 0.893494 0.010041
vn 0.2342 -0.2428 0.9414
vn -0.0003 0.0011 1.0000
vn -0.2329 0.2451 0.9411
vn 0.2334 -0.2419 0.9418
vn -0.0004 0.0011 1.0000
vn -0.0004 0.0012 1.0000
vn -0.2338 0.2461 0.9406
usemtl Road
s off
f 4/1/1 2/2/1 1/3/1
f 7/4/2 6/5/2 3/6/2
f 9/7/3 8/8/3 7/9/3
f 4/1/4 5/10/4 2/2/4
f 4/11/5 1/12/5 6/5/5
f 1/12/5 3/6/5 6/5/5
f 3/6/6 9/13/6 7/4/6
f 9/7/7 10/14/7 8/8/7
