# Blender v2.90.1 OBJ File: 'track1.blend'
# www.blender.org
mtllib RoadBlock.001.mtl
o RoadBlock.001
v 3.995655 -1.130578 0.006218
v 3.992985 -1.209237 0.034383
v 4.031769 -0.069553 0.006419
v 2.022627 -1.094314 0.006770
v 2.021933 -1.173016 0.034937
v 2.032109 -0.032718 0.006948
v 2.041591 1.028878 0.007126
v 2.042302 1.107570 0.035320
v 4.067884 0.991471 0.006620
v 4.070569 1.070119 0.034814
vt 0.893475 0.989125
vt 0.856526 0.010040
vt 0.856506 0.989124
vt 0.497318 1.034627
vt 0.033577 1.034741
vt 0.497173 -0.034628
vt 0.856506 0.989124
vt 0.893494 0.010041
vt 0.893475 0.989125
vt 0.893494 0.010041
vt 0.033431 -0.034514
vt 0.958395 -0.034741
vt 0.958540 1.034514
vt 0.856526 0.010040
vn 0.0065 0.3369 0.9415
vn 0.0003 -0.0002 1.0000
vn -0.0060 -0.3372 0.9414
vn 0.0002 -0.0002 1.0000
vn -0.0060 -0.3373 0.9414
usemtl Road
s off
f 5/1/1 1/2/1 4/3/1
f 6/4/2 4/5/2 3/6/2
f 7/7/3 10/8/3 8/9/3
f 5/1/1 2/10/1 1/2/1
f 4/5/2 1/11/2 3/6/2
f 3/6/2 9/12/2 6/4/2
f 9/12/4 7/13/4 6/4/4
f 7/7/5 9/14/5 10/8/5
