# Blender v2.90.1 OBJ File: 'track1.blend'
# www.blender.org
mtllib RoadBlock.027.mtl
o RoadBlock.027
v 1.811734 -30.458344 0.009246
v 1.743531 -30.419001 0.037322
v 2.731622 -30.988325 0.010648
v 3.119045 -28.642828 0.006825
v 3.062116 -28.588428 0.034891
v 3.886771 -29.376087 0.008365
v 4.654498 -30.109348 0.009905
v 4.711393 -30.163664 0.038199
v 3.651511 -31.518305 0.012050
v 3.719691 -31.557539 0.040334
vt 0.856506 0.989124
vt 0.893494 0.010041
vt 0.856526 0.010040
vt 0.497173 -0.034628
vt 0.958540 1.034514
vt 0.497318 1.034627
vt 0.856526 0.010040
vt 0.893475 0.989125
vt 0.856506 0.989124
vt 0.893475 0.989125
vt 0.033577 1.034741
vt 0.033431 -0.034514
vt 0.958395 -0.034741
vt 0.893494 0.010041
vn 0.2743 -0.1963 0.9414
vn -0.0004 0.0017 1.0000
vn -0.2775 0.1990 0.9399
vn 0.2755 -0.1972 0.9409
vn -0.0004 0.0016 1.0000
vn -0.0005 0.0018 1.0000
vn -0.2762 0.1980 0.9405
usemtl Road
s off
f 4/1/1 2/2/1 1/3/1
f 3/4/2 7/5/2 6/6/2
f 9/7/3 8/8/3 7/9/3
f 4/1/4 5/10/4 2/2/4
f 4/11/5 1/12/5 6/6/5
f 1/12/6 3/4/6 6/6/6
f 3/4/6 9/13/6 7/5/6
f 9/7/7 10/14/7 8/8/7
