# Blender v2.90.1 OBJ File: 'track1.blend'
# www.blender.org
mtllib RoadBlock.033.mtl
o RoadBlock.033
v 9.397676 -38.079922 0.046623
v 9.382011 -38.156937 0.075101
v 9.608341 -37.039402 0.042610
v 7.441841 -37.735802 0.041721
v 7.427135 -37.813007 0.070204
v 7.639549 -36.692745 0.037629
v 7.837258 -35.649685 0.033536
v 7.851863 -35.572243 0.061413
v 9.819006 -35.998882 0.038596
v 9.834575 -35.921631 0.066479
vt 0.893475 0.989125
vt 0.856526 0.010040
vt 0.856506 0.989124
vt 0.497318 1.034627
vt 0.033577 1.034741
vt 0.497173 -0.034628
vt 0.856506 0.989124
vt 0.893494 0.010041
vt 0.893475 0.989125
vt 0.893494 0.010041
vt 0.033431 -0.034514
vt 0.958395 -0.034741
vt 0.958540 1.034514
vt 0.856526 0.010040
vn 0.0568 0.3360 0.9401
vn -0.0018 0.0043 1.0000
vn -0.0602 -0.3280 0.9428
vn 0.0568 0.3361 0.9401
vn -0.0018 0.0042 1.0000
vn -0.0602 -0.3281 0.9427
usemtl Road
s off
f 5/1/1 1/2/1 4/3/1
f 6/4/2 4/5/2 3/6/2
f 7/7/3 10/8/3 8/9/3
f 5/1/4 2/10/4 1/2/4
f 4/5/5 1/11/5 3/6/5
f 3/6/5 9/12/5 6/4/5
f 9/12/2 7/13/2 6/4/2
f 7/7/6 9/14/6 10/8/6
