# Blender v2.90.1 OBJ File: 'track1.blend'
# www.blender.org
mtllib RoadBlock.138.mtl
o RoadBlock.138
v -12.441649 -9.810150 0.028502
v -12.365393 -9.790433 0.056499
v -13.469579 -10.075541 0.030970
v -11.897860 -11.692527 0.030326
v -11.822401 -11.669943 0.058324
v -12.915012 -11.996615 0.032787
v -13.932165 -12.300704 0.035248
v -14.007511 -12.323205 0.063611
v -14.497507 -10.340934 0.033439
v -14.573651 -10.360564 0.061802
vt 0.893475 0.989125
vt 0.856526 0.010040
vt 0.856506 0.989124
vt 0.497318 1.034627
vt 0.033577 1.034741
vt 0.497173 -0.034628
vt 0.856506 0.989124
vt 0.893494 0.010041
vt 0.893475 0.989125
vt 0.893494 0.010041
vt 0.033431 -0.034514
vt 0.958395 -0.034741
vt 0.958540 1.034514
vt 0.856526 0.010040
vn -0.3220 -0.0921 0.9422
vn 0.0020 0.0015 1.0000
vn 0.3258 0.0948 0.9407
vn -0.3221 -0.0921 0.9422
vn 0.3259 0.0949 0.9406
usemtl Road
s off
f 5/1/1 1/2/1 4/3/1
f 6/4/2 4/5/2 3/6/2
f 7/7/3 10/8/3 8/9/3
f 5/1/4 2/10/4 1/2/4
f 4/5/2 1/11/2 3/6/2
f 3/6/2 9/12/2 6/4/2
f 9/12/2 7/13/2 6/4/2
f 7/7/5 9/14/5 10/8/5
