# Blender v2.90.1 OBJ File: 'track1.blend'
# www.blender.org
mtllib RoadBlock.097.mtl
o RoadBlock.097
v -13.253020 -72.664619 0.099194
v -13.231299 -72.588905 0.127179
v -13.545963 -73.685043 0.101823
v -11.257743 -73.429024 0.100343
v -11.214931 -73.362907 0.128344
v -11.834956 -74.320030 0.102756
v -12.412169 -75.211037 0.105169
v -12.454937 -75.277023 0.133528
v -13.838908 -74.705460 0.104453
v -13.860619 -74.781029 0.132828
vt 0.893475 0.989125
vt 0.856526 0.010040
vt 0.856506 0.989124
vt 0.497318 1.034627
vt 0.033577 1.034741
vt 0.497173 -0.034628
vt 0.856526 0.010040
vt 0.893475 0.989125
vt 0.856506 0.989124
vt 0.893494 0.010041
vt 0.033431 -0.034514
vt 0.958395 -0.034741
vt 0.958540 1.034514
vt 0.893494 0.010041
vn -0.1226 -0.3187 0.9399
vn 0.0004 0.0025 1.0000
vn 0.1157 0.3279 0.9376
vn -0.1209 -0.3134 0.9419
vn 0.1127 0.3208 0.9404
usemtl Road
s off
f 5/1/1 1/2/1 4/3/1
f 6/4/2 4/5/2 3/6/2
f 9/7/3 8/8/3 7/9/3
f 5/1/4 2/10/4 1/2/4
f 4/5/2 1/11/2 3/6/2
f 3/6/2 9/12/2 6/4/2
f 9/12/2 7/13/2 6/4/2
f 9/7/5 10/14/5 8/8/5
