# Blender v2.90.1 OBJ File: 'track1.blend'
# www.blender.org
mtllib RoadBlock.041.mtl
o RoadBlock.041
v 18.645729 -46.585121 0.079344
v 18.567501 -46.576508 0.107523
v 19.701044 -46.700809 0.079350
v 18.762665 -44.838619 0.076872
v 18.684345 -44.846237 0.105081
v 19.819256 -44.735195 0.076473
v 20.875843 -44.631767 0.076075
v 20.954176 -44.624050 0.104225
v 20.756361 -46.816502 0.079356
v 20.834597 -46.825039 0.107537
vt 0.893475 0.989125
vt 0.856526 0.010040
vt 0.856506 0.989124
vt 0.497318 1.034627
vt 0.033577 1.034741
vt 0.497173 -0.034628
vt 0.856506 0.989124
vt 0.893494 0.010041
vt 0.893475 0.989125
vt 0.893494 0.010041
vt 0.033431 -0.034514
vt 0.958395 -0.034741
vt 0.958540 1.034514
vt 0.856526 0.010040
vn 0.3406 -0.0215 0.9399
vn 0.0002 0.0014 1.0000
vn -0.3399 0.0199 0.9403
vn 0.3367 -0.0214 0.9414
vn 0.0001 0.0014 1.0000
vn 0.0002 0.0015 1.0000
vn -0.3369 0.0198 0.9413
usemtl Road
s off
f 5/1/1 1/2/1 4/3/1
f 6/4/2 4/5/2 3/6/2
f 7/7/3 10/8/3 8/9/3
f 5/1/4 2/10/4 1/2/4
f 4/5/5 1/11/5 3/6/5
f 3/6/6 9/12/6 6/4/6
f 9/12/6 7/13/6 6/4/6
f 7/7/7 9/14/7 10/8/7
