# Blender v2.90.1 OBJ File: 'track1.blend'
# www.blender.org
mtllib RoadBlock.115.mtl
o RoadBlock.115
v -19.859848 -48.889118 0.063671
v -19.817921 -48.955734 0.091820
v -20.425001 -47.990410 0.064098
v -21.410957 -49.928226 0.065712
v -21.361200 -49.989220 0.093856
v -22.081715 -49.105328 0.066205
v -22.752476 -48.282433 0.066698
v -22.802166 -48.221420 0.094915
v -20.990152 -47.091698 0.064524
v -21.032017 -47.025070 0.092736
vt 0.856506 0.989124
vt 0.893494 0.010041
vt 0.856526 0.010040
vt 0.497173 -0.034628
vt 0.958540 1.034514
vt 0.497318 1.034627
vt 0.856526 0.010040
vt 0.893475 0.989125
vt 0.856506 0.989124
vt 0.893475 0.989125
vt 0.033577 1.034741
vt 0.033431 -0.034514
vt 0.958395 -0.034741
vt 0.893494 0.010041
vn -0.1866 0.2804 0.9416
vn 0.0011 0.0003 1.0000
vn 0.1904 -0.2801 0.9409
vn -0.1873 0.2815 0.9411
vn 0.0011 0.0002 1.0000
vn 0.1899 -0.2792 0.9413
usemtl Road
s off
f 4/1/1 2/2/1 1/3/1
f 3/4/2 7/5/2 6/6/2
f 9/7/3 8/8/3 7/9/3
f 4/1/4 5/10/4 2/2/4
f 4/11/2 1/12/2 6/6/2
f 1/12/5 3/4/5 6/6/5
f 3/4/5 9/13/5 7/5/5
f 9/7/6 10/14/6 8/8/6
