# Blender v2.90.1 OBJ File: 'track1.blend'
# www.blender.org
mtllib RoadBlock.142.mtl
o RoadBlock.142
v -12.492727 -3.192836 0.018530
v -12.430766 -3.241407 0.046628
v -13.327804 -2.537304 0.019624
v -13.013182 -4.517480 0.021265
v -12.937458 -4.539092 0.049311
v -14.033867 -4.225461 0.023071
v -15.054552 -3.933441 0.024876
v -15.130155 -3.911758 0.053190
v -14.162879 -1.881772 0.020719
v -14.224728 -1.833153 0.048980
vt 0.856506 0.989124
vt 0.893494 0.010041
vt 0.856526 0.010040
vt 0.497173 -0.034628
vt 0.958540 1.034514
vt 0.497318 1.034627
vt 0.856526 0.010040
vt 0.893475 0.989125
vt 0.856506 0.989124
vt 0.893475 0.989125
vt 0.033577 1.034741
vt 0.033431 -0.034514
vt 0.958395 -0.034741
vt 0.893494 0.010041
vn -0.3238 0.1292 0.9373
vn 0.0021 0.0012 1.0000
vn 0.3135 -0.1344 0.9400
vn -0.3132 0.1243 0.9415
vn 0.0022 0.0011 1.0000
vn 0.3202 -0.1376 0.9373
usemtl Road
s off
f 4/1/1 2/2/1 1/3/1
f 3/4/2 7/5/2 6/6/2
f 9/7/3 8/8/3 7/9/3
f 4/1/4 5/10/4 2/2/4
f 4/11/2 1/12/2 6/6/2
f 1/12/5 3/4/5 6/6/5
f 3/4/5 9/13/5 7/5/5
f 9/7/6 10/14/6 8/8/6
