# Blender v2.90.1 OBJ File: 'track1.blend'
# www.blender.org
mtllib RoadBlock.059.mtl
o RoadBlock.059
v 2.002662 -76.234352 0.099642
v 1.935427 -76.275276 0.127797
v 2.909399 -75.682175 0.099968
v 1.118476 -74.190857 0.097978
v 1.042959 -74.213058 0.126122
v 2.136919 -73.891106 0.098457
v 3.155364 -73.591362 0.098936
v 3.230843 -73.569122 0.127151
v 3.816135 -75.129990 0.100294
v 3.883335 -75.089043 0.128498
vt 0.893475 0.989125
vt 0.856526 0.010040
vt 0.856506 0.989124
vt 0.497318 1.034627
vt 0.033577 1.034741
vt 0.497173 -0.034628
vt 0.856506 0.989124
vt 0.893494 0.010041
vt 0.893475 0.989125
vt 0.893494 0.010041
vt 0.033431 -0.034514
vt 0.958395 -0.034741
vt 0.958540 1.034514
vt 0.856526 0.010040
vn 0.3109 0.1353 0.9408
vn -0.0006 0.0006 1.0000
vn -0.3124 -0.1333 0.9406
vn 0.3114 0.1355 0.9406
vn -0.0007 0.0005 1.0000
vn -0.3132 -0.1337 0.9402
usemtl Road
s off
f 5/1/1 1/2/1 4/3/1
f 6/4/2 4/5/2 3/6/2
f 7/7/3 10/8/3 8/9/3
f 5/1/4 2/10/4 1/2/4
f 4/5/5 1/11/5 3/6/5
f 3/6/5 9/12/5 6/4/5
f 9/12/2 7/13/2 6/4/2
f 7/7/6 9/14/6 10/8/6
