# Blender v2.90.1 OBJ File: 'track1.blend'
# www.blender.org
mtllib RoadBlock.078.mtl
o RoadBlock.078
v -0.791926 -102.802536 0.108306
v -0.813302 -102.726761 0.136380
v -0.503725 -103.824310 0.109735
v 0.847587 -102.059830 0.108380
v 0.814200 -101.988525 0.136457
v 1.297754 -103.021301 0.109778
v 1.747922 -103.982773 0.111176
v 1.781277 -104.054008 0.139459
v -0.215524 -104.846077 0.111165
v -0.194170 -104.921783 0.139451
vt 0.856506 0.989124
vt 0.893494 0.010041
vt 0.856526 0.010040
vt 0.497173 -0.034628
vt 0.958540 1.034514
vt 0.497318 1.034627
vt 0.856526 0.010040
vt 0.893475 0.989125
vt 0.856506 0.989124
vt 0.893475 0.989125
vt 0.033577 1.034741
vt 0.033431 -0.034514
vt 0.958395 -0.034741
vt 0.893494 0.010041
vn 0.1399 -0.3090 0.9407
vn -0.0006 0.0012 1.0000
vn -0.1363 0.3099 0.9410
vn 0.1387 -0.3059 0.9419
vn -0.1372 0.3124 0.9400
usemtl Road
s off
f 4/1/1 2/2/1 1/3/1
f 3/4/2 7/5/2 6/6/2
f 9/7/3 8/8/3 7/9/3
f 4/1/4 5/10/4 2/2/4
f 4/11/2 1/12/2 6/6/2
f 1/12/2 3/4/2 6/6/2
f 3/4/2 9/13/2 7/5/2
f 9/7/5 10/14/5 8/8/5
