# Blender v2.90.1 OBJ File: 'track1.blend'
# www.blender.org
mtllib RoadBlock.093.mtl
o RoadBlock.093
v -8.409439 -79.256432 0.102947
v -8.331920 -79.242569 0.130988
v -9.454503 -79.443283 0.104832
v -8.174570 -81.307190 0.103486
v -8.096333 -81.298248 0.131530
v -9.229347 -81.427689 0.105311
v -10.284124 -81.548180 0.107135
v -10.362268 -81.557098 0.135451
v -10.499566 -79.630135 0.106718
v -10.576991 -79.643974 0.135037
vt 0.893475 0.989125
vt 0.856526 0.010040
vt 0.856506 0.989124
vt 0.497318 1.034627
vt 0.033577 1.034741
vt 0.497173 -0.034628
vt 0.856506 0.989124
vt 0.893494 0.010041
vt 0.893475 0.989125
vt 0.893494 0.010041
vt 0.033431 -0.034514
vt 0.958395 -0.034741
vt 0.958540 1.034514
vt 0.856526 0.010040
vn -0.3333 -0.0379 0.9420
vn 0.0017 0.0004 1.0000
vn 0.3366 0.0380 0.9409
vn -0.3339 -0.0380 0.9418
vn 0.0017 0.0005 1.0000
vn 0.3372 0.0381 0.9406
usemtl Road
s off
f 5/1/1 1/2/1 4/3/1
f 6/4/2 4/5/2 3/6/2
f 7/7/3 10/8/3 8/9/3
f 5/1/4 2/10/4 1/2/4
f 4/5/5 1/11/5 3/6/5
f 3/6/2 9/12/2 6/4/2
f 9/12/2 7/13/2 6/4/2
f 7/7/6 9/14/6 10/8/6
