# Blender v2.90.1 OBJ File: 'track1.blend'
# www.blender.org
mtllib RoadBlock.077.mtl
o RoadBlock.077
v 0.847587 -102.059830 0.108380
v 0.814200 -101.988525 0.136457
v 1.297754 -103.021301 0.109778
v 2.464625 -101.070221 0.108417
v 2.424441 -101.002510 0.136495
v 3.006448 -101.983185 0.109784
v 3.548270 -102.896149 0.111152
v 3.588417 -102.963799 0.139433
v 1.747922 -103.982773 0.111176
v 1.781277 -104.054008 0.139459
vt 0.856506 0.989124
vt 0.893494 0.010041
vt 0.856526 0.010040
vt 0.497173 -0.034628
vt 0.958540 1.034514
vt 0.497318 1.034627
vt 0.856526 0.010040
vt 0.893475 0.989125
vt 0.856506 0.989124
vt 0.893475 0.989125
vt 0.033577 1.034741
vt 0.033431 -0.034514
vt 0.958395 -0.034741
vt 0.893494 0.010041
vn 0.1763 -0.2880 0.9413
vn -0.0007 0.0011 1.0000
vn -0.1748 0.2897 0.9410
vn 0.1754 -0.2864 0.9419
vn -0.1756 0.2911 0.9404
usemtl Road
s off
f 4/1/1 2/2/1 1/3/1
f 3/4/2 7/5/2 6/6/2
f 9/7/3 8/8/3 7/9/3
f 4/1/4 5/10/4 2/2/4
f 4/11/2 1/12/2 6/6/2
f 1/12/2 3/4/2 6/6/2
f 3/4/2 9/13/2 7/5/2
f 9/7/5 10/14/5 8/8/5
