# Blender v2.90.1 OBJ File: 'track1.blend'
# www.blender.org
mtllib RoadBlock.046.mtl
o RoadBlock.046
v 14.708891 -55.018841 0.086003
v 14.645220 -54.972549 0.114128
v 15.567686 -55.642979 0.086742
v 15.828525 -53.440052 0.085223
v 15.762237 -53.397598 0.113354
v 16.722654 -54.012424 0.085888
v 17.616783 -54.584793 0.086553
v 17.683058 -54.627205 0.114782
v 16.426479 -56.267113 0.087482
v 16.490135 -56.313362 0.115717
vt 0.856506 0.989124
vt 0.893494 0.010041
vt 0.856526 0.010040
vt 0.497173 -0.034628
vt 0.958540 1.034514
vt 0.497318 1.034627
vt 0.856526 0.010040
vt 0.893475 0.989125
vt 0.856506 0.989124
vt 0.893475 0.989125
vt 0.033577 1.034741
vt 0.033431 -0.034514
vt 0.958395 -0.034741
vt 0.893494 0.010041
vn 0.2747 -0.1943 0.9417
vn -0.0003 0.0007 1.0000
vn -0.2757 0.1956 0.9411
vn 0.2750 -0.1946 0.9416
vn -0.0003 0.0008 1.0000
vn -0.2755 0.1954 0.9412
usemtl Road
s off
f 4/1/1 2/2/1 1/3/1
f 3/4/2 7/5/2 6/6/2
f 9/7/3 8/8/3 7/9/3
f 4/1/4 5/10/4 2/2/4
f 4/11/2 1/12/2 6/6/2
f 1/12/2 3/4/2 6/6/2
f 3/4/5 9/13/5 7/5/5
f 9/7/6 10/14/6 8/8/6
