# Blender v2.90.1 OBJ File: 'track1.blend'
# www.blender.org
mtllib RoadBlock.098.mtl
o RoadBlock.098
v -15.417168 -72.442421 0.098036
v -15.410438 -72.363937 0.126009
v -15.508095 -73.500153 0.100828
v -13.253020 -72.664619 0.099194
v -13.231299 -72.588905 0.127179
v -13.545963 -73.685043 0.101823
v -13.838908 -74.705460 0.104453
v -13.860619 -74.781029 0.132828
v -15.599020 -74.557892 0.103620
v -15.605770 -74.636223 0.132007
vt 0.856506 0.989124
vt 0.893494 0.010041
vt 0.856526 0.010040
vt 0.958540 1.034514
vt 0.497318 1.034627
vt 0.497173 -0.034628
vt 0.856526 0.010040
vt 0.893475 0.989125
vt 0.856506 0.989124
vt 0.893475 0.989125
vt 0.033577 1.034741
vt 0.033431 -0.034514
vt 0.958395 -0.034741
vt 0.893494 0.010041
vn -0.0347 -0.3329 0.9423
vn -0.0003 0.0027 1.0000
vn 0.0284 0.3442 0.9385
vn -0.0353 -0.3375 0.9407
vn 0.0276 0.3385 0.9406
usemtl Road
s off
f 4/1/1 2/2/1 1/3/1
f 7/4/2 6/5/2 3/6/2
f 9/7/3 8/8/3 7/9/3
f 4/1/4 5/10/4 2/2/4
f 4/11/2 1/12/2 6/5/2
f 1/12/2 3/6/2 6/5/2
f 3/6/2 9/13/2 7/4/2
f 9/7/5 10/14/5 8/8/5
