# Blender v2.90.1 OBJ File: 'track1.blend'
# www.blender.org
mtllib RoadBlock.018.mtl
o RoadBlock.018
v 15.344177 -18.352327 0.005519
v 15.287362 -18.297823 0.033611
v 16.110321 -19.087242 0.006715
v 16.635717 -16.910660 0.005362
v 16.575811 -16.859575 0.033457
v 17.443558 -17.599478 0.006517
v 18.251398 -18.288296 0.007671
v 18.311260 -18.339334 0.035937
v 16.876465 -19.822157 0.007910
v 16.933237 -19.876614 0.036178
vt 0.856506 0.989124
vt 0.893494 0.010041
vt 0.856526 0.010040
vt 0.497173 -0.034628
vt 0.958540 1.034514
vt 0.497318 1.034627
vt 0.856526 0.010040
vt 0.893475 0.989125
vt 0.856506 0.989124
vt 0.893475 0.989125
vt 0.033577 1.034741
vt 0.033431 -0.034514
vt 0.958395 -0.034741
vt 0.893494 0.010041
vn 0.2505 -0.2243 0.9418
vn -0.0007 0.0008 1.0000
vn -0.2518 0.2258 0.9411
vn 0.2504 -0.2243 0.9418
vn -0.0008 0.0008 1.0000
vn -0.2519 0.2259 0.9410
usemtl Road
s off
f 4/1/1 2/2/1 1/3/1
f 3/4/2 7/5/2 6/6/2
f 9/7/3 8/8/3 7/9/3
f 4/1/4 5/10/4 2/2/4
f 4/11/5 1/12/5 6/6/5
f 1/12/5 3/4/5 6/6/5
f 3/4/5 9/13/5 7/5/5
f 9/7/6 10/14/6 8/8/6
