# Blender v2.90.1 OBJ File: 'track1.blend'
# www.blender.org
mtllib RoadBlock.118.mtl
o RoadBlock.118
v -14.655481 -45.970547 0.057628
v -14.615541 -46.038380 0.085765
v -15.193824 -45.055527 0.058202
v -16.420580 -46.953907 0.059633
v -16.381966 -47.022499 0.087776
v -16.941046 -46.028603 0.060130
v -17.461512 -45.103294 0.060628
v -17.500065 -45.034702 0.088845
v -15.732165 -44.140507 0.058777
v -15.772042 -44.072674 0.087000
vt 0.856506 0.989124
vt 0.893494 0.010041
vt 0.856526 0.010040
vt 0.958540 1.034514
vt 0.497318 1.034627
vt 0.497173 -0.034628
vt 0.856526 0.010040
vt 0.893475 0.989125
vt 0.856506 0.989124
vt 0.893475 0.989125
vt 0.033577 1.034741
vt 0.033431 -0.034514
vt 0.958395 -0.034741
vt 0.893494 0.010041
vn -0.1630 0.2946 0.9416
vn 0.0011 0.0001 1.0000
vn 0.1650 -0.2945 0.9413
vn 0.0011 0.0000 1.0000
vn 0.1650 -0.2946 0.9413
usemtl Road
s off
f 4/1/1 2/2/1 1/3/1
f 7/4/2 6/5/2 3/6/2
f 9/7/3 8/8/3 7/9/3
f 4/1/1 5/10/1 2/2/1
f 4/11/2 1/12/2 6/5/2
f 1/12/4 3/6/4 6/5/4
f 3/6/4 9/13/4 7/4/4
f 9/7/5 10/14/5 8/8/5
