# Blender v2.90.1 OBJ File: 'track1.blend'
# www.blender.org
mtllib RoadBlock.089.mtl
o RoadBlock.089
v -7.819015 -87.364944 0.104844
v -7.740356 -87.361259 0.132898
v -8.879489 -87.414627 0.106536
v -7.732276 -89.357346 0.105238
v -7.653640 -89.353241 0.133295
v -8.792469 -89.412712 0.106895
v -9.852662 -89.468071 0.108552
v -9.931211 -89.472168 0.136855
v -9.939963 -87.464302 0.108229
v -10.018532 -87.467979 0.136535
vt 0.893475 0.989125
vt 0.856526 0.010040
vt 0.856506 0.989124
vt 0.497318 1.034627
vt 0.033577 1.034741
vt 0.497173 -0.034628
vt 0.856506 0.989124
vt 0.893494 0.010041
vt 0.893475 0.989125
vt 0.893494 0.010041
vt 0.033431 -0.034514
vt 0.958395 -0.034741
vt 0.958540 1.034514
vt 0.856526 0.010040
vn -0.3353 -0.0144 0.9420
vn 0.0015 0.0002 1.0000
vn 0.3383 0.0149 0.9409
vn 0.0016 0.0003 1.0000
vn 0.0016 0.0002 1.0000
usemtl Road
s off
f 5/1/1 1/2/1 4/3/1
f 6/4/2 4/5/2 3/6/2
f 7/7/3 10/8/3 8/9/3
f 5/1/1 2/10/1 1/2/1
f 4/5/4 1/11/4 3/6/4
f 3/6/5 9/12/5 6/4/5
f 9/12/5 7/13/5 6/4/5
f 7/7/3 9/14/3 10/8/3
