# Blender v2.90.1 OBJ File: 'track1.blend'
# www.blender.org
mtllib RoadBlock.051.mtl
o RoadBlock.051
v 8.092546 -62.179832 0.089123
v 8.040051 -62.121162 0.117226
v 8.800523 -62.970936 0.090160
v 9.524670 -60.835434 0.088518
v 9.470270 -60.778526 0.116625
v 10.258355 -61.602753 0.089500
v 10.992041 -62.370075 0.090481
v 11.046417 -62.426929 0.118734
v 9.508500 -63.762039 0.091196
v 9.560973 -63.820656 0.119453
vt 0.856506 0.989124
vt 0.893494 0.010041
vt 0.856526 0.010040
vt 0.958540 1.034514
vt 0.497318 1.034627
vt 0.497173 -0.034628
vt 0.856526 0.010040
vt 0.893475 0.989125
vt 0.856506 0.989124
vt 0.893475 0.989125
vt 0.033577 1.034741
vt 0.033431 -0.034514
vt 0.958395 -0.034741
vt 0.893494 0.010041
vn 0.2304 -0.2450 0.9418
vn -0.0004 0.0009 1.0000
vn -0.2310 0.2467 0.9411
vn -0.2311 0.2468 0.9411
usemtl Road
s off
f 4/1/1 2/2/1 1/3/1
f 7/4/2 6/5/2 3/6/2
f 9/7/3 8/8/3 7/9/3
f 4/1/1 5/10/1 2/2/1
f 4/11/2 1/12/2 6/5/2
f 1/12/2 3/6/2 6/5/2
f 3/6/2 9/13/2 7/4/2
f 9/7/4 10/14/4 8/8/4
