# Blender v2.90.1 OBJ File: 'track1.blend'
# www.blender.org
mtllib RoadBlock.057.mtl
o RoadBlock.057
v 0.705038 -72.036324 0.096226
v 0.626323 -72.035736 0.124356
v 1.766650 -72.043915 0.096904
v 1.125315 -69.804764 0.094437
v 1.050864 -69.779182 0.122551
v 2.129435 -70.149467 0.095336
v 3.133554 -70.494171 0.096235
v 3.207975 -70.519691 0.124482
v 2.828261 -72.051506 0.097582
v 2.906941 -72.052048 0.125813
vt 0.856506 0.989124
vt 0.893494 0.010041
vt 0.856526 0.010040
vt 0.497173 -0.034628
vt 0.958540 1.034514
vt 0.497318 1.034627
vt 0.856526 0.010040
vt 0.893475 0.989125
vt 0.856506 0.989124
vt 0.893475 0.989125
vt 0.033577 1.034741
vt 0.033431 -0.034514
vt 0.958395 -0.034741
vt 0.893494 0.010041
vn 0.3354 -0.0624 0.9400
vn -0.0006 0.0009 1.0000
vn -0.3341 0.0663 0.9402
vn 0.3338 -0.0621 0.9406
vn -0.0006 0.0010 1.0000
vn -0.3365 0.0669 0.9393
usemtl Road
s off
f 4/1/1 2/2/1 1/3/1
f 3/4/2 7/5/2 6/6/2
f 9/7/3 8/8/3 7/9/3
f 4/1/4 5/10/4 2/2/4
f 4/11/2 1/12/2 6/6/2
f 1/12/2 3/4/2 6/6/2
f 3/4/5 9/13/5 7/5/5
f 9/7/6 10/14/6 8/8/6
