# Blender v2.90.1 OBJ File: 'track1.blend'
# www.blender.org
mtllib RoadBlock.091.mtl
o RoadBlock.091
v -8.014867 -83.339134 0.103972
v -7.936349 -83.333138 0.132020
v -9.073425 -83.419937 0.105747
v -7.894855 -85.360100 0.104429
v -7.816219 -85.355942 0.132480
v -8.955016 -85.416061 0.106160
v -10.015176 -85.472023 0.107891
v -10.093720 -85.476158 0.136199
v -10.131983 -83.500732 0.107522
v -10.210406 -83.506714 0.135834
vt 0.893475 0.989125
vt 0.856526 0.010040
vt 0.856506 0.989124
vt 0.497318 1.034627
vt 0.033577 1.034741
vt 0.497173 -0.034628
vt 0.856506 0.989124
vt 0.893494 0.010041
vt 0.893475 0.989125
vt 0.893494 0.010041
vt 0.033431 -0.034514
vt 0.958395 -0.034741
vt 0.958540 1.034514
vt 0.856526 0.010040
vn -0.3350 -0.0197 0.9420
vn 0.0016 0.0003 1.0000
vn 0.3380 0.0202 0.9409
vn 0.0017 0.0003 1.0000
vn 0.3381 0.0202 0.9409
usemtl Road
s off
f 5/1/1 1/2/1 4/3/1
f 6/4/2 4/5/2 3/6/2
f 7/7/3 10/8/3 8/9/3
f 5/1/1 2/10/1 1/2/1
f 4/5/4 1/11/4 3/6/4
f 3/6/4 9/12/4 6/4/4
f 9/12/2 7/13/2 6/4/2
f 7/7/5 9/14/5 10/8/5
