# Blender v2.90.1 OBJ File: 'track1.blend'
# www.blender.org
mtllib RoadBlock.075.mtl
o RoadBlock.075
v 4.029329 -99.992477 0.108428
v 3.983387 -99.928535 0.136509
v 4.648791 -100.854652 0.109766
v 5.535507 -98.815125 0.108413
v 5.484833 -98.754868 0.136496
v 6.218801 -99.627640 0.109722
v 6.902097 -100.440155 0.111030
v 6.952728 -100.500359 0.139307
v 5.268254 -101.716827 0.111104
v 5.314154 -101.780708 0.139383
vt 0.856506 0.989124
vt 0.893494 0.010041
vt 0.856526 0.010040
vt 0.497173 -0.034628
vt 0.958540 1.034514
vt 0.497318 1.034627
vt 0.856526 0.010040
vt 0.893475 0.989125
vt 0.856506 0.989124
vt 0.893475 0.989125
vt 0.033577 1.034741
vt 0.033431 -0.034514
vt 0.958395 -0.034741
vt 0.893494 0.010041
vn 0.2070 -0.2648 0.9418
vn -0.0007 0.0010 1.0000
vn -0.2084 0.2667 0.9410
vn 0.2071 -0.2649 0.9418
vn -0.0008 0.0010 1.0000
vn -0.2084 0.2668 0.9409
usemtl Road
s off
f 4/1/1 2/2/1 1/3/1
f 3/4/2 7/5/2 6/6/2
f 9/7/3 8/8/3 7/9/3
f 4/1/4 5/10/4 2/2/4
f 4/11/5 1/12/5 6/6/5
f 1/12/5 3/4/5 6/6/5
f 3/4/2 9/13/2 7/5/2
f 9/7/6 10/14/6 8/8/6
