# Blender v2.90.1 OBJ File: 'track1.blend'
# www.blender.org
mtllib RoadBlock.081.mtl
o RoadBlock.081
v -5.189137 -102.155899 0.107704
v -5.132863 -102.100830 0.135774
v -5.947917 -102.898415 0.109179
v -3.901044 -102.826691 0.107955
v -3.870495 -102.754120 0.136026
v -4.312976 -103.805153 0.109430
v -4.724909 -104.783615 0.110904
v -4.755433 -104.856110 0.139194
v -6.706696 -103.640930 0.110654
v -6.762919 -103.695938 0.138943
vt 0.856506 0.989124
vt 0.893494 0.010041
vt 0.856526 0.010040
vt 0.497318 1.034627
vt 0.033577 1.034741
vt 0.497173 -0.034628
vt 0.856506 0.989124
vt 0.893494 0.010041
vt 0.893475 0.989125
vt 0.893475 0.989125
vt 0.033431 -0.034514
vt 0.958395 -0.034741
vt 0.958540 1.034514
vt 0.856526 0.010040
vn -0.1623 -0.3113 0.9363
vn 0.0006 0.0013 1.0000
vn 0.1704 0.2951 0.9401
vn -0.1549 -0.2990 0.9416
vn 0.0005 0.0014 1.0000
vn 0.0006 0.0014 1.0000
vn 0.1747 0.3032 0.9368
usemtl Road
s off
f 4/1/1 2/2/1 1/3/1
f 6/4/2 4/5/2 3/6/2
f 7/7/3 10/8/3 8/9/3
f 4/1/4 5/10/4 2/2/4
f 4/5/5 1/11/5 3/6/5
f 3/6/6 9/12/6 6/4/6
f 9/12/2 7/13/2 6/4/2
f 7/7/7 9/14/7 10/8/7
