# Blender v2.90.1 OBJ File: 'track1.blend'
# www.blender.org
mtllib RoadBlock.038.mtl
o RoadBlock.038
v 17.473017 -41.815380 0.069656
v 17.409868 -41.862270 0.097967
v 18.324795 -41.181705 0.067883
v 16.368633 -40.536476 0.065439
v 16.319691 -40.598019 0.093807
v 17.028637 -39.704929 0.062896
v 17.688641 -38.873386 0.060353
v 17.737551 -38.811646 0.088344
v 19.176579 -40.548035 0.066109
v 19.239716 -40.500977 0.094158
vt 0.893475 0.989125
vt 0.856526 0.010040
vt 0.856506 0.989124
vt 0.497318 1.034627
vt 0.033577 1.034741
vt 0.497173 -0.034628
vt 0.856506 0.989124
vt 0.893494 0.010041
vt 0.893475 0.989125
vt 0.893494 0.010041
vt 0.033431 -0.034514
vt 0.958395 -0.034741
vt 0.958540 1.034514
vt 0.856526 0.010040
vn 0.2590 0.2268 0.9389
vn -0.0002 0.0032 1.0000
vn -0.2555 -0.2240 0.9405
vn 0.2557 0.2236 0.9406
vn -0.0002 0.0031 1.0000
vn -0.0003 0.0031 1.0000
vn -0.2531 -0.2217 0.9417
usemtl Road
s off
f 5/1/1 1/2/1 4/3/1
f 6/4/2 4/5/2 3/6/2
f 7/7/3 10/8/3 8/9/3
f 5/1/4 2/10/4 1/2/4
f 4/5/5 1/11/5 3/6/5
f 3/6/6 9/12/6 6/4/6
f 9/12/2 7/13/2 6/4/2
f 7/7/7 9/14/7 10/8/7
