# Blender v2.90.1 OBJ File: 'track1.blend'
# www.blender.org
mtllib RoadBlock.043.mtl
o RoadBlock.043
v 17.665720 -50.099113 0.083029
v 17.593340 -50.068184 0.111176
v 18.642096 -50.515968 0.083484
v 18.318724 -48.348297 0.081471
v 18.243143 -48.326336 0.109630
v 19.338291 -48.644196 0.081755
v 20.357862 -48.940094 0.082039
v 20.433445 -48.961998 0.110241
v 19.618467 -50.932827 0.083939
v 19.690845 -50.963703 0.112152
vt 0.856506 0.989124
vt 0.893494 0.010041
vt 0.856526 0.010040
vt 0.958540 1.034514
vt 0.497318 1.034627
vt 0.497173 -0.034628
vt 0.856526 0.010040
vt 0.893475 0.989125
vt 0.856506 0.989124
vt 0.893475 0.989125
vt 0.033577 1.034741
vt 0.033431 -0.034514
vt 0.958395 -0.034741
vt 0.893494 0.010041
vn 0.3161 -0.1171 0.9415
vn -0.0000 0.0009 1.0000
vn -0.3168 0.1184 0.9411
vn 0.3166 -0.1173 0.9413
vn -0.0001 0.0009 1.0000
vn -0.0001 0.0010 1.0000
vn -0.3164 0.1183 0.9412
usemtl Road
s off
f 4/1/1 2/2/1 1/3/1
f 7/4/2 6/5/2 3/6/2
f 9/7/3 8/8/3 7/9/3
f 4/1/4 5/10/4 2/2/4
f 4/11/2 1/12/2 6/5/2
f 1/12/5 3/6/5 6/5/5
f 3/6/6 9/13/6 7/4/6
f 9/7/7 10/14/7 8/8/7
