# Blender v2.90.1 OBJ File: 'track1.blend'
# www.blender.org
mtllib RoadBlock.010.mtl
o RoadBlock.010
v 19.709122 -5.888806 0.003793
v 19.644274 -5.933421 0.031932
v 20.583742 -5.287045 0.004347
v 18.592119 -4.629483 0.003705
v 18.541374 -4.689652 0.031850
v 19.276562 -3.817930 0.004172
v 19.961002 -3.006378 0.004639
v 20.011728 -2.946226 0.032854
v 21.458364 -4.685285 0.004901
v 21.523186 -4.640681 0.033122
vt 0.893475 0.989125
vt 0.856526 0.010040
vt 0.856506 0.989124
vt 0.497318 1.034627
vt 0.033577 1.034741
vt 0.497173 -0.034628
vt 0.856506 0.989124
vt 0.893494 0.010041
vt 0.893475 0.989125
vt 0.893494 0.010041
vt 0.033431 -0.034514
vt 0.958395 -0.034741
vt 0.958540 1.034514
vt 0.856526 0.010040
vn 0.2542 0.2255 0.9405
vn -0.0004 -0.0002 1.0000
vn -0.2542 -0.2266 0.9402
vn 0.2535 0.2249 0.9408
vn -0.0004 -0.0003 1.0000
vn -0.2538 -0.2262 0.9404
usemtl Road
s off
f 5/1/1 1/2/1 4/3/1
f 6/4/2 4/5/2 3/6/2
f 7/7/3 10/8/3 8/9/3
f 5/1/4 2/10/4 1/2/4
f 4/5/5 1/11/5 3/6/5
f 3/6/5 9/12/5 6/4/5
f 9/12/2 7/13/2 6/4/2
f 7/7/6 9/14/6 10/8/6
