# Blender v2.90.1 OBJ File: 'track1.blend'
# www.blender.org
mtllib RoadBlock.053.mtl
o RoadBlock.053
v 5.023240 -64.798935 0.090683
v 4.968737 -64.742119 0.118781
v 5.758325 -65.564911 0.091786
v 6.556058 -63.458988 0.089841
v 6.503592 -63.400291 0.117941
v 7.263686 -64.250404 0.090921
v 7.971313 -65.041817 0.092000
v 8.023760 -65.100456 0.120261
v 6.493411 -66.330887 0.092889
v 6.547892 -66.387642 0.121151
vt 0.856506 0.989124
vt 0.893494 0.010041
vt 0.856526 0.010040
vt 0.497173 -0.034628
vt 0.958540 1.034514
vt 0.497318 1.034627
vt 0.856526 0.010040
vt 0.893475 0.989125
vt 0.856506 0.989124
vt 0.893475 0.989125
vt 0.033577 1.034741
vt 0.033431 -0.034514
vt 0.958395 -0.034741
vt 0.893494 0.010041
vn 0.2217 -0.2531 0.9417
vn -0.0003 0.0011 1.0000
vn -0.2219 0.2551 0.9411
vn 0.2216 -0.2528 0.9418
vn -0.0004 0.0010 1.0000
vn -0.0004 0.0011 1.0000
vn -0.2221 0.2553 0.9410
usemtl Road
s off
f 4/1/1 2/2/1 1/3/1
f 3/4/2 7/5/2 6/6/2
f 9/7/3 8/8/3 7/9/3
f 4/1/4 5/10/4 2/2/4
f 4/11/5 1/12/5 6/6/5
f 1/12/6 3/4/6 6/6/6
f 3/4/6 9/13/6 7/5/6
f 9/7/7 10/14/7 8/8/7
