# Blender v2.90.1 OBJ File: 'track1.blend'
# www.blender.org
mtllib RoadBlock.045.mtl
o RoadBlock.045
v 15.828525 -53.440052 0.085223
v 15.762237 -53.397598 0.113354
v 16.722654 -54.012424 0.085888
v 16.799305 -51.787868 0.084214
v 16.729994 -51.750561 0.112352
v 17.734230 -52.290848 0.084786
v 18.669157 -52.793831 0.085357
v 18.738457 -52.831093 0.113580
v 17.616783 -54.584793 0.086553
v 17.683058 -54.627205 0.114782
vt 0.856506 0.989124
vt 0.893494 0.010041
vt 0.856526 0.010040
vt 0.497173 -0.034628
vt 0.958540 1.034514
vt 0.497318 1.034627
vt 0.856526 0.010040
vt 0.893475 0.989125
vt 0.856506 0.989124
vt 0.893475 0.989125
vt 0.033577 1.034741
vt 0.033431 -0.034514
vt 0.958395 -0.034741
vt 0.893494 0.010041
vn 0.2906 -0.1702 0.9416
vn -0.0002 0.0008 1.0000
vn -0.2910 0.1716 0.9412
vn -0.0002 0.0007 1.0000
vn -0.2911 0.1717 0.9412
usemtl Road
s off
f 4/1/1 2/2/1 1/3/1
f 3/4/2 7/5/2 6/6/2
f 9/7/3 8/8/3 7/9/3
f 4/1/1 5/10/1 2/2/1
f 4/11/4 1/12/4 6/6/4
f 1/12/2 3/4/2 6/6/2
f 3/4/2 9/13/2 7/5/2
f 9/7/5 10/14/5 8/8/5
