# Blender v2.90.1 OBJ File: 'track1.blend'
# www.blender.org
mtllib RoadBlock.109.mtl
o RoadBlock.109
v -22.903233 -58.089481 0.074803
v -22.824602 -58.085510 0.102890
v -23.963541 -58.142654 0.076063
v -22.831938 -60.112465 0.076799
v -22.753237 -60.110348 0.104890
v -23.893204 -60.140656 0.077988
v -24.954466 -60.168846 0.079178
v -25.033106 -60.170906 0.107446
v -25.023844 -58.195831 0.077323
v -25.102415 -58.199745 0.105596
vt 0.893475 0.989125
vt 0.856526 0.010040
vt 0.856506 0.989124
vt 0.497318 1.034627
vt 0.033577 1.034741
vt 0.497173 -0.034628
vt 0.856506 0.989124
vt 0.893494 0.010041
vt 0.893475 0.989125
vt 0.893494 0.010041
vt 0.033431 -0.034514
vt 0.958395 -0.034741
vt 0.958540 1.034514
vt 0.856526 0.010040
vn -0.3359 -0.0109 0.9418
vn 0.0011 0.0010 1.0000
vn 0.3379 0.0128 0.9411
vn 0.3380 0.0128 0.9411
usemtl Road
s off
f 5/1/1 1/2/1 4/3/1
f 6/4/2 4/5/2 3/6/2
f 7/7/3 10/8/3 8/9/3
f 5/1/1 2/10/1 1/2/1
f 4/5/2 1/11/2 3/6/2
f 3/6/2 9/12/2 6/4/2
f 9/12/2 7/13/2 6/4/2
f 7/7/4 9/14/4 10/8/4
