<?xml version="1.0" encoding="UTF-8" standalone="no"?>
<svg
   xmlns:dc="http://purl.org/dc/elements/1.1/"
   xmlns:cc="http://creativecommons.org/ns#"
   xmlns:rdf="http://www.w3.org/1999/02/22-rdf-syntax-ns#"
   xmlns:svg="http://www.w3.org/2000/svg"
   xmlns="http://www.w3.org/2000/svg"
   xmlns:sodipodi="http://sodipodi.sourceforge.net/DTD/sodipodi-0.dtd"
   xmlns:inkscape="http://www.inkscape.org/namespaces/inkscape"
   sodipodi:docname="porto.svg"
   inkscape:version="1.0 (1.0+r73+1)"
   id="svg8"
   version="1.1"
   viewBox="0 0 135.46666 135.46666"
   height="135.46666mm"
   width="135.46666mm">
  <defs
     id="defs2" />
  <sodipodi:namedview
     inkscape:window-maximized="1"
     inkscape:window-y="27"
     inkscape:window-x="52"
     inkscape:window-height="736"
     inkscape:window-width="1228"
     showgrid="false"
     inkscape:document-rotation="0"
     inkscape:current-layer="layer1"
     inkscape:document-units="mm"
     inkscape:cy="131.83937"
     inkscape:cx="49.265342"
     inkscape:zoom="0.35"
     inkscape:pageshadow="2"
     inkscape:pageopacity="0.0"
     borderopacity="1.0"
     bordercolor="#666666"
     pagecolor="#ffffff"
     id="base" />
  <metadata
     id="metadata5">
    <rdf:RDF>
      <cc:Work
         rdf:about="">
        <dc:format>image/svg+xml</dc:format>
        <dc:type
           rdf:resource="http://purl.org/dc/dcmitype/StillImage" />
        <dc:title></dc:title>
      </cc:Work>
    </rdf:RDF>
  </metadata>
  <g
     transform="translate(-31.008664,-17.017262)"
     id="layer1"
     inkscape:groupmode="layer"
     inkscape:label="Layer 1">
    <g
       transform="translate(31.067689,17.260735)"
       id="g92">
      <path
         id="path96"
         d="M -0.05902481,67.489857 V -0.24347313 H 67.674305 135.40764 V 67.489857 135.22319 H 67.674305 -0.05902481 Z M 87.811382,81.423008 c 1.485209,-0.258271 2.306939,-0.580822 3.411275,-1.339022 1.845236,-1.266878 3.074138,-2.684939 2.513293,-2.900153 -0.327496,-0.125675 -0.297005,-0.311473 0.188989,-1.151602 0.318723,-0.550963 1.109321,-1.656593 1.756886,-2.456958 1.436479,-1.775423 2.338864,-3.67479 2.78501,-5.861973 0.294391,-1.443223 0.276926,-1.90714 -0.139044,-3.693578 -1.009581,-4.335761 -3.259516,-8.436115 -4.629039,-8.436115 -0.197927,0 -0.359865,-0.105177 -0.359865,-0.233725 0,-0.282651 -0.785855,-0.56643 -2.38125,-0.85989 -1.148648,-0.211283 -2.144318,-0.297733 -7.276041,-0.631735 -1.309687,-0.08524 -2.738437,-0.258487 -3.175,-0.384993 -0.436562,-0.126502 -1.60873,-0.309427 -2.604817,-0.406497 C 76.813394,52.9607 75.704819,52.66606 75.123654,52.328386 74.399643,51.907717 74.244012,51.8758 74.50441,52.201394 c 0.294314,0.368004 0.273968,0.471773 -0.132292,0.674674 -0.264059,0.131879 -4.05198,0.269121 -8.417604,0.304983 -4.365625,0.03586 -8.770937,0.15041 -9.789583,0.25455 -2.120003,0.216739 -2.84335,0.199274 -7.9375,-0.191635 C 33.58393,52.120267 33.16067,52.101702 26.407448,52.286899 l -6.738733,0.184801 -0.895712,0.895713 c -0.775717,0.775716 -0.882206,1.037328 -0.794899,1.952828 0.05545,0.581414 -0.0044,1.057116 -0.132924,1.057116 -0.128556,0 -0.166668,0.174782 -0.08469,0.388401 0.08197,0.213622 0.04299,0.453948 -0.08663,0.534059 -0.129621,0.08011 -0.432543,0.822856 -0.673159,1.650547 -0.240616,0.827691 -0.918243,2.521606 -1.505836,3.764253 -1.025005,2.167695 -1.062355,2.338671 -0.920529,4.213934 0.0813,1.075013 0.274871,2.081618 0.43015,2.236896 0.15528,0.155279 0.282327,0.486717 0.282327,0.736529 0,0.249809 0.133156,0.498586 0.295902,0.552833 0.162746,0.05425 0.40474,0.808313 0.537764,1.675696 0.246329,1.606191 1.433448,4.355185 1.880733,4.355185 0.135642,0 0.620666,0.26789 1.077833,0.595312 1.03459,0.740971 2.485914,1.405417 3.608237,1.651918 0.471238,0.103503 1.409927,0.441809 2.085976,0.751795 1.082885,0.496531 1.670044,0.559512 4.933346,0.529172 5.913929,-0.05499 9.102571,-0.847135 17.727082,-4.403907 2.619375,-1.080238 5.304459,-2.203746 5.966857,-2.496682 0.662395,-0.292939 2.32927,-0.887857 3.704166,-1.322039 1.96654,-0.621019 2.753799,-0.751207 3.690435,-0.610288 l 1.190625,0.179134 -1.13828,0.359849 -1.13828,0.359849 1.491144,0.461367 c 0.820129,0.253754 2.074249,0.541568 2.786936,0.639586 1.254066,0.172479 2.408568,0.82763 3.091267,1.754216 0.181655,0.246555 0.89603,0.656167 1.5875,0.910249 0.691467,0.254082 1.852525,0.89477 2.580129,1.423747 0.727604,0.528978 1.858698,1.275828 2.513542,1.659667 0.654843,0.383839 1.543716,1.033 1.975273,1.442577 1.601419,1.519857 2.278369,1.682015 6.387409,1.530056 2.052862,-0.07592 4.612902,-0.291136 5.688978,-0.47826 z m -6.79668,-8.78091 C 80.589723,72.454432 79.765763,71.863991 79.18368,71.330003 78.601596,70.796016 77.999754,70.279081 77.846253,70.181257 77.69275,70.083435 77.282902,69.527148 76.935481,68.945065 76.181683,67.68213 75.337072,66.841268 74.265925,66.287357 71.288079,64.747453 61.076849,62.817241 57.190831,63.059682 c -1.785125,0.111371 -2.507453,0.294626 -3.787804,0.960977 -0.870124,0.45285 -1.747652,0.823365 -1.950061,0.823365 -0.202408,0 -0.832363,0.328985 -1.399899,0.731075 -1.395754,0.988875 -9.180867,4.074099 -10.531298,4.173532 -0.596156,0.04389 -2.218099,0.165145 -3.604318,0.269446 -3.537129,0.266134 -5.174987,-0.217537 -6.467112,-1.90978 -0.777126,-1.017773 -0.934365,-1.442853 -0.934365,-2.525964 0,-1.674725 0.221281,-2.053802 1.911773,-3.275034 1.721482,-1.243621 3.533492,-1.542235 6.819476,-1.123828 1.236927,0.157501 2.78474,0.328144 3.439584,0.379211 1.140798,0.08896 10.872268,0.160536 13.626041,0.100217 2.542587,-0.05569 8.32427,0.720259 11.016304,1.478481 2.094032,0.589793 3.66807,0.769678 3.66807,0.419198 0,-0.31559 0.425611,-0.284536 5.423958,0.395729 5.303094,0.721741 8.304008,1.598438 9.588441,2.801199 0.325932,0.30521 0.833536,1.198867 1.128006,1.985907 0.503754,1.346406 0.509614,1.474631 0.09913,2.169517 -0.829368,1.404009 -2.971583,2.281364 -4.222059,1.729168 z"
         style="fill:#d0d0d0;fill-opacity:1;stroke-width:0.264583" />
      <path
         id="path94"
         d="m 77.244493,81.471329 c -0.768091,-0.352735 -1.097912,-0.649873 -1.001178,-0.901965 0.09159,-0.238662 -0.368459,-0.763048 -1.259853,-1.436055 -0.772263,-0.583065 -1.480296,-1.060119 -1.573406,-1.060119 -0.09311,0 -1.076804,-0.625078 -2.185987,-1.389063 -2.868737,-1.975934 -4.155157,-2.750489 -6.841612,-4.119335 -3.273245,-1.66784 -4.168682,-1.763535 -7.276377,-0.777615 -1.375653,0.436427 -3.043147,1.033182 -3.705542,1.326121 -0.662398,0.292936 -3.347482,1.416444 -5.966857,2.496682 -8.624511,3.556772 -11.813153,4.348921 -17.727082,4.403907 -3.263302,0.03034 -3.850461,-0.03264 -4.933346,-0.529172 C 24.097204,79.174729 23.158515,78.836423 22.687277,78.73292 21.564954,78.486419 20.11363,77.821973 19.07904,77.081002 18.621873,76.75358 18.136849,76.48569 18.001207,76.48569 c -0.447285,0 -1.634404,-2.748994 -1.880733,-4.355185 -0.133024,-0.867383 -0.375018,-1.621446 -0.537764,-1.675696 -0.162746,-0.05425 -0.295902,-0.303024 -0.295902,-0.552833 0,-0.249812 -0.127047,-0.58125 -0.282327,-0.736529 -0.155279,-0.155278 -0.348847,-1.161883 -0.43015,-2.236896 -0.141826,-1.875263 -0.104476,-2.046239 0.920529,-4.213934 0.587593,-1.242647 1.26522,-2.936562 1.505836,-3.764253 0.240616,-0.827691 0.543538,-1.570437 0.673159,-1.650547 0.129621,-0.08011 0.161111,-0.339969 0.06998,-0.577461 -0.103258,-0.269087 -0.0595,-0.366171 0.116123,-0.257631 0.155002,0.0958 0.352465,-0.0099 0.438807,-0.23492 0.08989,-0.234262 0.04521,-0.340014 -0.104567,-0.247449 -0.154146,0.09527 -0.261553,-0.235911 -0.261553,-0.806466 0,-0.748215 0.204333,-1.172448 0.899583,-1.867699 0.494771,-0.494771 1.046609,-0.899583 1.226307,-0.899583 0.241649,0 -0.690223,0.879903 -1.259374,1.18914 -0.03274,0.01778 -0.129381,0.471885 -0.214758,1.0091 -0.194978,1.226854 0.04715,1.234101 1.694333,0.05072 0.70894,-0.509323 1.423591,-0.926042 1.588112,-0.926042 0.164521,0 0.29913,-0.277812 0.29913,-0.61736 0,-0.33955 0.148828,-0.618744 0.330729,-0.620432 0.181901,-0.0016 1.819011,-0.07914 3.638021,-0.172101 2.067123,-0.105648 3.108864,-0.0784 2.778125,0.07267 -0.442246,0.201999 -0.377055,0.244089 0.396875,0.256244 0.691203,0.01085 0.825397,-0.0505 0.529166,-0.241935 -0.290647,-0.187831 -0.0959,-0.257564 0.727605,-0.260533 0.723227,-0.0026 1.125923,0.113964 1.128529,0.326678 0.0027,0.220486 0.08955,0.198438 0.260533,-0.06614 0.227983,-0.352777 0.257381,-0.352777 0.264583,0 0.0056,0.272475 0.06932,0.300664 0.203407,0.08993 0.124277,-0.195321 0.772292,-0.27319 1.781884,-0.214122 7.616668,0.445627 14.237757,0.916567 16.40864,1.167098 1.021611,0.117901 2.569424,0.175853 3.439583,0.128786 4.910828,-0.265628 8.586133,-0.399275 14.149818,-0.514538 7.523998,-0.155871 7.205416,-0.125732 6.798362,-0.643136 -0.260418,-0.331017 -0.19668,-0.325675 0.361985,0.03033 0.372933,0.237649 1.504026,0.512689 2.513541,0.611196 1.009518,0.09851 2.192674,0.282612 2.629236,0.409114 0.436563,0.126506 1.865313,0.299752 3.175,0.384993 5.131723,0.334002 6.127393,0.420452 7.276041,0.631735 1.595395,0.29346 2.38125,0.577239 2.38125,0.85989 0,0.128548 0.161938,0.233725 0.359865,0.233725 1.369523,0 3.619458,4.100354 4.629039,8.436115 0.41597,1.786438 0.433435,2.250355 0.139044,3.693578 -0.446291,2.187898 -1.348798,4.087064 -2.785682,5.861973 -0.647938,0.800365 -1.494993,2.004425 -1.882346,2.675692 -2.067795,3.583397 -6.904386,5.487524 -13.027627,5.128868 -2.415818,-0.141502 -2.601185,-0.119459 -2.132243,0.253566 0.722328,0.574582 0.03593,0.494805 -1.394444,-0.16207 z m 8.289186,-0.782982 c 1.984841,-0.296243 5.271505,-1.740262 6.19266,-2.720787 1.721779,-1.83275 5.036537,-6.909953 5.621684,-8.610716 1.148665,-3.338647 0.856271,-5.733206 -1.21335,-9.936778 -1.141545,-2.31857 -1.216403,-2.403695 -2.84399,-3.233891 -2.042525,-1.04185 -3.088468,-1.273109 -7.49242,-1.656588 -1.891771,-0.16473 -4.681977,-0.476631 -6.200458,-0.693116 -2.389216,-0.340624 -4.31253,-0.35084 -14.287499,-0.0759 -6.339644,0.174742 -11.883813,0.322789 -12.320375,0.328994 -1.142786,0.01625 -8.780094,-0.605422 -9.921875,-0.807619 -1.319207,-0.233622 -13.426132,-0.273786 -15.935107,-0.05286 -1.833884,0.161478 -3.188183,0.463603 -4.711617,1.051102 -2.843785,1.096679 -3.956637,2.174983 -4.75844,4.610711 -0.335322,1.018646 -1.066649,2.768621 -1.625172,3.888832 -1.300384,2.608141 -1.360005,4.153858 -0.260681,6.758318 0.415148,0.983546 0.950486,2.621703 1.189641,3.640349 0.374035,1.593152 0.592173,1.992699 1.560289,2.857865 1.302827,1.164286 1.972691,1.483574 5.755672,2.743401 l 2.778125,0.925187 3.805882,-0.164901 c 2.093238,-0.0907 4.355426,-0.295336 5.027084,-0.454756 2.566476,-0.60916 7.933919,-2.420141 10.217033,-3.447237 1.309687,-0.589188 3.029725,-1.295958 3.822305,-1.570604 0.792581,-0.274645 1.685549,-0.657174 1.984375,-0.850064 1.072851,-0.692515 7.205498,-2.552432 8.416065,-2.552432 1.43125,0 5.691531,2.02243 8.928295,4.238415 1.091406,0.74721 2.944781,1.990844 4.118613,2.763631 1.173829,0.772787 2.470618,1.805419 2.881751,2.29474 0.72957,0.868317 0.808535,0.893513 3.289721,1.049763 2.600663,0.163774 2.787679,0.153675 5.981789,-0.323059 z m -5.423958,-7.827674 c -0.509323,-0.252777 -0.965975,-0.553331 -1.014785,-0.667895 -0.04881,-0.114567 -0.216033,-0.129633 -0.37161,-0.03348 -0.159629,0.09866 -0.206349,0.05101 -0.107236,-0.109355 0.0966,-0.156297 -0.224806,-0.621178 -0.714229,-1.033068 -0.489424,-0.41189 -1.107528,-1.10608 -1.373566,-1.542642 C 75.328804,67.5059 73.077493,65.932989 71.288463,65.813349 70.828644,65.782599 70.322991,65.675941 70.164786,65.57633 69.777777,65.332654 67.731341,64.811103 66.748264,64.7056 66.311701,64.65875 65.061545,64.420855 63.970139,64.176947 61.169495,63.551056 56.200004,63.3995 55.280791,63.911945 c -0.38685,0.215659 -1.596329,0.693844 -2.687735,1.062633 -1.091406,0.368789 -2.116563,0.847471 -2.278126,1.063736 -0.161565,0.216265 -0.42286,0.393211 -0.580655,0.393211 -0.157797,0 -1.201332,0.416718 -2.318966,0.926041 -1.117637,0.509323 -2.16603,0.926137 -2.329762,0.926251 -0.163735,1.14e-4 -1.071605,0.36831 -2.017491,0.818213 -1.482807,0.705287 -2.240444,0.865778 -5.498165,1.164677 -5.251117,0.481796 -6.875367,0.09942 -8.547917,-2.012349 -0.779886,-0.984686 -0.870257,-1.277577 -0.885688,-2.870501 -0.01595,-1.646778 0.03971,-1.824861 0.776563,-2.484538 0.436562,-0.390835 1.466522,-1.11452 2.288802,-1.608188 1.483124,-0.890415 1.515837,-0.896607 4.101041,-0.776192 1.433293,0.06676 3.222448,0.241332 3.975894,0.387935 0.753448,0.1466 4.980167,0.273386 9.392707,0.281744 8.68176,0.01646 12.633843,0.375377 16.814863,1.527154 1.668838,0.459726 2.407571,0.545427 3.162501,0.366892 0.624221,-0.147624 1.716461,-0.11906 2.981899,0.07798 1.09828,0.171014 3.306561,0.509016 4.90729,0.751115 6.584066,0.995794 8.214932,1.941256 9.212897,5.340988 0.477417,1.626406 0.265042,2.079492 -1.496562,3.192769 -1.381453,0.873032 -2.917021,1.028335 -4.14446,0.419155 z m 3.727998,-0.66735 c 0.52243,-0.286007 1.149096,-0.857266 1.392589,-1.269468 0.418746,-0.708883 0.413729,-0.82694 -0.09268,-2.180442 -0.844333,-2.256684 -1.974114,-3.038544 -5.616662,-3.886999 -1.935432,-0.450815 -5.427458,-0.994571 -9.266972,-1.44299 -0.833197,-0.09731 -1.256771,-0.04771 -1.256771,0.147154 0,0.35048 -1.574038,0.170595 -3.66807,-0.419198 -3.035188,-0.854874 -8.605308,-1.551718 -11.677763,-1.460937 -2.699776,0.07977 -10.908664,-0.0041 -12.699999,-0.129699 -0.800365,-0.05613 -2.515611,-0.236741 -3.811659,-0.401346 -3.264217,-0.414576 -4.730096,-0.1875 -6.471472,1.002472 -1.852245,1.265732 -2.152285,1.738585 -2.152285,3.391916 0,1.145836 0.145105,1.56714 0.868219,2.520815 1.534917,2.024316 3.178961,2.295871 10.111989,1.670253 1.474528,-0.133056 8.844663,-3.02379 10.644221,-4.174905 0.615572,-0.393758 1.245526,-0.715925 1.3999,-0.715925 0.154373,0 0.9926,-0.370515 1.862724,-0.823365 1.280351,-0.666351 2.002679,-0.849606 3.787804,-0.960977 3.886018,-0.242441 14.097248,1.687771 17.075094,3.227675 1.071147,0.553911 1.915758,1.394773 2.669556,2.657708 0.347421,0.582083 0.757269,1.138288 0.910772,1.236009 0.153501,0.09772 0.695812,0.558684 1.205135,1.024361 2.110187,1.92936 2.804737,2.072711 4.78633,0.987888 z M 23.382436,52.743126 c -0.156838,-0.156837 -0.951879,0.252245 -0.951879,0.48978 0,0.131186 0.232711,0.09319 0.517134,-0.08444 0.284424,-0.177625 0.480059,-0.360032 0.434745,-0.405344 z m 1.09313,0.0348 c -0.08792,-0.08792 -0.316122,-0.09732 -0.507118,-0.02088 -0.211067,0.08446 -0.148372,0.147156 0.159852,0.159851 0.278915,0.01148 0.435185,-0.05105 0.347266,-0.138964 z m 1.852083,0 c -0.08792,-0.08792 -0.316122,-0.09732 -0.507118,-0.02088 -0.211067,0.08446 -0.148372,0.147156 0.159853,0.159851 0.278914,0.01148 0.435185,-0.05105 0.347265,-0.138964 z m 1.511616,-0.08006 c 0.08155,-0.13195 -0.09002,-0.177594 -0.381259,-0.101433 -0.6178,0.161557 -0.695894,0.341341 -0.148273,0.341341 0.209693,0 0.447982,-0.107958 0.529532,-0.239908 z"
         style="fill:#333333;fill-opacity:1;stroke-width:0.264583" />
    </g>
  </g>
</svg>
