<?xml version="1.0" encoding="UTF-8" standalone="no"?>
<svg
        xmlns:dc="http://purl.org/dc/elements/1.1/"
        xmlns:cc="http://creativecommons.org/ns#"
        xmlns:rdf="http://www.w3.org/1999/02/22-rdf-syntax-ns#"
        xmlns:sodipodi="http://sodipodi.sourceforge.net/DTD/sodipodi-0.dtd"
        xmlns:inkscape="http://www.inkscape.org/namespaces/inkscape"
        xmlns="http://www.w3.org/2000/svg"
        sodipodi:docname="berlin.svg"
        inkscape:version="1.0 (1.0+r73+1)"
        id="svg8"
        version="1.1"
        viewBox="0 0 158.75 158.75"
        height="158.75mm"
        width="158.75mm">
    <defs
            id="defs2"/>
    <sodipodi:namedview
            inkscape:window-maximized="1"
            inkscape:window-y="27"
            inkscape:window-x="52"
            inkscape:window-height="736"
            inkscape:window-width="1228"
            showgrid="false"
            inkscape:document-rotation="0"
     inkscape:current-layer="layer1"
     inkscape:document-units="mm"
     inkscape:cy="476.20188"
     inkscape:cx="312.19865"
     inkscape:zoom="0.35"
     inkscape:pageshadow="2"
     inkscape:pageopacity="0.0"
     borderopacity="1.0"
     bordercolor="#666666"
     pagecolor="#ffffff"
     id="base" />
  <metadata
     id="metadata5">
    <rdf:RDF>
      <cc:Work
         rdf:about="">
        <dc:format>image/svg+xml</dc:format>
        <dc:type
           rdf:resource="http://purl.org/dc/dcmitype/StillImage" />
        <dc:title></dc:title>
      </cc:Work>
    </rdf:RDF>
  </metadata>
  <g
     transform="translate(-23.230774,-22.171586)"
     id="layer1"
     inkscape:groupmode="layer"
     inkscape:label="Layer 1">
    <g
       transform="translate(-3.2275602,-46.620078)"
       id="g189">
      <path
         id="path205"
         d="M 26.458334,148.16666 V 68.791664 h 79.374996 79.375 v 79.374996 79.375 h -79.375 -79.374996 z m 93.465806,76.32225 c 1.49063,-0.22381 3.42461,-0.58869 4.29774,-0.81083 3.83225,-0.97503 8.51208,-4.6892 10.15804,-8.06199 1.10617,-2.26668 1.70536,-5.56704 1.48563,-8.18276 -0.23676,-2.81826 -1.01014,-6.66467 -2.68653,-13.36146 -3.00456,-12.00254 -3.90622,-18.07629 -3.3114,-22.30622 0.88423,-6.28795 3.23234,-13.36209 6.00756,-18.09899 2.15823,-3.68379 8.22912,-10.51082 12.33047,-13.86626 5.58444,-4.56881 7.68788,-10.145 6.3213,-16.75769 -2.29577,-11.10891 -10.50046,-23.257278 -23.27996,-34.469716 -7.00183,-6.143251 -11.50333,-8.999643 -19.70084,-12.501008 -3.33989,-1.426555 -4.92283,-1.724072 -9.17296,-1.724072 -8.075607,0 -21.107128,2.249197 -29.266526,5.051305 -10.600147,3.640314 -19.658742,11.640173 -21.896316,19.337153 -1.358747,4.673928 -0.900795,10.016988 1.294701,15.105668 2.038904,4.72574 4.908593,8.61637 7.737391,10.49008 1.448327,0.95934 2.171213,1.00432 4.904774,0.30519 2.545049,-0.65091 4.887627,-1.8369 9.760091,-4.94127 2.145718,-1.36709 4.088275,-2.48563 4.316793,-2.48563 0.23526,0 0.415486,0.22335 0.415486,0.5149 0,0.50418 -0.719172,1.0162 -7.886959,5.61518 -3.252304,2.08674 -4.431006,3.34809 -5.073955,5.42971 -1.016703,3.2917 -0.753181,4.97559 2.262146,14.455 2.252186,7.08029 3.573949,10.33737 5.743146,14.15223 0.968002,1.70238 1.329698,2.07782 3.011771,3.12621 2.326933,1.45031 5.508913,2.20417 9.352184,2.21568 1.382448,0.004 2.678602,0.11206 2.880342,0.23983 0.310599,0.1967 0.313224,0.56219 0.01714,2.38544 -0.279636,1.72193 -0.288441,2.8665 -0.04396,5.71504 0.305001,3.55365 2.156804,13.47266 3.357695,17.98516 1.004858,3.77589 1.295884,6.37301 0.958096,8.55011 -0.420063,2.70739 -0.360489,9.09203 0.110612,11.85429 0.882946,5.17708 1.84939,7.3643 4.474361,10.1262 2.957907,3.11221 5.005987,4.05241 10.470727,4.80676 4.24027,0.58532 7.26209,0.61561 10.65122,0.10676 z m -7.65907,-20.95322 c -2.10511,-3.29082 -4.48663,-9.05953 -5.60004,-13.56486 -1.3284,-5.37525 -1.74349,-13.81628 -0.93776,-19.06954 0.505,-3.29256 0.37782,-8.77614 -0.27876,-12.019 -0.56829,-2.80681 -1.91091,-5.50706 -3.52621,-7.09187 -1.12316,-1.10196 -1.5676,-1.33904 -3.34101,-1.78221 -2.40061,-0.5999 -5.973183,-2.38441 -7.170409,-3.58164 -0.873834,-0.87383 -2.569874,-4.70017 -2.926877,-6.60316 -0.107391,-0.57244 -0.533974,-1.96891 -0.947962,-3.10326 -1.24432,-3.40952 -0.947473,-7.26123 0.829053,-10.75733 0.412615,-0.812 1.806623,-2.60746 3.097797,-3.98991 4.441976,-4.75598 5.367846,-6.38009 5.372024,-9.4233 0.0021,-1.62367 -0.124135,-2.13598 -0.918523,-3.72387 -2.178981,-4.35552 -6.894099,-7.49033 -11.266347,-7.49033 h -1.548378 l -2.855521,2.41327 c -1.912591,1.61638 -3.554471,2.74597 -4.972188,3.42079 -4.958059,2.36001 -9.657292,2.80577 -9.657292,0.91608 0,-0.52152 0.309909,-0.8679 1.389063,-1.55252 3.534936,-2.24257 14.642682,-6.728249 20.143695,-8.134697 5.289791,-1.352447 8.074697,-1.558237 12.333909,-0.911416 8.786956,1.334426 15.415256,6.121593 24.828466,17.931913 2.06594,2.59205 2.67484,3.88654 2.68239,5.70269 0.007,1.63622 -0.45385,2.86697 -1.6279,4.34932 -1.09743,1.38562 -1.84032,2.4074 -2.95273,4.06121 -0.49626,0.73778 -2.10086,2.83303 -3.56577,4.6561 -2.2337,2.77983 -2.96336,3.94101 -4.52201,7.19637 -2.04929,4.28009 -2.76757,5.36748 -4.15671,6.29275 -0.51334,0.34193 -1.2524,1.217 -1.64235,1.9446 -0.68991,1.28728 -0.70587,1.41915 -0.59254,4.89479 0.11758,3.60605 0.12017,4.25141 0.049,12.20885 -0.0648,7.24513 1.68551,18.26072 4.57494,28.79179 2.24061,8.1663 2.41539,9.53478 1.21778,9.53478 -0.36888,0 -0.84907,-0.48196 -1.51078,-1.51639 z"
         style="fill:#d0d0d0;fill-opacity:1;stroke-width:0.264583" />
      <path
         id="path203"
         d="M 26.458334,148.16666 V 68.791664 h 79.374996 79.375 v 79.374996 79.375 h -79.375 -79.374996 z m 93.465806,76.32225 c 1.49063,-0.22381 3.42461,-0.58869 4.29774,-0.81083 3.83225,-0.97503 8.51208,-4.6892 10.15804,-8.06199 1.10617,-2.26668 1.70536,-5.56704 1.48563,-8.18276 -0.23676,-2.81826 -1.01014,-6.66467 -2.68653,-13.36146 -3.00456,-12.00254 -3.90622,-18.07629 -3.3114,-22.30622 0.88423,-6.28795 3.23234,-13.36209 6.00756,-18.09899 2.15823,-3.68379 8.22912,-10.51082 12.33047,-13.86626 5.58444,-4.56881 7.68788,-10.145 6.3213,-16.75769 -2.29577,-11.10891 -10.50046,-23.257278 -23.27996,-34.469716 -7.00183,-6.143251 -11.50333,-8.999643 -19.70084,-12.501008 -3.33989,-1.426555 -4.92283,-1.724072 -9.17296,-1.724072 -8.075607,0 -21.107128,2.249197 -29.266526,5.051305 -10.600147,3.640314 -19.658742,11.640173 -21.896316,19.337153 -1.358747,4.673928 -0.900795,10.016988 1.294701,15.105668 2.038904,4.72574 4.908593,8.61637 7.737391,10.49008 1.448327,0.95934 2.171213,1.00432 4.904774,0.30519 2.545049,-0.65091 4.887627,-1.8369 9.760091,-4.94127 2.145718,-1.36709 4.088275,-2.48563 4.316793,-2.48563 0.23526,0 0.415486,0.22335 0.415486,0.5149 0,0.50418 -0.719172,1.0162 -7.886959,5.61518 -3.252304,2.08674 -4.431006,3.34809 -5.073955,5.42971 -1.016703,3.2917 -0.753181,4.97559 2.262146,14.455 2.252186,7.08029 3.573949,10.33737 5.743146,14.15223 0.968002,1.70238 1.329698,2.07782 3.011771,3.12621 2.326933,1.45031 5.508913,2.20417 9.352184,2.21568 1.382448,0.004 2.678602,0.11206 2.880342,0.23983 0.310599,0.1967 0.313224,0.56219 0.01714,2.38544 -0.279636,1.72193 -0.288441,2.8665 -0.04396,5.71504 0.305001,3.55365 2.156804,13.47266 3.357695,17.98516 1.004858,3.77589 1.295884,6.37301 0.958096,8.55011 -0.420063,2.70739 -0.360489,9.09203 0.110612,11.85429 0.882946,5.17708 1.84939,7.3643 4.474361,10.1262 2.957907,3.11221 5.005987,4.05241 10.470727,4.80676 4.24027,0.58532 7.26209,0.61561 10.65122,0.10676 z m -7.65907,-20.95322 c -2.10511,-3.29082 -4.48663,-9.05953 -5.60004,-13.56486 -1.3284,-5.37525 -1.74349,-13.81628 -0.93776,-19.06954 0.505,-3.29256 0.37782,-8.77614 -0.27876,-12.019 -0.56829,-2.80681 -1.91091,-5.50706 -3.52621,-7.09187 -1.12316,-1.10196 -1.5676,-1.33904 -3.34101,-1.78221 -2.40061,-0.5999 -5.973183,-2.38441 -7.170409,-3.58164 -0.873834,-0.87383 -2.569874,-4.70017 -2.926877,-6.60316 -0.107391,-0.57244 -0.533974,-1.96891 -0.947962,-3.10326 -1.24432,-3.40952 -0.947473,-7.26123 0.829053,-10.75733 0.412615,-0.812 1.806623,-2.60746 3.097797,-3.98991 4.441976,-4.75598 5.367846,-6.38009 5.372024,-9.4233 0.0021,-1.62367 -0.124135,-2.13598 -0.918523,-3.72387 -2.178981,-4.35552 -6.894099,-7.49033 -11.266347,-7.49033 h -1.548378 l -2.855521,2.41327 c -1.912591,1.61638 -3.554471,2.74597 -4.972188,3.42079 -4.958059,2.36001 -9.657292,2.80577 -9.657292,0.91608 0,-0.52152 0.309909,-0.8679 1.389063,-1.55252 3.534936,-2.24257 14.642682,-6.728249 20.143695,-8.134697 5.289791,-1.352447 8.074697,-1.558237 12.333909,-0.911416 8.786956,1.334426 15.415256,6.121593 24.828466,17.931913 2.06594,2.59205 2.67484,3.88654 2.68239,5.70269 0.007,1.63622 -0.45385,2.86697 -1.6279,4.34932 -1.09743,1.38562 -1.84032,2.4074 -2.95273,4.06121 -0.49626,0.73778 -2.10086,2.83303 -3.56577,4.6561 -2.2337,2.77983 -2.96336,3.94101 -4.52201,7.19637 -2.04929,4.28009 -2.76757,5.36748 -4.15671,6.29275 -0.51334,0.34193 -1.2524,1.217 -1.64235,1.9446 -0.68991,1.28728 -0.70587,1.41915 -0.59254,4.89479 0.11758,3.60605 0.12017,4.25141 0.049,12.20885 -0.0648,7.24513 1.68551,18.26072 4.57494,28.79179 2.24061,8.1663 2.41539,9.53478 1.21778,9.53478 -0.36888,0 -0.84907,-0.48196 -1.51078,-1.51639 z"
         style="fill:#b9b9b9;fill-opacity:1;stroke-width:0.264583" />
      <path
         id="path201"
         d="M 26.458334,148.16666 V 68.791664 h 79.374996 79.375 v 79.374996 79.375 h -79.375 -79.374996 z m 93.465806,76.32225 c 1.49063,-0.22381 3.42461,-0.58869 4.29774,-0.81083 3.83225,-0.97503 8.51208,-4.6892 10.15804,-8.06199 1.10617,-2.26668 1.70536,-5.56704 1.48563,-8.18276 -0.23676,-2.81826 -1.01014,-6.66467 -2.68653,-13.36146 -3.00456,-12.00254 -3.90622,-18.07629 -3.3114,-22.30622 0.88423,-6.28795 3.23234,-13.36209 6.00756,-18.09899 2.15823,-3.68379 8.22912,-10.51082 12.33047,-13.86626 5.58444,-4.56881 7.68788,-10.145 6.3213,-16.75769 -2.29577,-11.10891 -10.50046,-23.257278 -23.27996,-34.469716 -7.00183,-6.143251 -11.50333,-8.999643 -19.70084,-12.501008 -3.33989,-1.426555 -4.92283,-1.724072 -9.17296,-1.724072 -8.075607,0 -21.107128,2.249197 -29.266526,5.051305 -10.600147,3.640314 -19.658742,11.640173 -21.896316,19.337153 -1.358747,4.673928 -0.900795,10.016988 1.294701,15.105668 2.038904,4.72574 4.908593,8.61637 7.737391,10.49008 1.448327,0.95934 2.171213,1.00432 4.904774,0.30519 2.545049,-0.65091 4.887627,-1.8369 9.760091,-4.94127 2.145718,-1.36709 4.088275,-2.48563 4.316793,-2.48563 0.23526,0 0.415486,0.22335 0.415486,0.5149 0,0.50418 -0.719172,1.0162 -7.886959,5.61518 -3.252304,2.08674 -4.431006,3.34809 -5.073955,5.42971 -1.016703,3.2917 -0.753181,4.97559 2.262146,14.455 2.252186,7.08029 3.573949,10.33737 5.743146,14.15223 0.968002,1.70238 1.329698,2.07782 3.011771,3.12621 2.326933,1.45031 5.508913,2.20417 9.352184,2.21568 1.382448,0.004 2.678602,0.11206 2.880342,0.23983 0.310599,0.1967 0.313224,0.56219 0.01714,2.38544 -0.279636,1.72193 -0.288441,2.8665 -0.04396,5.71504 0.305001,3.55365 2.156804,13.47266 3.357695,17.98516 1.004858,3.77589 1.295884,6.37301 0.958096,8.55011 -0.420063,2.70739 -0.360489,9.09203 0.110612,11.85429 0.882946,5.17708 1.84939,7.3643 4.474361,10.1262 2.957907,3.11221 5.005987,4.05241 10.470727,4.80676 4.24027,0.58532 7.26209,0.61561 10.65122,0.10676 z m -7.65907,-20.95322 c -2.10511,-3.29082 -4.48663,-9.05953 -5.60004,-13.56486 -1.3284,-5.37525 -1.74349,-13.81628 -0.93776,-19.06954 0.505,-3.29256 0.37782,-8.77614 -0.27876,-12.019 -0.56829,-2.80681 -1.91091,-5.50706 -3.52621,-7.09187 -1.12316,-1.10196 -1.5676,-1.33904 -3.34101,-1.78221 -2.40061,-0.5999 -5.973183,-2.38441 -7.170409,-3.58164 -0.873834,-0.87383 -2.569874,-4.70017 -2.926877,-6.60316 -0.107391,-0.57244 -0.533974,-1.96891 -0.947962,-3.10326 -1.24432,-3.40952 -0.947473,-7.26123 0.829053,-10.75733 0.412615,-0.812 1.806623,-2.60746 3.097797,-3.98991 4.441976,-4.75598 5.367846,-6.38009 5.372024,-9.4233 0.0021,-1.62367 -0.124135,-2.13598 -0.918523,-3.72387 -2.178981,-4.35552 -6.894099,-7.49033 -11.266347,-7.49033 h -1.548378 l -2.855521,2.41327 c -1.912591,1.61638 -3.554471,2.74597 -4.972188,3.42079 -4.958059,2.36001 -9.657292,2.80577 -9.657292,0.91608 0,-0.52152 0.309909,-0.8679 1.389063,-1.55252 3.534936,-2.24257 14.642682,-6.728249 20.143695,-8.134697 5.289791,-1.352447 8.074697,-1.558237 12.333909,-0.911416 8.786956,1.334426 15.415256,6.121593 24.828466,17.931913 2.06594,2.59205 2.67484,3.88654 2.68239,5.70269 0.007,1.63622 -0.45385,2.86697 -1.6279,4.34932 -1.09743,1.38562 -1.84032,2.4074 -2.95273,4.06121 -0.49626,0.73778 -2.10086,2.83303 -3.56577,4.6561 -2.2337,2.77983 -2.96336,3.94101 -4.52201,7.19637 -2.04929,4.28009 -2.76757,5.36748 -4.15671,6.29275 -0.51334,0.34193 -1.2524,1.217 -1.64235,1.9446 -0.68991,1.28728 -0.70587,1.41915 -0.59254,4.89479 0.11758,3.60605 0.12017,4.25141 0.049,12.20885 -0.0648,7.24513 1.68551,18.26072 4.57494,28.79179 2.24061,8.1663 2.41539,9.53478 1.21778,9.53478 -0.36888,0 -0.84907,-0.48196 -1.51078,-1.51639 z"
         style="fill:#a3a3a3;fill-opacity:1;stroke-width:0.264583" />
      <path
         id="path199"
         d="M 26.458334,148.16666 V 68.791664 h 79.374996 79.375 v 79.374996 79.375 h -79.375 -79.374996 z m 93.465806,76.32225 c 1.49063,-0.22381 3.42461,-0.58869 4.29774,-0.81083 3.83225,-0.97503 8.51208,-4.6892 10.15804,-8.06199 1.10617,-2.26668 1.70536,-5.56704 1.48563,-8.18276 -0.23676,-2.81826 -1.01014,-6.66467 -2.68653,-13.36146 -3.00456,-12.00254 -3.90622,-18.07629 -3.3114,-22.30622 0.88423,-6.28795 3.23234,-13.36209 6.00756,-18.09899 2.15823,-3.68379 8.22912,-10.51082 12.33047,-13.86626 5.58444,-4.56881 7.68788,-10.145 6.3213,-16.75769 -2.29577,-11.10891 -10.50046,-23.257278 -23.27996,-34.469716 -7.00183,-6.143251 -11.50333,-8.999643 -19.70084,-12.501008 -3.33989,-1.426555 -4.92283,-1.724072 -9.17296,-1.724072 -8.075607,0 -21.107128,2.249197 -29.266526,5.051305 -10.600147,3.640314 -19.658742,11.640173 -21.896316,19.337153 -1.358747,4.673928 -0.900795,10.016988 1.294701,15.105668 2.038904,4.72574 4.908593,8.61637 7.737391,10.49008 1.448327,0.95934 2.171213,1.00432 4.904774,0.30519 2.545049,-0.65091 4.887627,-1.8369 9.760091,-4.94127 2.145718,-1.36709 4.088275,-2.48563 4.316793,-2.48563 0.23526,0 0.415486,0.22335 0.415486,0.5149 0,0.50418 -0.719172,1.0162 -7.886959,5.61518 -3.252304,2.08674 -4.431006,3.34809 -5.073955,5.42971 -1.016703,3.2917 -0.753181,4.97559 2.262146,14.455 2.252186,7.08029 3.573949,10.33737 5.743146,14.15223 0.968002,1.70238 1.329698,2.07782 3.011771,3.12621 2.326933,1.45031 5.508913,2.20417 9.352184,2.21568 1.382448,0.004 2.678602,0.11206 2.880342,0.23983 0.310599,0.1967 0.313224,0.56219 0.01714,2.38544 -0.279636,1.72193 -0.288441,2.8665 -0.04396,5.71504 0.305001,3.55365 2.156804,13.47266 3.357695,17.98516 1.004858,3.77589 1.295884,6.37301 0.958096,8.55011 -0.420063,2.70739 -0.360489,9.09203 0.110612,11.85429 0.882946,5.17708 1.84939,7.3643 4.474361,10.1262 2.957907,3.11221 5.005987,4.05241 10.470727,4.80676 4.24027,0.58532 7.26209,0.61561 10.65122,0.10676 z m -7.65907,-20.95322 c -2.10511,-3.29082 -4.48663,-9.05953 -5.60004,-13.56486 -1.3284,-5.37525 -1.74349,-13.81628 -0.93776,-19.06954 0.505,-3.29256 0.37782,-8.77614 -0.27876,-12.019 -0.56829,-2.80681 -1.91091,-5.50706 -3.52621,-7.09187 -1.12316,-1.10196 -1.5676,-1.33904 -3.34101,-1.78221 -2.40061,-0.5999 -5.973183,-2.38441 -7.170409,-3.58164 -0.873834,-0.87383 -2.569874,-4.70017 -2.926877,-6.60316 -0.107391,-0.57244 -0.533974,-1.96891 -0.947962,-3.10326 -1.24432,-3.40952 -0.947473,-7.26123 0.829053,-10.75733 0.412615,-0.812 1.806623,-2.60746 3.097797,-3.98991 4.441976,-4.75598 5.367846,-6.38009 5.372024,-9.4233 0.0021,-1.62367 -0.124135,-2.13598 -0.918523,-3.72387 -2.178981,-4.35552 -6.894099,-7.49033 -11.266347,-7.49033 h -1.548378 l -2.855521,2.41327 c -1.912591,1.61638 -3.554471,2.74597 -4.972188,3.42079 -4.958059,2.36001 -9.657292,2.80577 -9.657292,0.91608 0,-0.52152 0.309909,-0.8679 1.389063,-1.55252 3.534936,-2.24257 14.642682,-6.728249 20.143695,-8.134697 5.289791,-1.352447 8.074697,-1.558237 12.333909,-0.911416 8.786956,1.334426 15.415256,6.121593 24.828466,17.931913 2.06594,2.59205 2.67484,3.88654 2.68239,5.70269 0.007,1.63622 -0.45385,2.86697 -1.6279,4.34932 -1.09743,1.38562 -1.84032,2.4074 -2.95273,4.06121 -0.49626,0.73778 -2.10086,2.83303 -3.56577,4.6561 -2.2337,2.77983 -2.96336,3.94101 -4.52201,7.19637 -2.04929,4.28009 -2.76757,5.36748 -4.15671,6.29275 -0.51334,0.34193 -1.2524,1.217 -1.64235,1.9446 -0.68991,1.28728 -0.70587,1.41915 -0.59254,4.89479 0.11758,3.60605 0.12017,4.25141 0.049,12.20885 -0.0648,7.24513 1.68551,18.26072 4.57494,28.79179 2.24061,8.1663 2.41539,9.53478 1.21778,9.53478 -0.36888,0 -0.84907,-0.48196 -1.51078,-1.51639 z"
         style="fill:#8c8c8c;fill-opacity:1;stroke-width:0.264583" />
      <path
         id="path197"
         d="M 26.458334,148.16666 V 68.791664 h 79.374996 79.375 v 79.374996 79.375 h -79.375 -79.374996 z m 93.465806,76.32225 c 1.49063,-0.22381 3.42461,-0.58869 4.29774,-0.81083 3.83225,-0.97503 8.51208,-4.6892 10.15804,-8.06199 1.10617,-2.26668 1.70536,-5.56704 1.48563,-8.18276 -0.23676,-2.81826 -1.01014,-6.66467 -2.68653,-13.36146 -3.00456,-12.00254 -3.90622,-18.07629 -3.3114,-22.30622 0.88423,-6.28795 3.23234,-13.36209 6.00756,-18.09899 2.15823,-3.68379 8.22912,-10.51082 12.33047,-13.86626 5.58444,-4.56881 7.68788,-10.145 6.3213,-16.75769 -2.29577,-11.10891 -10.50046,-23.257278 -23.27996,-34.469716 -7.00183,-6.143251 -11.50333,-8.999643 -19.70084,-12.501008 -3.33989,-1.426555 -4.92283,-1.724072 -9.17296,-1.724072 -8.075607,0 -21.107128,2.249197 -29.266526,5.051305 -10.600147,3.640314 -19.658742,11.640173 -21.896316,19.337153 -1.358747,4.673928 -0.900795,10.016988 1.294701,15.105668 2.038904,4.72574 4.908593,8.61637 7.737391,10.49008 1.448327,0.95934 2.171213,1.00432 4.904774,0.30519 2.545049,-0.65091 4.887627,-1.8369 9.760091,-4.94127 2.145718,-1.36709 4.088275,-2.48563 4.316793,-2.48563 0.23526,0 0.415486,0.22335 0.415486,0.5149 0,0.50418 -0.719172,1.0162 -7.886959,5.61518 -3.252304,2.08674 -4.431006,3.34809 -5.073955,5.42971 -1.016703,3.2917 -0.753181,4.97559 2.262146,14.455 2.252186,7.08029 3.573949,10.33737 5.743146,14.15223 0.968002,1.70238 1.329698,2.07782 3.011771,3.12621 2.326933,1.45031 5.508913,2.20417 9.352184,2.21568 1.382448,0.004 2.678602,0.11206 2.880342,0.23983 0.310599,0.1967 0.313224,0.56219 0.01714,2.38544 -0.279636,1.72193 -0.288441,2.8665 -0.04396,5.71504 0.305001,3.55365 2.156804,13.47266 3.357695,17.98516 1.004858,3.77589 1.295884,6.37301 0.958096,8.55011 -0.420063,2.70739 -0.360489,9.09203 0.110612,11.85429 0.882946,5.17708 1.84939,7.3643 4.474361,10.1262 2.957907,3.11221 5.005987,4.05241 10.470727,4.80676 4.24027,0.58532 7.26209,0.61561 10.65122,0.10676 z m -7.65907,-20.95322 c -2.10511,-3.29082 -4.48663,-9.05953 -5.60004,-13.56486 -1.3284,-5.37525 -1.74349,-13.81628 -0.93776,-19.06954 0.505,-3.29256 0.37782,-8.77614 -0.27876,-12.019 -0.56829,-2.80681 -1.91091,-5.50706 -3.52621,-7.09187 -1.12316,-1.10196 -1.5676,-1.33904 -3.34101,-1.78221 -2.40061,-0.5999 -5.973183,-2.38441 -7.170409,-3.58164 -0.873834,-0.87383 -2.569874,-4.70017 -2.926877,-6.60316 -0.107391,-0.57244 -0.533974,-1.96891 -0.947962,-3.10326 -1.24432,-3.40952 -0.947473,-7.26123 0.829053,-10.75733 0.412615,-0.812 1.806623,-2.60746 3.097797,-3.98991 4.441976,-4.75598 5.367846,-6.38009 5.372024,-9.4233 0.0021,-1.62367 -0.124135,-2.13598 -0.918523,-3.72387 -2.178981,-4.35552 -6.894099,-7.49033 -11.266347,-7.49033 h -1.548378 l -2.855521,2.41327 c -1.912591,1.61638 -3.554471,2.74597 -4.972188,3.42079 -4.958059,2.36001 -9.657292,2.80577 -9.657292,0.91608 0,-0.52152 0.309909,-0.8679 1.389063,-1.55252 3.534936,-2.24257 14.642682,-6.728249 20.143695,-8.134697 5.289791,-1.352447 8.074697,-1.558237 12.333909,-0.911416 8.786956,1.334426 15.415256,6.121593 24.828466,17.931913 2.06594,2.59205 2.67484,3.88654 2.68239,5.70269 0.007,1.63622 -0.45385,2.86697 -1.6279,4.34932 -1.09743,1.38562 -1.84032,2.4074 -2.95273,4.06121 -0.49626,0.73778 -2.10086,2.83303 -3.56577,4.6561 -2.2337,2.77983 -2.96336,3.94101 -4.52201,7.19637 -2.04929,4.28009 -2.76757,5.36748 -4.15671,6.29275 -0.51334,0.34193 -1.2524,1.217 -1.64235,1.9446 -0.68991,1.28728 -0.70587,1.41915 -0.59254,4.89479 0.11758,3.60605 0.12017,4.25141 0.049,12.20885 -0.0648,7.24513 1.68551,18.26072 4.57494,28.79179 2.24061,8.1663 2.41539,9.53478 1.21778,9.53478 -0.36888,0 -0.84907,-0.48196 -1.51078,-1.51639 z"
         style="fill:#767676;fill-opacity:1;stroke-width:0.264583" />
      <path
         id="path195"
         d="M 26.458334,148.16666 V 68.791664 h 79.374996 79.375 v 79.374996 79.375 h -79.375 -79.374996 z m 93.465806,76.32225 c 1.49063,-0.22381 3.42461,-0.58869 4.29774,-0.81083 3.83225,-0.97503 8.51208,-4.6892 10.15804,-8.06199 1.10617,-2.26668 1.70536,-5.56704 1.48563,-8.18276 -0.23676,-2.81826 -1.01014,-6.66467 -2.68653,-13.36146 -3.00456,-12.00254 -3.90622,-18.07629 -3.3114,-22.30622 0.88423,-6.28795 3.23234,-13.36209 6.00756,-18.09899 2.15823,-3.68379 8.22912,-10.51082 12.33047,-13.86626 5.58444,-4.56881 7.68788,-10.145 6.3213,-16.75769 -2.29577,-11.10891 -10.50046,-23.257278 -23.27996,-34.469716 -7.00183,-6.143251 -11.50333,-8.999643 -19.70084,-12.501008 -3.33989,-1.426555 -4.92283,-1.724072 -9.17296,-1.724072 -8.075607,0 -21.107128,2.249197 -29.266526,5.051305 -10.600147,3.640314 -19.658742,11.640173 -21.896316,19.337153 -1.358747,4.673928 -0.900795,10.016988 1.294701,15.105668 2.038904,4.72574 4.908593,8.61637 7.737391,10.49008 1.448327,0.95934 2.171213,1.00432 4.904774,0.30519 2.545049,-0.65091 4.887627,-1.8369 9.760091,-4.94127 2.145718,-1.36709 4.088275,-2.48563 4.316793,-2.48563 0.23526,0 0.415486,0.22335 0.415486,0.5149 0,0.50418 -0.719172,1.0162 -7.886959,5.61518 -3.252304,2.08674 -4.431006,3.34809 -5.073955,5.42971 -1.016703,3.2917 -0.753181,4.97559 2.262146,14.455 2.252186,7.08029 3.573949,10.33737 5.743146,14.15223 0.968002,1.70238 1.329698,2.07782 3.011771,3.12621 2.326933,1.45031 5.508913,2.20417 9.352184,2.21568 1.382448,0.004 2.678602,0.11206 2.880342,0.23983 0.310599,0.1967 0.313224,0.56219 0.01714,2.38544 -0.279636,1.72193 -0.288441,2.8665 -0.04396,5.71504 0.305001,3.55365 2.156804,13.47266 3.357695,17.98516 1.004858,3.77589 1.295884,6.37301 0.958096,8.55011 -0.420063,2.70739 -0.360489,9.09203 0.110612,11.85429 0.882946,5.17708 1.84939,7.3643 4.474361,10.1262 2.957907,3.11221 5.005987,4.05241 10.470727,4.80676 4.24027,0.58532 7.26209,0.61561 10.65122,0.10676 z m -7.65907,-20.95322 c -2.10511,-3.29082 -4.48663,-9.05953 -5.60004,-13.56486 -1.3284,-5.37525 -1.74349,-13.81628 -0.93776,-19.06954 0.505,-3.29256 0.37782,-8.77614 -0.27876,-12.019 -0.56829,-2.80681 -1.91091,-5.50706 -3.52621,-7.09187 -1.12316,-1.10196 -1.5676,-1.33904 -3.34101,-1.78221 -2.40061,-0.5999 -5.973183,-2.38441 -7.170409,-3.58164 -0.873834,-0.87383 -2.569874,-4.70017 -2.926877,-6.60316 -0.107391,-0.57244 -0.533974,-1.96891 -0.947962,-3.10326 -1.24432,-3.40952 -0.947473,-7.26123 0.829053,-10.75733 0.412615,-0.812 1.806623,-2.60746 3.097797,-3.98991 4.441976,-4.75598 5.367846,-6.38009 5.372024,-9.4233 0.0021,-1.62367 -0.124135,-2.13598 -0.918523,-3.72387 -2.178981,-4.35552 -6.894099,-7.49033 -11.266347,-7.49033 h -1.548378 l -2.855521,2.41327 c -1.912591,1.61638 -3.554471,2.74597 -4.972188,3.42079 -4.958059,2.36001 -9.657292,2.80577 -9.657292,0.91608 0,-0.52152 0.309909,-0.8679 1.389063,-1.55252 3.534936,-2.24257 14.642682,-6.728249 20.143695,-8.134697 5.289791,-1.352447 8.074697,-1.558237 12.333909,-0.911416 8.786956,1.334426 15.415256,6.121593 24.828466,17.931913 2.06594,2.59205 2.67484,3.88654 2.68239,5.70269 0.007,1.63622 -0.45385,2.86697 -1.6279,4.34932 -1.09743,1.38562 -1.84032,2.4074 -2.95273,4.06121 -0.49626,0.73778 -2.10086,2.83303 -3.56577,4.6561 -2.2337,2.77983 -2.96336,3.94101 -4.52201,7.19637 -2.04929,4.28009 -2.76757,5.36748 -4.15671,6.29275 -0.51334,0.34193 -1.2524,1.217 -1.64235,1.9446 -0.68991,1.28728 -0.70587,1.41915 -0.59254,4.89479 0.11758,3.60605 0.12017,4.25141 0.049,12.20885 -0.0648,7.24513 1.68551,18.26072 4.57494,28.79179 2.24061,8.1663 2.41539,9.53478 1.21778,9.53478 -0.36888,0 -0.84907,-0.48196 -1.51078,-1.51639 z"
         style="fill:#606060;fill-opacity:1;stroke-width:0.264583" />
      <path
         id="path193"
         d="M 26.458334,148.16666 V 68.791664 h 79.374996 79.375 v 79.374996 79.375 h -79.375 -79.374996 z m 93.465806,76.32225 c 1.49063,-0.22381 3.42461,-0.58869 4.29774,-0.81083 3.83225,-0.97503 8.51208,-4.6892 10.15804,-8.06199 1.10617,-2.26668 1.70536,-5.56704 1.48563,-8.18276 -0.23676,-2.81826 -1.01014,-6.66467 -2.68653,-13.36146 -3.00456,-12.00254 -3.90622,-18.07629 -3.3114,-22.30622 0.88423,-6.28795 3.23234,-13.36209 6.00756,-18.09899 2.15823,-3.68379 8.22912,-10.51082 12.33047,-13.86626 5.58444,-4.56881 7.68788,-10.145 6.3213,-16.75769 -2.29577,-11.10891 -10.50046,-23.257278 -23.27996,-34.469716 -7.00183,-6.143251 -11.50333,-8.999643 -19.70084,-12.501008 -3.33989,-1.426555 -4.92283,-1.724072 -9.17296,-1.724072 -8.075607,0 -21.107128,2.249197 -29.266526,5.051305 -10.600147,3.640314 -19.658742,11.640173 -21.896316,19.337153 -1.358747,4.673928 -0.900795,10.016988 1.294701,15.105668 2.038904,4.72574 4.908593,8.61637 7.737391,10.49008 1.448327,0.95934 2.171213,1.00432 4.904774,0.30519 2.545049,-0.65091 4.887627,-1.8369 9.760091,-4.94127 2.145718,-1.36709 4.088275,-2.48563 4.316793,-2.48563 0.23526,0 0.415486,0.22335 0.415486,0.5149 0,0.50418 -0.719172,1.0162 -7.886959,5.61518 -3.252304,2.08674 -4.431006,3.34809 -5.073955,5.42971 -1.016703,3.2917 -0.753181,4.97559 2.262146,14.455 2.252186,7.08029 3.573949,10.33737 5.743146,14.15223 0.968002,1.70238 1.329698,2.07782 3.011771,3.12621 2.326933,1.45031 5.508913,2.20417 9.352184,2.21568 1.382448,0.004 2.678602,0.11206 2.880342,0.23983 0.310599,0.1967 0.313224,0.56219 0.01714,2.38544 -0.279636,1.72193 -0.288441,2.8665 -0.04396,5.71504 0.305001,3.55365 2.156804,13.47266 3.357695,17.98516 1.004858,3.77589 1.295884,6.37301 0.958096,8.55011 -0.420063,2.70739 -0.360489,9.09203 0.110612,11.85429 0.882946,5.17708 1.84939,7.3643 4.474361,10.1262 2.957907,3.11221 5.005987,4.05241 10.470727,4.80676 4.24027,0.58532 7.26209,0.61561 10.65122,0.10676 z m -7.65907,-20.95322 c -2.10511,-3.29082 -4.48663,-9.05953 -5.60004,-13.56486 -1.3284,-5.37525 -1.74349,-13.81628 -0.93776,-19.06954 0.505,-3.29256 0.37782,-8.77614 -0.27876,-12.019 -0.56829,-2.80681 -1.91091,-5.50706 -3.52621,-7.09187 -1.12316,-1.10196 -1.5676,-1.33904 -3.34101,-1.78221 -2.40061,-0.5999 -5.973183,-2.38441 -7.170409,-3.58164 -0.873834,-0.87383 -2.569874,-4.70017 -2.926877,-6.60316 -0.107391,-0.57244 -0.533974,-1.96891 -0.947962,-3.10326 -1.24432,-3.40952 -0.947473,-7.26123 0.829053,-10.75733 0.412615,-0.812 1.806623,-2.60746 3.097797,-3.98991 4.441976,-4.75598 5.367846,-6.38009 5.372024,-9.4233 0.0021,-1.62367 -0.124135,-2.13598 -0.918523,-3.72387 -2.178981,-4.35552 -6.894099,-7.49033 -11.266347,-7.49033 h -1.548378 l -2.855521,2.41327 c -1.912591,1.61638 -3.554471,2.74597 -4.972188,3.42079 -4.958059,2.36001 -9.657292,2.80577 -9.657292,0.91608 0,-0.52152 0.309909,-0.8679 1.389063,-1.55252 3.534936,-2.24257 14.642682,-6.728249 20.143695,-8.134697 5.289791,-1.352447 8.074697,-1.558237 12.333909,-0.911416 8.786956,1.334426 15.415256,6.121593 24.828466,17.931913 2.06594,2.59205 2.67484,3.88654 2.68239,5.70269 0.007,1.63622 -0.45385,2.86697 -1.6279,4.34932 -1.09743,1.38562 -1.84032,2.4074 -2.95273,4.06121 -0.49626,0.73778 -2.10086,2.83303 -3.56577,4.6561 -2.2337,2.77983 -2.96336,3.94101 -4.52201,7.19637 -2.04929,4.28009 -2.76757,5.36748 -4.15671,6.29275 -0.51334,0.34193 -1.2524,1.217 -1.64235,1.9446 -0.68991,1.28728 -0.70587,1.41915 -0.59254,4.89479 0.11758,3.60605 0.12017,4.25141 0.049,12.20885 -0.0648,7.24513 1.68551,18.26072 4.57494,28.79179 2.24061,8.1663 2.41539,9.53478 1.21778,9.53478 -0.36888,0 -0.84907,-0.48196 -1.51078,-1.51639 z"
         style="fill:#494949;fill-opacity:1;stroke-width:0.264583" />
      <path
         id="path191"
         d="M 26.458334,148.16666 V 68.791664 h 79.374996 79.375 v 79.374996 79.375 h -79.375 -79.374996 z m 93.465806,76.32225 c 1.49063,-0.22381 3.42461,-0.58869 4.29774,-0.81083 3.83225,-0.97503 8.51208,-4.6892 10.15804,-8.06199 1.10617,-2.26668 1.70536,-5.56704 1.48563,-8.18276 -0.23676,-2.81826 -1.01014,-6.66467 -2.68653,-13.36146 -3.00456,-12.00254 -3.90622,-18.07629 -3.3114,-22.30622 0.88423,-6.28795 3.23234,-13.36209 6.00756,-18.09899 2.15823,-3.68379 8.22912,-10.51082 12.33047,-13.86626 5.58444,-4.56881 7.68788,-10.145 6.3213,-16.75769 -2.29577,-11.10891 -10.50046,-23.257278 -23.27996,-34.469716 -7.00183,-6.143251 -11.50333,-8.999643 -19.70084,-12.501008 -3.33989,-1.426555 -4.92283,-1.724072 -9.17296,-1.724072 -8.075607,0 -21.107128,2.249197 -29.266526,5.051305 -10.600147,3.640314 -19.658742,11.640173 -21.896316,19.337153 -1.358747,4.673928 -0.900795,10.016988 1.294701,15.105668 2.038904,4.72574 4.908593,8.61637 7.737391,10.49008 1.448327,0.95934 2.171213,1.00432 4.904774,0.30519 2.545049,-0.65091 4.887627,-1.8369 9.760091,-4.94127 2.145718,-1.36709 4.088275,-2.48563 4.316793,-2.48563 0.23526,0 0.415486,0.22335 0.415486,0.5149 0,0.50418 -0.719172,1.0162 -7.886959,5.61518 -3.252304,2.08674 -4.431006,3.34809 -5.073955,5.42971 -1.016703,3.2917 -0.753181,4.97559 2.262146,14.455 2.252186,7.08029 3.573949,10.33737 5.743146,14.15223 0.968002,1.70238 1.329698,2.07782 3.011771,3.12621 2.326933,1.45031 5.508913,2.20417 9.352184,2.21568 1.382448,0.004 2.678602,0.11206 2.880342,0.23983 0.310599,0.1967 0.313224,0.56219 0.01714,2.38544 -0.279636,1.72193 -0.288441,2.8665 -0.04396,5.71504 0.305001,3.55365 2.156804,13.47266 3.357695,17.98516 1.004858,3.77589 1.295884,6.37301 0.958096,8.55011 -0.420063,2.70739 -0.360489,9.09203 0.110612,11.85429 0.882946,5.17708 1.84939,7.3643 4.474361,10.1262 2.957907,3.11221 5.005987,4.05241 10.470727,4.80676 4.24027,0.58532 7.26209,0.61561 10.65122,0.10676 z m -7.65907,-20.95322 c -2.10511,-3.29082 -4.48663,-9.05953 -5.60004,-13.56486 -1.3284,-5.37525 -1.74349,-13.81628 -0.93776,-19.06954 0.505,-3.29256 0.37782,-8.77614 -0.27876,-12.019 -0.56829,-2.80681 -1.91091,-5.50706 -3.52621,-7.09187 -1.12316,-1.10196 -1.5676,-1.33904 -3.34101,-1.78221 -2.40061,-0.5999 -5.973183,-2.38441 -7.170409,-3.58164 -0.873834,-0.87383 -2.569874,-4.70017 -2.926877,-6.60316 -0.107391,-0.57244 -0.533974,-1.96891 -0.947962,-3.10326 -1.24432,-3.40952 -0.947473,-7.26123 0.829053,-10.75733 0.412615,-0.812 1.806623,-2.60746 3.097797,-3.98991 4.441976,-4.75598 5.367846,-6.38009 5.372024,-9.4233 0.0021,-1.62367 -0.124135,-2.13598 -0.918523,-3.72387 -2.178981,-4.35552 -6.894099,-7.49033 -11.266347,-7.49033 h -1.548378 l -2.855521,2.41327 c -1.912591,1.61638 -3.554471,2.74597 -4.972188,3.42079 -4.958059,2.36001 -9.657292,2.80577 -9.657292,0.91608 0,-0.52152 0.309909,-0.8679 1.389063,-1.55252 3.534936,-2.24257 14.642682,-6.728249 20.143695,-8.134697 5.289791,-1.352447 8.074697,-1.558237 12.333909,-0.911416 8.786956,1.334426 15.415256,6.121593 24.828466,17.931913 2.06594,2.59205 2.67484,3.88654 2.68239,5.70269 0.007,1.63622 -0.45385,2.86697 -1.6279,4.34932 -1.09743,1.38562 -1.84032,2.4074 -2.95273,4.06121 -0.49626,0.73778 -2.10086,2.83303 -3.56577,4.6561 -2.2337,2.77983 -2.96336,3.94101 -4.52201,7.19637 -2.04929,4.28009 -2.76757,5.36748 -4.15671,6.29275 -0.51334,0.34193 -1.2524,1.217 -1.64235,1.9446 -0.68991,1.28728 -0.70587,1.41915 -0.59254,4.89479 0.11758,3.60605 0.12017,4.25141 0.049,12.20885 -0.0648,7.24513 1.68551,18.26072 4.57494,28.79179 2.24061,8.1663 2.41539,9.53478 1.21778,9.53478 -0.36888,0 -0.84907,-0.48196 -1.51078,-1.51639 z"
         style="fill:#333333;fill-opacity:1;stroke-width:0.264583" />
    </g>
  </g>
</svg>
