# Blender v2.83.4 OBJ File: 'berlin.blend'
# www.blender.org
mtllib finish_line.mtl
o Finish_Plane.004
v 1.180344 -2.422438 0.000000
v 1.180344 -1.930634 0.000000
v 1.180344 -1.438831 0.000000
v 1.180344 -0.947027 0.000000
v 1.180344 -0.455225 0.000000
v 1.180344 0.036578 0.000000
v 1.180344 0.528381 0.000000
v 1.180343 1.020185 0.000000
v 1.180343 1.511988 0.000000
v 1.180343 2.003791 0.000000
v 1.180343 2.495594 0.000000
v 1.180343 2.987398 0.000000
v 1.672147 -2.422438 0.000000
v 1.672147 -1.930634 0.000000
v 1.672147 -1.438831 0.000000
v 1.672147 -0.947027 0.000000
v 1.672147 -0.455225 0.000000
v 1.672147 0.036578 0.000000
v 1.672146 0.528381 0.000000
v 1.672146 1.020185 0.000000
v 1.672146 1.511988 0.000000
v 1.672146 2.003791 0.000000
v 1.672146 2.495594 0.000000
v 1.672146 2.987398 0.000000
v 2.163950 -2.422438 0.000000
v 2.163950 -1.930634 0.000000
v 2.163950 -1.438831 0.000000
v 2.163950 -0.947027 0.000000
v 2.163950 -0.455225 0.000000
v 2.163950 0.036578 0.000000
v 2.163950 0.528381 0.000000
v 2.163950 1.020185 0.000000
v 2.163949 1.511988 0.000000
v 2.163949 2.003791 0.000000
v 2.163949 2.495594 0.000000
v 2.163949 2.987398 0.000000
vt 2.135542 0.595267
vt 1.940754 0.401474
vt 2.135045 0.400977
vt 1.746961 0.596261
vt 1.746464 0.401970
vt 1.552670 0.596758
vt 1.552173 0.402467
vt 1.357882 0.402964
vt 1.358379 0.597255
vt 1.163592 0.403461
vt 0.969798 0.598249
vt 0.969302 0.403958
vt 0.775011 0.404455
vt 0.775507 0.598745
vt 0.580720 0.404952
vt 0.581217 0.599242
vt 0.386430 0.405449
vt 0.192637 0.600236
vt 0.192140 0.405946
vt -0.001654 0.600733
vt -0.002151 0.406442
vt 2.136039 0.789557
vt 1.941251 0.595764
vt 1.941748 0.790054
vt 1.553167 0.791048
vt 1.358877 0.791545
vt 1.164089 0.597752
vt 1.164586 0.792042
vt 0.776005 0.793036
vt 0.581714 0.793533
vt 0.386928 0.599739
vt 0.387424 0.794030
vt -0.001157 0.795023
vt 1.747458 0.790551
vt 0.970296 0.792539
vt 0.193134 0.794526
vn 0.0000 0.0000 1.0000
usemtl Finish
s off
f 13/1/1 2/2/1 1/3/1
f 2/2/1 15/4/1 3/5/1
f 3/5/1 16/6/1 4/7/1
f 16/6/1 5/8/1 4/7/1
f 17/9/1 6/10/1 5/8/1
f 6/10/1 19/11/1 7/12/1
f 19/11/1 8/13/1 7/12/1
f 20/14/1 9/15/1 8/13/1
f 21/16/1 10/17/1 9/15/1
f 10/17/1 23/18/1 11/19/1
f 11/19/1 24/20/1 12/21/1
f 25/22/1 14/23/1 13/1/1
f 26/24/1 15/4/1 14/23/1
f 15/4/1 28/25/1 16/6/1
f 16/6/1 29/26/1 17/9/1
f 29/26/1 18/27/1 17/9/1
f 30/28/1 19/11/1 18/27/1
f 19/11/1 32/29/1 20/14/1
f 20/14/1 33/30/1 21/16/1
f 33/30/1 22/31/1 21/16/1
f 34/32/1 23/18/1 22/31/1
f 23/18/1 36/33/1 24/20/1
f 13/1/1 14/23/1 2/2/1
f 2/2/1 14/23/1 15/4/1
f 3/5/1 15/4/1 16/6/1
f 16/6/1 17/9/1 5/8/1
f 17/9/1 18/27/1 6/10/1
f 6/10/1 18/27/1 19/11/1
f 19/11/1 20/14/1 8/13/1
f 20/14/1 21/16/1 9/15/1
f 21/16/1 22/31/1 10/17/1
f 10/17/1 22/31/1 23/18/1
f 11/19/1 23/18/1 24/20/1
f 25/22/1 26/24/1 14/23/1
f 26/24/1 27/34/1 15/4/1
f 15/4/1 27/34/1 28/25/1
f 16/6/1 28/25/1 29/26/1
f 29/26/1 30/28/1 18/27/1
f 30/28/1 31/35/1 19/11/1
f 19/11/1 31/35/1 32/29/1
f 20/14/1 32/29/1 33/30/1
f 33/30/1 34/32/1 22/31/1
f 34/32/1 35/36/1 23/18/1
f 23/18/1 35/36/1 36/33/1
