# Blender v2.83.4 OBJ File: 'porto.blend'
# www.blender.org
mtllib floor.mtl
o Floor_Plane.001
v -12.800000 -12.800000 0.000000
v 12.800000 -12.800000 0.000000
v -12.800000 12.800000 0.000000
v 12.800000 12.800000 0.000000
v -0.126958 -1.444561 0.000000
v -0.112503 -1.458117 0.000000
v -0.094591 -1.472416 0.000000
v -0.073559 -1.486963 0.000000
v -0.049811 -1.502167 0.000000
v -0.023692 -1.518089 0.000000
v 0.004436 -1.533551 0.000000
v 0.034186 -1.548809 0.000000
v 0.065245 -1.563663 0.000000
v 0.097210 -1.578492 0.000000
v 0.129726 -1.591621 0.000000
v 0.945101 0.313421 0.000000
v 0.837234 0.351372 0.000000
v 0.582320 0.426071 0.000000
v -0.171647 -1.389647 0.000000
v -0.137564 -1.432541 0.000000
v -12.800000 12.800000 0.050000
v -12.800000 -12.800000 0.050000
v 12.800000 -12.800000 0.050000
v 12.800000 12.800000 0.050000
v -0.126958 -1.444561 0.050000
v -0.112503 -1.458117 0.050000
v -0.094591 -1.472416 0.050000
v -0.073559 -1.486963 0.050000
v -0.049811 -1.502167 0.050000
v -0.023692 -1.518089 0.050000
v 0.004436 -1.533551 0.050000
v 0.034186 -1.548809 0.050000
v 0.065245 -1.563663 0.050000
v 0.097210 -1.578492 0.050000
v 0.129726 -1.591621 0.050000
v 0.945101 0.313421 0.050000
v 0.837234 0.351372 0.050000
v 0.582320 0.426071 0.050000
v -0.171647 -1.389647 0.050000
v -0.137564 -1.432541 0.050000
v -0.126958 -1.444561 0.011751
v -0.112503 -1.458117 0.011751
v -0.094591 -1.472416 0.011751
v -0.073559 -1.486963 0.011751
v -0.049811 -1.502167 0.011751
v -0.023692 -1.518089 0.011751
v 0.004436 -1.533551 0.011751
v 0.034186 -1.548809 0.011751
v 0.065245 -1.563663 0.011751
v 0.097210 -1.578492 0.011751
v 0.129726 -1.591621 0.011751
v 0.945101 0.313421 0.011751
v 0.837234 0.351372 0.011751
v 0.582320 0.426071 0.011751
v -0.171647 -1.389647 0.011751
v -0.137564 -1.432541 0.011751
vt 0.536918 0.512243
vt 0.532704 0.513725
vt 0.532704 0.513725
vt 0.505067 0.437827
vt 0.505067 0.437827
vt 0.000000 0.000000
vt 0.000000 0.000000
vt 0.000000 0.000000
vt -23.107227 0.958140
vt -12.515538 -11.079886
vt -12.500897 -11.053244
vt -10.673103 -11.622868
vt -10.743326 -11.862516
vt 0.959894 -23.108971
vt 0.498054 0.441322
vt 0.499075 0.440700
vt 0.499075 0.440700
vt 0.000000 0.000000
vt 0.000000 0.000000
vt 0.522747 0.516643
vt 0.522747 0.516643
vt 0.500173 0.440096
vt 0.500173 0.440096
vt 0.000000 0.000000
vt 0.000000 0.000000
vt 0.493295 0.445717
vt 0.493295 0.445717
vt 0.501335 0.439500
vt 0.501335 0.439500
vt 0.000000 0.000000
vt 0.494626 0.444041
vt 0.494626 0.444041
vt 0.502549 0.438919
vt 0.502549 0.438919
vt 0.495041 0.443572
vt 0.495605 0.443042
vt 0.495605 0.443042
vt 0.495041 0.443572
vt 0.503797 0.438340
vt 0.503797 0.438340
vt 0.496305 0.442484
vt 0.496305 0.442484
vt 0.505067 0.437827
vt 0.497127 0.441916
vt 0.497127 0.441916
vt 0.536918 0.512243
vt 0.498054 0.441322
vt 0.532704 0.513725
vt 0.493295 0.445717
vt 0.497127 0.441916
vt 0.536918 0.512243
vt 0.498054 0.441322
vt 0.499075 0.440700
vt 0.522747 0.516643
vt 0.501335 0.439500
vt 0.500173 0.440096
vt 0.495041 0.443572
vt 0.494626 0.444041
vt 0.502549 0.438919
vt 0.495605 0.443042
vt 0.503797 0.438340
vt 0.496305 0.442484
vt -23.107204 -23.108967
vt -10.779001 -11.963923
vt -12.569973 -11.197361
vt -12.420438 -10.946115
vt -12.380101 -10.914055
vt -12.431744 -10.956096
vt -12.557620 -11.166773
vt -12.444496 -10.969698
vt -12.457943 -10.986547
vt -12.543767 -11.136911
vt -12.529902 -11.107910
vt -12.471624 -11.006334
vt -12.485924 -11.028673
vt 0.959895 0.958137
vn -0.3319 -0.9433 0.0000
vn 0.9193 -0.3935 0.0000
vn -1.0000 0.0000 0.0000
vn -0.0000 0.0000 1.0000
vn 0.5205 0.8539 0.0000
vn 0.0000 -1.0000 0.0000
vn -0.2812 -0.9596 0.0000
vn 0.4817 0.8763 0.0000
vn 1.0000 0.0000 0.0000
vn 0.9235 -0.3835 0.0000
vn 0.4564 0.8898 0.0000
vn 0.0000 1.0000 0.0000
vn 0.7829 0.6221 0.0000
vn 0.4314 0.9021 0.0000
vn 0.6841 0.7294 0.0000
vn 0.7498 0.6616 0.0000
vn 0.4208 0.9071 0.0000
vn 0.6239 0.7815 0.0000
vn 0.3744 0.9273 0.0000
vn 0.5689 0.8224 0.0000
vn -0.9193 0.3935 0.0000
vn 0.5392 0.8422 0.0000
vn -0.5392 -0.8422 0.0000
vn 0.3319 0.9433 0.0000
vn -0.5205 -0.8539 0.0000
vn 0.2812 0.9596 0.0000
vn -0.4817 -0.8763 0.0000
vn -0.9235 0.3835 0.0000
vn -0.4564 -0.8898 0.0000
vn -0.7829 -0.6221 0.0000
vn -0.4314 -0.9021 0.0000
vn -0.6841 -0.7294 0.0000
vn -0.7498 -0.6616 0.0000
vn -0.4208 -0.9071 0.0000
vn -0.6239 -0.7815 0.0000
vn -0.3744 -0.9273 0.0000
vn -0.5689 -0.8224 0.0000
usemtl Asphalt
s off
f 16/1/1 37/2/1 17/3/1
f 16/1/2 51/4/2 15/5/2
f 1/6/3 21/7/3 3/8/3
f 22/9/4 31/10/4 30/11/4
f 38/12/4 37/13/4 24/14/4
f 9/15/5 30/16/5 10/17/5
f 2/18/6 22/19/6 1/6/6
f 17/3/7 38/20/7 18/21/7
f 10/17/8 31/22/8 11/23/8
f 4/24/9 23/25/9 2/18/9
f 18/21/10 39/26/10 19/27/10
f 11/23/11 32/28/11 12/29/11
f 3/8/12 24/30/12 4/24/12
f 19/27/13 40/31/13 20/32/13
f 12/29/14 33/33/14 13/34/14
f 5/35/15 26/36/15 6/37/15
f 20/32/16 25/38/16 5/35/16
f 13/34/17 34/39/17 14/40/17
f 6/37/18 27/41/18 7/42/18
f 14/40/19 35/43/19 15/5/19
f 7/42/20 28/44/20 8/45/20
f 15/5/21 36/46/21 16/1/21
f 8/45/22 29/47/22 9/15/22
f 51/4/4 53/48/4 55/49/4
f 9/15/23 44/50/23 8/45/23
f 17/3/24 52/51/24 16/1/24
f 10/17/25 45/52/25 9/15/25
f 18/21/26 53/48/26 17/3/26
f 11/23/27 46/53/27 10/17/27
f 19/27/28 54/54/28 18/21/28
f 11/23/29 48/55/29 47/56/29
f 20/32/30 55/49/30 19/27/30
f 13/34/31 48/55/31 12/29/31
f 6/37/32 41/57/32 5/35/32
f 5/35/33 56/58/33 20/32/33
f 14/40/34 49/59/34 13/34/34
f 7/42/35 42/60/35 6/37/35
f 15/5/36 50/61/36 14/40/36
f 8/45/37 43/62/37 7/42/37
f 16/1/1 36/46/1 37/2/1
f 16/1/2 52/51/2 51/4/2
f 1/6/3 22/19/3 21/7/3
f 23/63/4 24/14/4 36/64/4
f 23/63/4 36/64/4 35/65/4
f 40/66/4 39/67/4 22/9/4
f 25/68/4 40/66/4 22/9/4
f 22/9/4 23/63/4 35/65/4
f 22/9/4 35/65/4 34/69/4
f 26/70/4 25/68/4 22/9/4
f 27/71/4 26/70/4 22/9/4
f 22/9/4 34/69/4 33/72/4
f 22/9/4 33/72/4 32/73/4
f 28/74/4 27/71/4 22/9/4
f 29/75/4 28/74/4 22/9/4
f 22/9/4 32/73/4 31/10/4
f 30/11/4 29/75/4 22/9/4
f 37/13/4 36/64/4 24/14/4
f 24/14/4 21/76/4 38/12/4
f 21/76/4 22/9/4 39/67/4
f 38/12/4 21/76/4 39/67/4
f 9/15/5 29/47/5 30/16/5
f 2/18/6 23/25/6 22/19/6
f 17/3/7 37/2/7 38/20/7
f 10/17/8 30/16/8 31/22/8
f 4/24/9 24/30/9 23/25/9
f 18/21/10 38/20/10 39/26/10
f 11/23/11 31/22/11 32/28/11
f 3/8/12 21/7/12 24/30/12
f 19/27/13 39/26/13 40/31/13
f 12/29/14 32/28/14 33/33/14
f 5/35/15 25/38/15 26/36/15
f 20/32/16 40/31/16 25/38/16
f 13/34/17 33/33/17 34/39/17
f 6/37/18 26/36/18 27/41/18
f 14/40/19 34/39/19 35/43/19
f 7/42/20 27/41/20 28/44/20
f 15/5/21 35/43/21 36/46/21
f 8/45/22 28/44/22 29/47/22
f 54/54/4 55/49/4 53/48/4
f 55/49/4 56/58/4 44/50/4
f 46/53/4 55/49/4 45/52/4
f 56/58/4 41/57/4 42/60/4
f 42/60/4 43/62/4 56/58/4
f 43/62/4 44/50/4 56/58/4
f 44/50/4 45/52/4 55/49/4
f 46/53/4 47/56/4 55/49/4
f 47/56/4 48/55/4 55/49/4
f 48/55/4 49/59/4 55/49/4
f 49/59/4 50/61/4 51/4/4
f 55/49/4 49/59/4 51/4/4
f 51/4/4 52/51/4 53/48/4
f 9/15/23 45/52/23 44/50/23
f 17/3/24 53/48/24 52/51/24
f 10/17/25 46/53/25 45/52/25
f 18/21/26 54/54/26 53/48/26
f 11/23/27 47/56/27 46/53/27
f 19/27/28 55/49/28 54/54/28
f 11/23/29 12/29/29 48/55/29
f 20/32/30 56/58/30 55/49/30
f 13/34/31 49/59/31 48/55/31
f 6/37/32 42/60/32 41/57/32
f 5/35/33 41/57/33 56/58/33
f 14/40/34 50/61/34 49/59/34
f 7/42/35 43/62/35 42/60/35
f 15/5/36 51/4/36 50/61/36
f 8/45/37 44/50/37 43/62/37
